<svg width="11" height="8" viewBox="0 0 11 8" fill="none" xmlns="http://www.w3.org/2000/svg">
<path d="M2.12757 0C1.5499 0 1.12247 0.499407 1.1416 1.04102C1.15996 1.56136 1.13611 2.23525 0.964347 2.78483C0.792069 3.33602 0.500706 3.68517 0.0247955 3.73V4.2361C0.500706 4.28093 0.792069 4.63008 0.964347 5.18127C1.13611 5.73085 1.15996 6.40475 1.1416 6.92508C1.12247 7.46661 1.5499 7.9661 2.12765 7.9661H8.04671C8.62438 7.9661 9.05173 7.46669 9.0326 6.92508C9.01424 6.40475 9.03809 5.73085 9.20985 5.18127C9.38221 4.63008 9.6728 4.28093 10.1487 4.2361V3.73C9.6728 3.68517 9.38221 3.33602 9.20985 2.78483C9.03809 2.23534 9.01424 1.56136 9.0326 1.04102C9.05173 0.499492 8.62438 0 8.04671 0H2.12748H2.12757ZM6.88847 4.90364C6.88847 5.64941 6.32531 6.10169 5.39073 6.10169H3.79982C3.70505 6.10169 3.62822 6.02581 3.62822 5.9322V2.0339C3.62822 1.94029 3.70505 1.86441 3.79982 1.86441H5.38164C6.16092 1.86441 6.67235 2.28136 6.67235 2.92153C6.67235 3.37085 6.32831 3.77314 5.88998 3.84356V3.86703C6.48669 3.93169 6.88847 4.33983 6.88847 4.90364ZM5.21725 2.4017H4.31013V3.66729H5.07414C5.66476 3.66729 5.99044 3.43237 5.99044 3.01246C5.99044 2.61898 5.71041 2.4017 5.21725 2.4017ZM4.31013 4.16949V5.56424H5.25063C5.86552 5.56424 6.19129 5.32051 6.19129 4.86246C6.19129 4.40432 5.85643 4.16941 5.21107 4.16941H4.31013V4.16949Z" fill="#7E13F8"/>
</svg>
