<svg width="11" height="10" viewBox="0 0 11 10" fill="none" xmlns="http://www.w3.org/2000/svg">
<path d="M4.02214 0.566579V0.117188H2.95052V1.43079H4.02214V0.981402H3.39991V0.566579H4.02214Z" fill="black"/>
<path d="M5.54316 0.117188H4.47153V0.578488L4.9187 0.981402H4.47153V1.43079H5.54316V0.993294L5.13663 0.566579H5.54316V0.117188Z" fill="black"/>
<path d="M6.02712 0.117188H7.09875V0.566579H6.67493L7.09875 0.993294V1.43079H6.02712V0.981402H6.457L6.02712 0.578488V0.117188Z" fill="black"/>
<path fill-rule="evenodd" clip-rule="evenodd" d="M2.19695 9.08713L1.56776 2.03035H8.48148L7.85162 9.08597L5.02044 9.87094L2.19695 9.08713Z" fill="#0071BC"/>
<path fill-rule="evenodd" clip-rule="evenodd" d="M5.03043 9.27056L7.31532 8.64198L7.85067 2.61803H5.03043V9.27056Z" fill="#29ABE2"/>
<path fill-rule="evenodd" clip-rule="evenodd" d="M3.00797 5.21066L3.08376 6.07488L5.03043 5.21066V4.34505L3.00797 5.21066Z" fill="#B3B3B3"/>
<path fill-rule="evenodd" clip-rule="evenodd" d="M7.18643 3.42105L5.03043 4.34505V5.21067L7.11209 4.28527L7.18643 3.42105Z" fill="#E6E6E6"/>
<path fill-rule="evenodd" clip-rule="evenodd" d="M5.03043 7.47186L5.02374 7.47286L4.05832 7.21359L3.99525 6.52426H3.12639L3.24764 7.88229L5.02355 8.37401L5.03043 8.37238V7.47186Z" fill="#E6E6E6"/>
<path fill-rule="evenodd" clip-rule="evenodd" d="M5.03043 5.21066V6.07488H6.0874L5.99133 7.20477L5.03043 7.47261V8.37307L6.80044 7.88135L7.03352 5.21066H5.03043Z" fill="white"/>
<path fill-rule="evenodd" clip-rule="evenodd" d="M5.03043 5.21066H3.00797L3.08376 6.07488H5.03043V5.21066Z" fill="#E6E6E6"/>
<path fill-rule="evenodd" clip-rule="evenodd" d="M5.03044 4.28527V3.42105H5.02166H2.85431L2.931 4.28527H5.03044Z" fill="#E6E6E6"/>
<path fill-rule="evenodd" clip-rule="evenodd" d="M5.03043 3.42105V4.27443V4.28527H7.11209L7.18643 3.42105H5.03043Z" fill="white"/>
</svg>
