<svg width="11" height="10" viewBox="0 0 11 10" fill="none" xmlns="http://www.w3.org/2000/svg">
<g clip-path="url(#clip0_37_1150)">
<path d="M3.4126 10C4.344 10 5.09992 9.25333 5.09992 8.33333V6.66666H3.4126C2.4812 6.66666 1.72528 7.41333 1.72528 8.33333C1.72528 9.25333 2.4812 10 3.4126 10Z" fill="#0ACF83"/>
<path d="M1.72528 5C1.72528 4.08 2.4812 3.33334 3.4126 3.33334H5.09992V6.66667H3.4126C2.4812 6.66667 1.72528 5.92 1.72528 5Z" fill="#A259FF"/>
<path d="M1.72528 1.66667C1.72528 0.746667 2.4812 0 3.4126 0H5.09992V3.33333H3.4126C2.4812 3.33333 1.72528 2.58667 1.72528 1.66667Z" fill="#F24E1E"/>
<path d="M5.09991 0H6.78723C7.71864 0 8.47456 0.746667 8.47456 1.66667C8.47456 2.58667 7.71864 3.33333 6.78723 3.33333H5.09991V0Z" fill="#FF7262"/>
<path d="M8.47456 5C8.47456 5.92 7.71864 6.66667 6.78723 6.66667C5.85583 6.66667 5.09991 5.92 5.09991 5C5.09991 4.08 5.85583 3.33334 6.78723 3.33334C7.71864 3.33334 8.47456 4.08 8.47456 5Z" fill="#1ABCFE"/>
</g>
<defs>
<clipPath id="clip0_37_1150">
<rect width="10.1239" height="10" fill="white" transform="translate(0.0247803)"/>
</clipPath>
</defs>
</svg>
