<svg width="8" height="10" viewBox="0 0 8 10" fill="none" xmlns="http://www.w3.org/2000/svg">
<path d="M0.0372009 8.07172L0.0984893 7.98695L2.99773 2.55312L3.00385 2.4956L1.7258 0.124363C1.61873 -0.0742702 1.31729 -0.0240488 1.28215 0.198306L0.0372009 8.07172Z" fill="#FFC24A"/>
<path d="M0.073349 8.00702L0.119712 7.91773L2.98857 2.54083L1.71372 0.159949C1.60777 -0.0366035 1.33871 0.0135017 1.30394 0.233527L0.073349 8.00702Z" fill="#FFA712"/>
<path d="M3.93557 4.28916L4.88716 3.3265L3.93529 1.53161C3.84493 1.36171 3.59264 1.36122 3.50323 1.53161L2.99469 2.48963V2.57122L3.93557 4.28916Z" fill="#F4BD62"/>
<path d="M3.91858 4.24904L4.84371 3.31316L3.91858 1.57312C3.83074 1.40794 3.61732 1.39064 3.5304 1.55629L3.01916 2.52915L3.00388 2.57889L3.91858 4.24904Z" fill="#FFA50E"/>
<path d="M0.0372009 8.07167L0.0649819 8.04408L0.165919 8.00356L3.87577 4.35274L3.92277 4.22636L2.99731 2.48441L0.0372009 8.07167Z" fill="#F6820C"/>
<path d="M4.05438 9.91286L7.41187 8.06328L6.45308 2.23068C6.42309 2.0482 6.19643 1.97605 6.0642 2.1069L0.0372009 8.07167L3.37544 9.9127C3.58641 10.029 3.84335 10.0291 4.05438 9.91286Z" fill="#FDE068"/>
<path d="M7.38177 8.04776L6.43027 2.25945C6.4005 2.07835 6.21202 2.00341 6.08079 2.13326L0.0744171 8.06034L3.37599 9.88314C3.58536 9.99861 3.84035 9.99867 4.04977 9.8833L7.38177 8.04776Z" fill="#FCCA3F"/>
<path d="M4.05438 9.85837C3.84335 9.97461 3.58641 9.97456 3.37544 9.8582L0.0640885 8.04362L0.0372009 8.07166L3.37544 9.91269C3.58641 10.029 3.84335 10.0291 4.05438 9.91286L7.41187 8.06327L7.40365 8.01331L4.05438 9.85837Z" fill="#EEAB37"/>
</svg>
