<svg width="11" height="10" viewBox="0 0 11 10" fill="none" xmlns="http://www.w3.org/2000/svg">
<g clip-path="url(#clip0_37_1166)">
<path fill-rule="evenodd" clip-rule="evenodd" d="M9.91314 4.59002L5.51289 0.1901C5.25966 -0.0633463 4.84864 -0.0633463 4.59508 0.1901L3.68137 1.10381L4.84046 2.2629C5.10983 2.17189 5.41867 2.23293 5.63342 2.44767C5.84916 2.66374 5.90975 2.97524 5.81654 3.2455L6.9336 4.36256C7.20386 4.26946 7.51569 4.32972 7.73154 4.5459C8.0332 4.84745 8.0332 5.33621 7.73154 5.63798C7.42977 5.93975 6.94101 5.93975 6.63913 5.63798C6.41222 5.41085 6.35616 5.07757 6.47105 4.79802L5.42929 3.75626L5.42918 6.49773C5.50271 6.53422 5.57216 6.58276 5.63342 6.6438C5.93508 6.94535 5.93508 7.43411 5.63342 7.7361C5.33165 8.03776 4.84267 8.03776 4.54134 7.7361C4.23968 7.43411 4.23968 6.94535 4.54134 6.6438C4.61587 6.56938 4.70212 6.5131 4.79413 6.47528V3.70827C4.70212 3.67067 4.61598 3.61472 4.54134 3.53975C4.31278 3.31151 4.25782 2.97613 4.37492 2.69548L3.23242 1.55276L0.215284 4.56968C-0.0382733 4.82335 -0.0382733 5.23437 0.215284 5.48781L4.61554 9.88785C4.86888 10.1413 5.27979 10.1413 5.53345 9.88785L9.91314 5.50827C10.1666 5.25471 10.1666 4.84347 9.91314 4.59002Z" fill="#DE4C36"/>
</g>
<defs>
<clipPath id="clip0_37_1166">
<rect width="10.1239" height="9.96109" fill="white" transform="translate(0.0247803 7.62939e-06)"/>
</clipPath>
</defs>
</svg>
