<svg width="11" height="10" viewBox="0 0 11 10" fill="none" xmlns="http://www.w3.org/2000/svg">
<path fill-rule="evenodd" clip-rule="evenodd" d="M5.08678 0C2.29148 0 0.0247803 2.23854 0.0247803 5.00004C0.0247803 7.20919 1.4752 9.08342 3.48649 9.74457C3.73947 9.79085 3.83235 9.6361 3.83235 9.50404C3.83235 9.38481 3.82765 8.99093 3.82547 8.57313C2.41722 8.8756 2.12006 7.98319 2.12006 7.98319C1.88979 7.40526 1.55802 7.25158 1.55802 7.25158C1.09874 6.94125 1.59264 6.94763 1.59264 6.94763C2.10095 6.9829 2.3686 7.46289 2.3686 7.46289C2.82008 8.22728 3.55279 8.00629 3.84165 7.87853C3.88708 7.55537 4.01827 7.3348 4.16303 7.20994C3.0387 7.0835 1.85677 6.65477 1.85677 4.73889C1.85677 4.193 2.05451 3.74697 2.37832 3.39681C2.32577 3.27088 2.1525 2.76233 2.42736 2.07361C2.42736 2.07361 2.85244 1.93923 3.81977 2.58613C4.22356 2.47535 4.65659 2.41979 5.08678 2.41788C5.51697 2.41979 5.95034 2.47535 6.35488 2.58613C7.32104 1.93923 7.74553 2.07361 7.74553 2.07361C8.02106 2.76233 7.84771 3.27088 7.79516 3.39681C8.11972 3.74697 8.31613 4.193 8.31613 4.73889C8.31613 6.65932 7.13194 7.08218 6.00475 7.20596C6.18631 7.36113 6.34809 7.66541 6.34809 8.1319C6.34809 8.80091 6.34222 9.33935 6.34222 9.50404C6.34222 9.63709 6.43334 9.793 6.68993 9.7439C8.70013 9.08201 10.1487 7.20845 10.1487 5.00004C10.1487 2.23854 7.88233 0 5.08678 0ZM1.92066 7.12266C1.90952 7.1475 1.86995 7.15496 1.83391 7.1379C1.79719 7.12159 1.77657 7.08772 1.78847 7.0628C1.79937 7.03722 1.83902 7.0301 1.87565 7.04724C1.91245 7.06355 1.93341 7.09774 1.92066 7.12266ZM2.16966 7.34212C2.14552 7.36423 2.09832 7.35396 2.0663 7.31902C2.03319 7.28416 2.02699 7.23755 2.05147 7.21511C2.07636 7.193 2.12213 7.20335 2.15532 7.23821C2.18844 7.27348 2.19489 7.31976 2.16966 7.34212ZM2.34048 7.6229C2.30946 7.64418 2.25875 7.62423 2.2274 7.57977C2.19638 7.5353 2.19638 7.48198 2.22807 7.46062C2.2595 7.43926 2.30946 7.45847 2.34123 7.5026C2.37216 7.54781 2.37216 7.60113 2.34048 7.6229ZM2.62937 7.94809C2.60162 7.97831 2.54253 7.9702 2.49927 7.92897C2.45502 7.88864 2.44269 7.83143 2.47052 7.80121C2.4986 7.7709 2.55804 7.77943 2.60162 7.82033C2.64555 7.86057 2.65896 7.9182 2.62937 7.94809ZM3.00274 8.05787C2.9905 8.09704 2.93358 8.11484 2.87624 8.0982C2.81899 8.08106 2.78152 8.03519 2.79309 7.99561C2.80499 7.9562 2.86216 7.93765 2.91992 7.95545C2.97709 7.97251 3.01464 8.01805 3.00274 8.05787ZM3.42764 8.10444C3.42907 8.14567 3.38045 8.17987 3.32026 8.18061C3.25974 8.18194 3.21079 8.14857 3.21012 8.108C3.21012 8.06635 3.25764 8.03249 3.31817 8.03149C3.37835 8.03033 3.42764 8.06345 3.42764 8.10444ZM3.84506 8.08863C3.85227 8.12887 3.81044 8.17019 3.75068 8.1812C3.69192 8.1918 3.63751 8.16696 3.63005 8.12705C3.62276 8.08582 3.66534 8.0445 3.72402 8.03382C3.78387 8.02355 3.83744 8.04773 3.84506 8.08863Z" fill="#161614"/>
</svg>
