<svg width="8" height="10" viewBox="0 0 8 10" fill="none" xmlns="http://www.w3.org/2000/svg">
<g clip-path="url(#clip0_37_1242)">
<path d="M3.71264 9.91696L0.89415 9.13453L0.262089 2.04523H7.17182L6.53909 9.13337L3.71264 9.91696Z" stroke="#E44D26" stroke-width="0.16"/>
<path fill-rule="evenodd" clip-rule="evenodd" d="M5.53213 7.96159L5.54547 7.81175L5.75389 5.47677L5.77553 5.2386H2.54333L2.46228 4.33038H3.71543H5.85338L5.87403 4.13103L5.91444 3.6814L5.93565 3.44345H3.71543H1.49298L1.51421 3.6814L1.7322 6.12552H3.71696H4.80604L4.70309 7.27579L3.7168 7.542L2.7253 7.27636L2.66216 6.56899H2.18218H1.77183L1.89608 7.96159L3.71288 8.46594L5.53213 7.96159Z" fill="#E44D26"/>
<path fill-rule="evenodd" clip-rule="evenodd" d="M0.833794 0H1.28452V0.445312H1.69682V0H2.14756V1.34851H1.69684V0.896952H1.28454V1.34851H0.833813V0H0.833794Z" fill="#E44D26"/>
<path fill-rule="evenodd" clip-rule="evenodd" d="M2.74027 0.447187H2.34347V0H3.588V0.447187H3.19103V1.34851H2.74029V0.447187H2.74027Z" fill="#E44D26"/>
<path fill-rule="evenodd" clip-rule="evenodd" d="M3.78553 0H4.25551L4.54461 0.473827L4.83342 0H5.30357V1.34851H4.85471V0.680116L4.54461 1.15959H4.53685L4.22654 0.680116V1.34851H3.78553V0H3.78553Z" fill="#E44D26"/>
<path fill-rule="evenodd" clip-rule="evenodd" d="M5.52789 0H5.97875V0.902772H6.6126V1.34851H5.52789V0Z" fill="#E44D26"/>
</g>
<defs>
<clipPath id="clip0_37_1242">
<rect width="7.18797" height="9.99998" fill="white" transform="translate(0.162273)"/>
</clipPath>
</defs>
</svg>
