<svg width="11" height="10" viewBox="0 0 11 10" fill="none" xmlns="http://www.w3.org/2000/svg">
<path fill-rule="evenodd" clip-rule="evenodd" d="M0.149879 0H10.2738V10H0.149879V0Z" fill="#F7DF1E"/>
<path fill-rule="evenodd" clip-rule="evenodd" d="M2.81183 8.35673L3.58659 7.89361C3.73605 8.15537 3.87202 8.37685 4.19815 8.37685C4.51077 8.37685 4.70787 8.25605 4.70787 7.78621V4.59097H5.65926V7.7995C5.65926 8.77283 5.08165 9.21586 4.23894 9.21586C3.47786 9.21586 3.03607 8.82651 2.81182 8.35666" fill="black"/>
<path fill-rule="evenodd" clip-rule="evenodd" d="M6.17602 8.25603L6.95068 7.81299C7.15461 8.14195 7.41964 8.38358 7.88853 8.38358C8.28273 8.38358 8.53411 8.1889 8.53411 7.92039C8.53411 7.59818 8.27589 7.48406 7.84094 7.29617L7.60316 7.19541C6.91674 6.90682 6.46141 6.54434 6.46141 5.77909C6.46141 5.07426 7.00506 4.53723 7.85457 4.53723C8.4594 4.53723 8.89433 4.74534 9.2069 5.28907L8.46615 5.75893C8.30304 5.47031 8.12641 5.35622 7.85459 5.35622C7.57595 5.35622 7.39925 5.53074 7.39925 5.75893C7.39925 6.04087 7.57595 6.15501 7.98366 6.32955L8.22149 6.43023C9.0302 6.7726 9.48553 7.12161 9.48553 7.90696C9.48553 8.7528 8.81276 9.21593 7.90893 9.21593C7.02549 9.21593 6.45462 8.79977 6.17604 8.25603" fill="black"/>
</svg>
