<svg width="11" height="10" viewBox="0 0 11 10" fill="none" xmlns="http://www.w3.org/2000/svg">
<path d="M8.86403 3.72051C9.22436 3.64401 10.0404 3.03192 10.1822 2.70785C9.00874 3.50396 8.26263 3.28072 7.88647 3.16818C7.87045 3.16338 7.85511 3.15879 7.84043 3.15449C7.76126 3.13189 7.57806 3.04988 7.40735 2.94759C7.39552 2.9405 7.38387 2.93353 7.37241 2.92667C7.01644 2.71361 6.83183 2.60312 6.54583 2.18857C6.38364 1.95367 6.22155 1.58033 6.16837 1.36638C6.08058 1.01266 6.1049 0.468467 6.27175 0C5.71793 0.492717 5.63257 1.44453 5.81821 2.07382C5.84176 2.15351 5.97333 2.46656 6.04454 2.58131C6.52317 3.34893 7.43709 4.02352 8.86403 3.72051Z" fill="#21609B"/>
<path d="M7.84593 5.86068C8.75764 5.86696 9.70992 5.44215 10.2738 4.84571C9.78046 6.09425 8.35198 6.89682 6.43624 6.64153C4.83228 6.42758 3.30429 4.81837 3.14685 3.20596C3.03175 2.03248 3.44205 1.3321 4.11804 0.482575C3.88309 0.926902 3.7953 1.2696 3.77341 1.48818C3.51657 4.02661 5.80735 5.84745 7.84593 5.86068Z" fill="#21609B"/>
<path d="M10.0388 7.42238L9.99352 7.53944C9.22123 9.03853 7.853 9.95838 5.90132 9.99894C4.98895 10.0177 4.11958 9.78433 3.55173 9.53048C2.32613 8.98154 1.29534 7.96348 0.732347 6.87576C-0.0752121 5.31648 -0.220825 3.14743 1.45831 1.5273C1.47125 1.5273 1.42033 1.61513 1.36942 1.70295C1.3185 1.79078 1.26759 1.8786 1.28052 1.8786L1.23431 2.02851C0.0242955 5.80523 3.75218 9.04173 7.37602 8.67158C8.24694 8.58263 9.35755 8.10711 10.0388 7.42238Z" fill="#21609B"/>
</svg>
