<svg width="646" height="600" viewBox="0 0 646 600" fill="none" xmlns="http://www.w3.org/2000/svg">
<g filter="url(#filter0_f_72_793)">
<path fill-rule="evenodd" clip-rule="evenodd" d="M505.546 224.997C508.771 232.56 508.462 245.447 508.462 245.447L513.169 247.055C513.169 247.055 512.251 234.427 513.629 228.456C514.015 226.598 514.946 224.976 516.054 223.618C515.82 223.782 515.696 223.864 515.696 223.864C511.109 221.716 509.752 211.756 509.531 202.421C508.616 213.975 507.308 222.407 506.052 225.356C506.052 225.356 505.875 225.236 505.546 224.997V224.997Z" fill="#9B9B9B"/>
<g clip-path="url(#clip0_72_793)">
<path fill-rule="evenodd" clip-rule="evenodd" d="M517.35 264.034L512.192 262.272C512.192 262.272 512.822 235.977 503.386 234.09C497.095 226.792 504.392 -75.4172 527.038 233.083C527.038 233.083 519.239 236.983 517.854 243.652C516.344 250.194 517.35 264.034 517.35 264.034V264.034V264.034V264.034Z" fill="white"/>
<path fill-rule="evenodd" clip-rule="evenodd" d="M517.35 264.034L512.192 262.272C512.192 262.272 512.822 235.977 503.386 234.09C497.095 226.792 504.392 -75.4172 527.038 233.083C527.038 233.083 519.239 236.983 517.854 243.652C516.344 250.194 517.35 264.034 517.35 264.034V264.034V264.034V264.034Z" fill="#A6A385"/>
<path fill-rule="evenodd" clip-rule="evenodd" d="M520.12 238.619C520.12 238.619 565.288 208.927 554.719 147.15C544.528 102.235 520.497 87.5145 517.855 81.8523C514.962 77.8265 512.193 70.7812 512.193 70.7812L514.081 195.715C514.081 195.841 510.18 233.964 520.12 238.619" fill="white"/>
<path fill-rule="evenodd" clip-rule="evenodd" d="M520.12 238.619C520.12 238.619 565.288 208.927 554.719 147.15C544.528 102.235 520.497 87.5145 517.855 81.8523C514.962 77.8265 512.193 70.7812 512.193 70.7812L514.081 195.715C514.081 195.841 510.18 233.964 520.12 238.619" fill="#499D4A"/>
<path fill-rule="evenodd" clip-rule="evenodd" d="M509.552 240.254C509.552 240.254 467.152 211.316 469.669 160.362C472.058 109.406 502.003 84.3692 507.79 79.8395C511.565 75.8136 511.691 74.3034 511.943 70.2775C514.584 75.9396 514.082 154.952 514.458 164.262C515.591 200.119 512.445 233.461 509.552 240.254V240.254V240.254V240.254Z" fill="white"/>
<path fill-rule="evenodd" clip-rule="evenodd" d="M509.552 240.254C509.552 240.254 467.152 211.316 469.669 160.362C472.058 109.406 502.003 84.3692 507.79 79.8395C511.565 75.8136 511.691 74.3034 511.943 70.2775C514.584 75.9396 514.082 154.952 514.458 164.262C515.591 200.119 512.445 233.461 509.552 240.254V240.254V240.254V240.254Z" fill="#58AA50"/>
</g>
</g>
<g filter="url(#filter1_f_72_793)">
<path d="M70.7942 239.038L72.0777 237.263L132.794 123.467L132.922 122.262L106.157 72.6032C103.915 68.4433 97.602 69.4951 96.8661 74.1517L70.7942 239.038Z" fill="#FFC24A"/>
<path d="M71.5516 237.683L72.5225 235.813L132.603 123.209L105.905 73.3484C103.686 69.2322 98.051 70.2815 97.3228 74.8893L71.5516 237.683Z" fill="#FFA712"/>
<path d="M152.434 159.823L172.363 139.663L152.429 102.074C150.536 98.5159 145.253 98.5056 143.38 102.074L132.73 122.137V123.846L152.434 159.823Z" fill="#F4BD62"/>
<path d="M152.079 158.983L171.453 139.384L152.079 102.943C150.24 99.4842 145.77 99.1217 143.95 102.591L133.243 122.965L132.923 124.006L152.079 158.983Z" fill="#FFA50E"/>
<path d="M70.7942 239.037L71.376 238.459L73.4899 237.611L151.182 161.154L152.166 158.508L132.785 122.028L70.7942 239.037Z" fill="#F6820C"/>
<path d="M154.923 277.595L225.236 238.861L205.157 116.714C204.529 112.892 199.782 111.382 197.013 114.122L70.7942 239.037L140.704 277.592C145.122 280.029 150.503 280.03 154.923 277.595Z" fill="#FDE068"/>
<path d="M224.607 238.536L204.68 117.316C204.057 113.524 200.11 111.954 197.362 114.674L71.575 238.8L140.717 276.973C145.102 279.391 150.442 279.392 154.828 276.976L224.607 238.536Z" fill="#FCCA3F"/>
<path d="M154.923 276.454C150.503 278.889 145.122 278.888 140.704 276.451L71.3573 238.45L70.7942 239.037L140.704 277.592C145.122 280.029 150.503 280.03 154.923 277.596L225.236 238.861L225.064 237.815L154.923 276.454Z" fill="#EEAB37"/>
</g>
<g filter="url(#filter2_f_72_793)">
<path d="M229.11 467.518C227.3 466.917 225.424 466.349 223.492 465.812C223.81 464.564 224.101 463.332 224.36 462.121C228.613 442.233 225.833 426.212 216.338 420.937C207.234 415.88 192.345 421.153 177.307 433.761C175.861 434.973 174.411 436.257 172.962 437.602C171.996 436.712 171.032 435.852 170.07 435.029C154.31 421.548 138.514 415.867 129.028 421.157C119.933 426.23 117.239 441.291 121.067 460.139C121.437 461.959 121.869 463.818 122.358 465.708C120.122 466.32 117.964 466.971 115.899 467.665C97.4223 473.871 85.6224 483.597 85.6224 493.685C85.6224 504.105 98.2896 514.556 117.534 520.893C119.053 521.393 120.629 521.866 122.253 522.314C121.726 524.359 121.267 526.362 120.882 528.316C117.232 546.836 120.083 561.542 129.154 566.582C138.524 571.787 154.249 566.437 169.561 553.542C170.771 552.523 171.986 551.442 173.203 550.309C174.78 551.772 176.354 553.157 177.921 554.456C192.752 566.751 207.401 571.717 216.464 566.662C225.824 561.442 228.867 545.644 224.917 526.424C224.615 524.956 224.264 523.457 223.87 521.931C224.975 521.616 226.059 521.291 227.116 520.954C247.122 514.568 260.139 504.244 260.139 493.685C260.139 483.56 247.959 473.769 229.11 467.518ZM224.771 514.136C223.817 514.441 222.838 514.735 221.84 515.02C219.631 508.284 216.65 501.121 213.003 493.72C216.484 486.496 219.349 479.425 221.496 472.732C223.281 473.23 225.014 473.755 226.684 474.309C242.833 479.665 252.684 487.584 252.684 493.685C252.684 500.185 242.045 508.622 224.771 514.136ZM217.603 527.819C219.35 536.318 219.599 544.002 218.442 550.009C217.403 555.406 215.313 559.005 212.728 560.446C207.228 563.513 195.467 559.527 182.783 549.011C181.329 547.806 179.864 546.518 178.395 545.156C183.312 539.975 188.227 533.952 193.023 527.262C201.46 526.541 209.431 525.362 216.659 523.752C217.015 525.136 217.331 526.493 217.603 527.819ZM145.119 559.916C139.746 561.744 135.466 561.797 132.879 560.36C127.374 557.301 125.086 545.494 128.207 529.655C128.565 527.842 128.991 525.978 129.481 524.074C136.63 525.597 144.542 526.693 152.999 527.353C157.828 533.899 162.885 539.916 167.98 545.184C166.867 546.219 165.758 547.205 164.655 548.134C157.884 553.836 151.099 557.882 145.119 559.916ZM119.945 514.096C111.436 511.294 104.408 507.653 99.5912 503.679C95.2627 500.107 93.0774 496.562 93.0774 493.685C93.0774 487.563 102.552 479.754 118.353 474.447C120.27 473.803 122.277 473.196 124.36 472.626C126.544 479.47 129.408 486.625 132.865 493.86C129.364 501.203 126.458 508.472 124.253 515.396C122.768 514.985 121.33 514.552 119.945 514.096ZM128.384 458.759C125.104 442.611 127.282 430.43 132.764 427.373C138.602 424.117 151.512 428.76 165.12 440.4C165.989 441.144 166.863 441.923 167.738 442.728C162.668 447.973 157.657 453.945 152.871 460.452C144.664 461.185 136.807 462.362 129.584 463.939C129.129 462.179 128.727 460.45 128.384 458.759ZM203.663 476.667C201.936 473.793 200.163 470.988 198.356 468.259C203.924 468.937 209.259 469.837 214.269 470.939C212.765 475.583 210.89 480.438 208.683 485.416C207.1 482.521 205.426 479.601 203.663 476.667ZM172.964 447.861C176.403 451.45 179.847 455.457 183.234 459.805C179.821 459.65 176.365 459.569 172.881 459.569C169.43 459.569 166 459.648 162.607 459.801C165.998 455.493 169.472 451.492 172.964 447.861ZM142.069 476.717C140.344 479.598 138.701 482.502 137.143 485.411C134.972 480.45 133.114 475.573 131.597 470.863C136.576 469.789 141.886 468.911 147.419 468.246C145.586 471 143.799 473.827 142.069 476.716V476.717ZM147.578 519.637C141.862 519.022 136.472 518.19 131.494 517.146C133.036 512.352 134.934 507.37 137.151 502.303C138.713 505.21 140.363 508.114 142.099 511.002H142.099C143.867 513.944 145.698 516.826 147.578 519.637ZM173.17 540.016C169.637 536.343 166.112 532.28 162.67 527.91C166.012 528.036 169.419 528.101 172.881 528.101C176.438 528.101 179.954 528.024 183.416 527.875C180.017 532.324 176.586 536.393 173.17 540.016ZM208.754 502.045C211.087 507.167 213.053 512.122 214.614 516.835C209.554 517.947 204.091 518.842 198.335 519.508C200.147 516.742 201.935 513.888 203.692 510.953C205.47 507.983 207.158 505.009 208.754 502.045ZM197.235 507.365C194.507 511.922 191.706 516.272 188.863 520.378C183.684 520.735 178.334 520.918 172.881 520.918C167.45 520.918 162.167 520.756 157.08 520.438C154.122 516.278 151.261 511.915 148.55 507.404H148.551C145.847 502.905 143.359 498.369 141.104 493.858C143.358 489.336 145.84 484.794 148.528 480.304L148.527 480.305C151.223 475.802 154.059 471.461 156.99 467.327C162.18 466.949 167.502 466.751 172.881 466.751H172.881C178.284 466.751 183.613 466.95 188.801 467.331C191.687 471.435 194.504 475.763 197.21 480.266C199.946 484.82 202.46 489.331 204.733 493.756C202.467 498.256 199.959 502.813 197.235 507.365ZM212.614 427.16C218.458 430.407 220.731 443.501 217.059 460.671C216.825 461.767 216.561 462.882 216.275 464.013C209.034 462.404 201.172 461.206 192.94 460.462C188.145 453.884 183.176 447.903 178.188 442.725C179.529 441.482 180.868 440.297 182.202 439.179C195.086 428.377 207.127 424.112 212.614 427.16ZM172.881 478.672C181.487 478.672 188.465 485.394 188.465 493.685C188.465 501.977 181.487 508.698 172.881 508.698C164.274 508.698 157.297 501.977 157.297 493.685C157.297 485.394 164.274 478.672 172.881 478.672Z" fill="#00D8FF"/>
</g>
<g filter="url(#filter3_f_72_793)">
<path d="M445.699 419.034H564.958C571.056 419.034 576 423.917 576 429.941V547.74C576 553.764 571.056 558.647 564.958 558.647H445.699C439.6 558.647 434.656 553.764 434.656 547.74V429.941C434.656 423.917 439.6 419.034 445.699 419.034Z" fill="#3178C6"/>
<path d="M517.761 528.366V543.429C520.241 544.685 523.174 545.626 526.56 546.254C529.947 546.881 533.516 547.195 537.268 547.195C540.924 547.195 544.398 546.85 547.689 546.159C550.979 545.469 553.865 544.331 556.345 542.747C558.825 541.162 560.788 539.091 562.235 536.533C563.682 533.976 564.405 530.814 564.405 527.048C564.405 524.318 563.992 521.925 563.165 519.87C562.339 517.814 561.146 515.986 559.588 514.386C558.03 512.786 556.162 511.35 553.984 510.079C551.806 508.808 549.35 507.608 546.615 506.478C544.612 505.662 542.816 504.87 541.226 504.101C539.636 503.332 538.285 502.548 537.172 501.747C536.059 500.947 535.201 500.1 534.597 499.205C533.993 498.311 533.691 497.299 533.691 496.169C533.691 495.134 533.961 494.201 534.501 493.369C535.042 492.537 535.805 491.823 536.791 491.227C537.776 490.631 538.984 490.168 540.415 489.838C541.846 489.509 543.436 489.344 545.185 489.344C546.457 489.344 547.8 489.438 549.215 489.627C550.63 489.815 552.053 490.105 553.484 490.498C554.914 490.89 556.305 491.384 557.657 491.98C559.008 492.576 560.256 493.267 561.401 494.051V479.977C559.079 479.098 556.543 478.447 553.793 478.023C551.043 477.6 547.887 477.388 544.326 477.388C540.701 477.388 537.268 477.773 534.025 478.542C530.781 479.31 527.927 480.51 525.463 482.142C522.999 483.774 521.052 485.853 519.621 488.379C518.19 490.905 517.475 493.926 517.475 497.441C517.475 501.928 518.786 505.756 521.41 508.926C524.033 512.095 528.015 514.778 533.356 516.975C535.455 517.823 537.411 518.654 539.223 519.47C541.035 520.286 542.601 521.133 543.921 522.011C545.24 522.89 546.282 523.847 547.045 524.883C547.808 525.918 548.189 527.095 548.189 528.414C548.189 529.386 547.951 530.289 547.474 531.12C546.997 531.951 546.273 532.673 545.304 533.285C544.334 533.897 543.126 534.375 541.679 534.721C540.233 535.066 538.539 535.239 536.6 535.239C533.293 535.239 530.018 534.666 526.775 533.52C523.531 532.375 520.527 530.657 517.761 528.366ZM492.343 490.881H511.953V478.479H457.293V490.881H476.808V546.104H492.343V490.881Z" fill="white"/>
</g>
<defs>
<filter id="filter0_f_72_793" x="399.753" y="0.193222" width="226.87" height="334.579" filterUnits="userSpaceOnUse" color-interpolation-filters="sRGB">
<feFlood flood-opacity="0" result="BackgroundImageFix"/>
<feBlend mode="normal" in="SourceGraphic" in2="BackgroundImageFix" result="shape"/>
<feGaussianBlur stdDeviation="34.9034" result="effect1_foregroundBlur_72_793"/>
</filter>
<filter id="filter1_f_72_793" x="0.987442" y="0.193222" width="294.055" height="349.034" filterUnits="userSpaceOnUse" color-interpolation-filters="sRGB">
<feFlood flood-opacity="0" result="BackgroundImageFix"/>
<feBlend mode="normal" in="SourceGraphic" in2="BackgroundImageFix" result="shape"/>
<feGaussianBlur stdDeviation="34.9034" result="effect1_foregroundBlur_72_793"/>
</filter>
<filter id="filter2_f_72_793" x="15.8156" y="349.227" width="314.131" height="289.2" filterUnits="userSpaceOnUse" color-interpolation-filters="sRGB">
<feFlood flood-opacity="0" result="BackgroundImageFix"/>
<feBlend mode="normal" in="SourceGraphic" in2="BackgroundImageFix" result="shape"/>
<feGaussianBlur stdDeviation="34.9034" result="effect1_foregroundBlur_72_793"/>
</filter>
<filter id="filter3_f_72_793" x="364.85" y="349.227" width="280.957" height="279.227" filterUnits="userSpaceOnUse" color-interpolation-filters="sRGB">
<feFlood flood-opacity="0" result="BackgroundImageFix"/>
<feBlend mode="normal" in="SourceGraphic" in2="BackgroundImageFix" result="shape"/>
<feGaussianBlur stdDeviation="34.9034" result="effect1_foregroundBlur_72_793"/>
</filter>
<clipPath id="clip0_72_793">
<rect width="87.2569" height="194.965" fill="white" transform="translate(469.56 70.001)"/>
</clipPath>
</defs>
</svg>
