<svg width="19" height="19" viewBox="0 0 19 19" fill="none" xmlns="http://www.w3.org/2000/svg">
<g filter="url(#filter0_f_72_793)">
<path fill-rule="evenodd" clip-rule="evenodd" d="M14.4559 6.44073C14.5483 6.65741 14.5394 7.02666 14.5394 7.02666L14.6743 7.07273C14.6743 7.07273 14.648 6.7109 14.6874 6.53986C14.6985 6.48662 14.7252 6.44013 14.7569 6.40124C14.7502 6.40594 14.7467 6.40829 14.7467 6.40829C14.6152 6.34674 14.5764 6.0614 14.57 5.79394C14.5438 6.12496 14.5063 6.36655 14.4704 6.45104C14.4704 6.45104 14.4653 6.44758 14.4559 6.44073Z" fill="#9B9B9B"/>
<g clip-path="url(#clip0_72_793)">
<path fill-rule="evenodd" clip-rule="evenodd" d="M14.7941 7.55918L14.6463 7.50869C14.6463 7.50869 14.6643 6.75531 14.394 6.70125C14.2137 6.49218 14.4228 -2.16628 15.0716 6.67242C15.0716 6.67242 14.8482 6.78415 14.8085 6.97521C14.7652 7.16266 14.7941 7.55918 14.7941 7.55918Z" fill="white"/>
<path fill-rule="evenodd" clip-rule="evenodd" d="M14.7941 7.55918L14.6463 7.50869C14.6463 7.50869 14.6643 6.75531 14.394 6.70125C14.2137 6.49218 14.4228 -2.16628 15.0716 6.67242C15.0716 6.67242 14.8482 6.78415 14.8085 6.97521C14.7652 7.16266 14.7941 7.55918 14.7941 7.55918Z" fill="#A6A385"/>
<path fill-rule="evenodd" clip-rule="evenodd" d="M14.8734 6.83103C14.8734 6.83103 16.1675 5.98032 15.8647 4.2104C15.5727 2.92354 14.8842 2.5018 14.8085 2.33958C14.7256 2.22423 14.6463 2.02238 14.6463 2.02238L14.7004 5.60181C14.7004 5.60542 14.5886 6.69764 14.8734 6.83103Z" fill="white"/>
<path fill-rule="evenodd" clip-rule="evenodd" d="M14.8734 6.83103C14.8734 6.83103 16.1675 5.98032 15.8647 4.2104C15.5727 2.92354 14.8842 2.5018 14.8085 2.33958C14.7256 2.22423 14.6463 2.02238 14.6463 2.02238L14.7004 5.60181C14.7004 5.60542 14.5886 6.69764 14.8734 6.83103Z" fill="#499D4A"/>
<path fill-rule="evenodd" clip-rule="evenodd" d="M14.5706 6.87788C14.5706 6.87788 13.3558 6.04879 13.428 4.58891C13.4964 3.12901 14.3543 2.41169 14.5201 2.28191C14.6283 2.16656 14.6319 2.12329 14.6391 2.00795C14.7148 2.17017 14.7004 4.43391 14.7112 4.70065C14.7436 5.72798 14.6535 6.68324 14.5706 6.87788Z" fill="white"/>
<path fill-rule="evenodd" clip-rule="evenodd" d="M14.5706 6.87788C14.5706 6.87788 13.3558 6.04879 13.428 4.58891C13.4964 3.12901 14.3543 2.41169 14.5201 2.28191C14.6283 2.16656 14.6319 2.12329 14.6391 2.00795C14.7148 2.17017 14.7004 4.43391 14.7112 4.70065C14.7436 5.72798 14.6535 6.68324 14.5706 6.87788Z" fill="#58AA50"/>
</g>
</g>
<g filter="url(#filter1_f_72_793)">
<path d="M2 6.84303L2.03677 6.79217L3.77633 3.53184L3.78 3.49733L3.01317 2.07458C2.94892 1.9554 2.76806 1.98553 2.74697 2.11895L2 6.84303Z" fill="#FFC24A"/>
<path d="M2.0217 6.80421L2.04952 6.75063L3.77084 3.52447L3.00593 2.09593C2.94236 1.978 2.78092 2.00806 2.76006 2.14008L2.0217 6.80421Z" fill="#FFA712"/>
<path d="M4.33904 4.57347L4.91 3.99588L4.33887 2.91893C4.28465 2.81699 4.13328 2.8167 4.07963 2.91893L3.77451 3.49375V3.54271L4.33904 4.57347Z" fill="#F4BD62"/>
<path d="M4.32886 4.5494L4.88394 3.98787L4.32886 2.94384C4.27615 2.84474 4.1481 2.83435 4.09595 2.93374L3.7892 3.51746L3.78003 3.54731L4.32886 4.5494Z" fill="#FFA50E"/>
<path d="M2 6.84299L2.01667 6.82644L2.07723 6.80213L4.30316 4.61162L4.33136 4.53579L3.77608 3.49062L2 6.84299Z" fill="#F6820C"/>
<path d="M4.41032 7.94772L6.42483 6.83796L5.84955 3.33838C5.83156 3.22889 5.69556 3.1856 5.61622 3.26411L2 6.84299L4.00296 7.94762C4.12954 8.01743 4.2837 8.01746 4.41032 7.94772Z" fill="#FDE068"/>
<path d="M6.40681 6.82865L5.8359 3.35564C5.81804 3.24698 5.70496 3.20201 5.62622 3.27993L2.02237 6.8362L4.00333 7.92989C4.12895 7.99917 4.28194 7.9992 4.4076 7.92998L6.40681 6.82865Z" fill="#FCCA3F"/>
<path d="M4.41032 7.91502C4.2837 7.98477 4.12954 7.98474 4.00296 7.91493L2.01613 6.82617L2 6.84299L4.00296 7.94762C4.12954 8.01743 4.2837 8.01747 4.41032 7.94772L6.42483 6.83796L6.4199 6.80798L4.41032 7.91502Z" fill="#EEAB37"/>
</g>
<g filter="url(#filter2_f_72_793)">
<path d="M6.53584 13.3891C6.48397 13.3719 6.43022 13.3556 6.37488 13.3402C6.38398 13.3045 6.39233 13.2692 6.39975 13.2345C6.52159 12.6647 6.44193 12.2057 6.1699 12.0545C5.90906 11.9096 5.48248 12.0607 5.05165 12.4219C5.01022 12.4567 4.96868 12.4934 4.92715 12.532C4.89948 12.5065 4.87185 12.4818 4.8443 12.4583C4.39278 12.072 3.9402 11.9093 3.66844 12.0608C3.40785 12.2062 3.33068 12.6377 3.44035 13.1777C3.45094 13.2298 3.46332 13.2831 3.47732 13.3372C3.41327 13.3548 3.35143 13.3734 3.29227 13.3933C2.76291 13.5711 2.42484 13.8498 2.42484 14.1388C2.42484 14.4373 2.78776 14.7367 3.33913 14.9183C3.38264 14.9326 3.42779 14.9462 3.47432 14.959C3.45921 15.0176 3.44608 15.075 3.43505 15.131C3.33047 15.6616 3.41214 16.0829 3.67204 16.2273C3.94048 16.3765 4.39102 16.2232 4.82972 15.8537C4.8644 15.8245 4.89919 15.7936 4.93406 15.7611C4.97924 15.803 5.02435 15.8427 5.06923 15.8799C5.49416 16.2322 5.91386 16.3744 6.17351 16.2296C6.4417 16.0801 6.52885 15.6275 6.4157 15.0768C6.40706 15.0347 6.397 14.9918 6.38571 14.948C6.41735 14.939 6.44841 14.9297 6.47869 14.9201C7.05189 14.7371 7.42484 14.4413 7.42484 14.1388C7.42484 13.8487 7.07586 13.5682 6.53584 13.3891ZM6.41152 14.7247C6.38418 14.7334 6.35612 14.7419 6.32754 14.75C6.26426 14.5571 6.17885 14.3518 6.07434 14.1398C6.17407 13.9328 6.25618 13.7302 6.31768 13.5385C6.36883 13.5527 6.41848 13.5678 6.46631 13.5837C6.929 13.7371 7.21124 13.964 7.21124 14.1388C7.21124 14.325 6.90643 14.5667 6.41152 14.7247ZM6.20616 15.1168C6.25619 15.3602 6.26334 15.5804 6.2302 15.7525C6.20042 15.9071 6.14053 16.0102 6.06648 16.0515C5.90891 16.1394 5.57194 16.0252 5.20853 15.7239C5.16687 15.6894 5.12491 15.6525 5.08281 15.6135C5.22369 15.465 5.3645 15.2925 5.50192 15.1008C5.74364 15.0801 5.972 15.0464 6.17909 15.0002C6.18929 15.0399 6.19835 15.0787 6.20616 15.1168ZM4.12945 16.0364C3.9755 16.0887 3.85288 16.0902 3.77876 16.0491C3.62105 15.9614 3.55548 15.6231 3.64492 15.1694C3.65516 15.1174 3.66735 15.064 3.68141 15.0094C3.88623 15.0531 4.11292 15.0845 4.35521 15.1034C4.49356 15.2909 4.63844 15.4633 4.78443 15.6143C4.75253 15.6439 4.72076 15.6722 4.68917 15.6988C4.49517 15.8622 4.30077 15.9781 4.12945 16.0364ZM3.40821 14.7236C3.1644 14.6433 2.96306 14.539 2.82505 14.4251C2.70104 14.3228 2.63842 14.2212 2.63842 14.1388C2.63842 13.9634 2.90986 13.7397 3.36258 13.5876C3.41751 13.5692 3.47501 13.5518 3.53468 13.5354C3.59725 13.7315 3.67933 13.9365 3.77837 14.1438C3.67804 14.3542 3.5948 14.5624 3.53162 14.7608C3.48908 14.749 3.44786 14.7366 3.40821 14.7236ZM3.64997 13.1382C3.55601 12.6755 3.61841 12.3265 3.77545 12.2389C3.94273 12.1456 4.31262 12.2787 4.70247 12.6121C4.72739 12.6335 4.75241 12.6558 4.7775 12.6789C4.63222 12.8291 4.48868 13.0002 4.35155 13.1867C4.1164 13.2077 3.8913 13.2414 3.68434 13.2866C3.67133 13.2361 3.65981 13.1866 3.64997 13.1382ZM5.80675 13.6512C5.75727 13.5689 5.70648 13.4885 5.6547 13.4103C5.81423 13.4297 5.96708 13.4555 6.11062 13.4871C6.06752 13.6202 6.01381 13.7593 5.95059 13.9019C5.90523 13.8189 5.85726 13.7353 5.80675 13.6512ZM4.92722 12.8259C5.02574 12.9287 5.12441 13.0436 5.22145 13.1681C5.12366 13.1637 5.02466 13.1614 4.92484 13.1614C4.82596 13.1614 4.72768 13.1636 4.6305 13.168C4.72764 13.0446 4.82716 12.9299 4.92722 12.8259ZM4.04206 13.6526C3.99264 13.7352 3.94556 13.8184 3.90092 13.9017C3.83871 13.7596 3.7855 13.6199 3.74203 13.4849C3.88469 13.4542 4.03682 13.429 4.19533 13.41C4.14282 13.4889 4.09161 13.5698 4.04206 13.6526V13.6526ZM4.1999 14.8823C4.03612 14.8647 3.88171 14.8409 3.73909 14.811C3.78325 14.6736 3.83764 14.5309 3.90116 14.3857C3.94591 14.469 3.99318 14.5522 4.04291 14.6349H4.04291C4.09356 14.7192 4.14604 14.8018 4.1999 14.8823ZM4.93313 15.4662C4.83189 15.361 4.73091 15.2446 4.63229 15.1194C4.72803 15.123 4.82564 15.1248 4.92484 15.1248C5.02675 15.1248 5.1275 15.1226 5.22666 15.1184C5.12929 15.2458 5.03098 15.3624 4.93313 15.4662ZM5.95263 14.3783C6.01946 14.525 6.07579 14.667 6.12052 14.802C5.97555 14.8339 5.81903 14.8596 5.65411 14.8786C5.70602 14.7994 5.75725 14.7176 5.8076 14.6335C5.85854 14.5484 5.9069 14.4632 5.95263 14.3783ZM5.62258 14.5307C5.54442 14.6613 5.46418 14.7859 5.38272 14.9036C5.23435 14.9138 5.08106 14.919 4.92484 14.919C4.76924 14.919 4.61789 14.9144 4.47214 14.9053C4.3874 14.7861 4.30541 14.6611 4.22775 14.5318H4.22777C4.15031 14.403 4.07902 14.273 4.01443 14.1437C4.079 14.0142 4.1501 13.8841 4.22712 13.7554L4.2271 13.7554C4.30431 13.6264 4.38558 13.5021 4.46954 13.3836C4.61824 13.3728 4.77072 13.3671 4.92483 13.3671H4.92484C5.07963 13.3671 5.23231 13.3728 5.38097 13.3837C5.46365 13.5013 5.54436 13.6253 5.62188 13.7543C5.70028 13.8848 5.7723 14.014 5.83743 14.1408C5.77249 14.2698 5.70063 14.4003 5.62258 14.5307ZM6.06321 12.2328C6.23064 12.3258 6.29575 12.701 6.19056 13.1929C6.18385 13.2243 6.17629 13.2563 6.16808 13.2887C5.96064 13.2426 5.73539 13.2083 5.49955 13.1869C5.36216 12.9985 5.21979 12.8271 5.07688 12.6788C5.1153 12.6432 5.15367 12.6092 5.19188 12.5772C5.56101 12.2677 5.90602 12.1455 6.06321 12.2328ZM4.92484 13.7087C5.17142 13.7087 5.37132 13.9012 5.37132 14.1388C5.37132 14.3764 5.17142 14.5689 4.92484 14.5689C4.67825 14.5689 4.47835 14.3764 4.47835 14.1388C4.47835 13.9012 4.67825 13.7087 4.92484 13.7087Z" fill="#00D8FF"/>
</g>
<g filter="url(#filter3_f_72_793)">
<path d="M12.7412 12H16.158C16.3328 12 16.4744 12.1399 16.4744 12.3125V15.6875C16.4744 15.8601 16.3328 16 16.158 16H12.7412C12.5665 16 12.4248 15.8601 12.4248 15.6875V12.3125C12.4248 12.1399 12.5665 12 12.7412 12Z" fill="#3178C6"/>
<path d="M14.8058 15.1324V15.564C14.8769 15.6 14.9609 15.6269 15.0579 15.6449C15.155 15.6629 15.2572 15.6719 15.3647 15.6719C15.4695 15.6719 15.569 15.662 15.6633 15.6422C15.7575 15.6224 15.8402 15.5898 15.9113 15.5444C15.9823 15.499 16.0386 15.4397 16.08 15.3664C16.1215 15.2931 16.1422 15.2026 16.1422 15.0947C16.1422 15.0165 16.1304 14.9479 16.1067 14.889C16.083 14.8301 16.0488 14.7777 16.0042 14.7319C15.9596 14.686 15.906 14.6449 15.8436 14.6085C15.7812 14.5721 15.7109 14.5377 15.6325 14.5053C15.5751 14.4819 15.5237 14.4592 15.4781 14.4372C15.4326 14.4152 15.3938 14.3927 15.362 14.3698C15.3301 14.3469 15.3055 14.3226 15.2882 14.297C15.2709 14.2713 15.2622 14.2423 15.2622 14.21C15.2622 14.1803 15.27 14.1536 15.2854 14.1297C15.3009 14.1059 15.3228 14.0855 15.351 14.0684C15.3793 14.0513 15.4139 14.038 15.4549 14.0286C15.4959 14.0191 15.5414 14.0144 15.5915 14.0144C15.628 14.0144 15.6665 14.0171 15.707 14.0225C15.7475 14.0279 15.7883 14.0362 15.8293 14.0475C15.8703 14.0587 15.9101 14.0729 15.9489 14.09C15.9876 14.107 16.0233 14.1268 16.0561 14.1493V13.746C15.9896 13.7209 15.917 13.7022 15.8382 13.6901C15.7594 13.6779 15.669 13.6719 15.5669 13.6719C15.4631 13.6719 15.3647 13.6829 15.2718 13.7049C15.1789 13.7269 15.0971 13.7613 15.0265 13.8081C14.9559 13.8548 14.9001 13.9144 14.8591 13.9868C14.8181 14.0592 14.7976 14.1457 14.7976 14.2464C14.7976 14.375 14.8352 14.4846 14.9104 14.5755C14.9855 14.6662 15.0996 14.7431 15.2526 14.8061C15.3128 14.8303 15.3688 14.8542 15.4207 14.8775C15.4727 14.9009 15.5175 14.9252 15.5553 14.9504C15.5931 14.9755 15.623 15.003 15.6448 15.0326C15.6667 15.0623 15.6776 15.096 15.6776 15.1338C15.6776 15.1616 15.6708 15.1875 15.6571 15.2113C15.6435 15.2351 15.6227 15.2558 15.5949 15.2734C15.5672 15.2909 15.5325 15.3046 15.4911 15.3145C15.4497 15.3244 15.4011 15.3293 15.3456 15.3293C15.2508 15.3293 15.157 15.3129 15.0641 15.2801C14.9712 15.2473 14.8851 15.1981 14.8058 15.1324ZM14.0776 14.0585H14.6394V13.7031H13.0734V14.0585H13.6325V15.6406H14.0776V14.0585Z" fill="white"/>
</g>
<defs>
<filter id="filter0_f_72_793" x="11.4248" y="0" width="6.49997" height="9.5859" filterUnits="userSpaceOnUse" color-interpolation-filters="sRGB">
<feFlood flood-opacity="0" result="BackgroundImageFix"/>
<feBlend mode="normal" in="SourceGraphic" in2="BackgroundImageFix" result="shape"/>
<feGaussianBlur stdDeviation="1" result="effect1_foregroundBlur_72_793"/>
</filter>
<filter id="filter1_f_72_793" x="0" y="0" width="8.42484" height="10" filterUnits="userSpaceOnUse" color-interpolation-filters="sRGB">
<feFlood flood-opacity="0" result="BackgroundImageFix"/>
<feBlend mode="normal" in="SourceGraphic" in2="BackgroundImageFix" result="shape"/>
<feGaussianBlur stdDeviation="1" result="effect1_foregroundBlur_72_793"/>
</filter>
<filter id="filter2_f_72_793" x="0.424835" y="10" width="9" height="8.28571" filterUnits="userSpaceOnUse" color-interpolation-filters="sRGB">
<feFlood flood-opacity="0" result="BackgroundImageFix"/>
<feBlend mode="normal" in="SourceGraphic" in2="BackgroundImageFix" result="shape"/>
<feGaussianBlur stdDeviation="1" result="effect1_foregroundBlur_72_793"/>
</filter>
<filter id="filter3_f_72_793" x="10.4248" y="10" width="8.04956" height="8" filterUnits="userSpaceOnUse" color-interpolation-filters="sRGB">
<feFlood flood-opacity="0" result="BackgroundImageFix"/>
<feBlend mode="normal" in="SourceGraphic" in2="BackgroundImageFix" result="shape"/>
<feGaussianBlur stdDeviation="1" result="effect1_foregroundBlur_72_793"/>
</filter>
<clipPath id="clip0_72_793">
<rect width="2.49995" height="5.58584" fill="white" transform="translate(13.4248 2.00006)"/>
</clipPath>
</defs>
</svg>
