<svg width="6" height="12" viewBox="0 0 6 12" fill="none" xmlns="http://www.w3.org/2000/svg">
<path fill-rule="evenodd" clip-rule="evenodd" d="M2.11169 8.88154C2.29647 9.31491 2.27878 10.0534 2.27878 10.0534L2.5485 10.1455C2.5485 10.1455 2.49587 9.4219 2.57484 9.0798C2.59694 8.97332 2.65033 8.88034 2.71382 8.80255C2.70041 8.81197 2.69326 8.81667 2.69326 8.81667C2.43041 8.69355 2.35267 8.12286 2.34003 7.58795C2.28759 8.25 2.21264 8.73317 2.14066 8.90216C2.14066 8.90216 2.13054 8.89525 2.11169 8.88154Z" fill="#9B9B9B"/>
<g clip-path="url(#clip0_37_1088)">
<path fill-rule="evenodd" clip-rule="evenodd" d="M2.7881 11.1185L2.49252 11.0175C2.49252 11.0175 2.52861 9.51072 1.98791 9.40259C1.62744 8.98445 2.04558 -8.33263 3.34324 9.34492C3.34324 9.34492 2.8963 9.56839 2.81697 9.95051C2.73043 10.3254 2.7881 11.1185 2.7881 11.1185Z" fill="white"/>
<path fill-rule="evenodd" clip-rule="evenodd" d="M2.7881 11.1185L2.49252 11.0175C2.49252 11.0175 2.52861 9.51072 1.98791 9.40259C1.62744 8.98445 2.04558 -8.33263 3.34324 9.34492C3.34324 9.34492 2.8963 9.56839 2.81697 9.95051C2.73043 10.3254 2.7881 11.1185 2.7881 11.1185Z" fill="#A6A385"/>
<path fill-rule="evenodd" clip-rule="evenodd" d="M2.94675 9.66214C2.94675 9.66214 5.53492 7.96071 4.92933 4.42084C4.34539 1.84711 2.96834 1.00361 2.81697 0.679157C2.65117 0.448468 2.49252 0.0447617 2.49252 0.0447617L2.60072 7.20368C2.60072 7.2109 2.37718 9.39537 2.94675 9.66214Z" fill="white"/>
<path fill-rule="evenodd" clip-rule="evenodd" d="M2.94675 9.66214C2.94675 9.66214 5.53492 7.96071 4.92933 4.42084C4.34539 1.84711 2.96834 1.00361 2.81697 0.679157C2.65117 0.448468 2.49252 0.0447617 2.49252 0.0447617L2.60072 7.20368C2.60072 7.2109 2.37718 9.39537 2.94675 9.66214Z" fill="#499D4A"/>
<path fill-rule="evenodd" clip-rule="evenodd" d="M2.34117 9.75585C2.34117 9.75585 -0.0884177 8.09765 0.0557968 5.17788C0.192726 2.25804 1.9086 0.823383 2.2402 0.563824C2.45652 0.333135 2.46373 0.246593 2.47817 0.0159035C2.62953 0.340352 2.60073 4.86787 2.62232 5.40135C2.68721 7.45604 2.50697 9.36658 2.34117 9.75585Z" fill="white"/>
<path fill-rule="evenodd" clip-rule="evenodd" d="M2.34117 9.75585C2.34117 9.75585 -0.0884177 8.09765 0.0557968 5.17788C0.192726 2.25804 1.9086 0.823383 2.2402 0.563824C2.45652 0.333135 2.46373 0.246593 2.47817 0.0159035C2.62953 0.340352 2.60073 4.86787 2.62232 5.40135C2.68721 7.45604 2.50697 9.36658 2.34117 9.75585Z" fill="#58AA50"/>
</g>
<defs>
<clipPath id="clip0_37_1088">
<rect width="4.99995" height="11.1718" fill="white" transform="translate(0.0495911 6.10352e-05)"/>
</clipPath>
</defs>
</svg>
