<svg width="11" height="10" viewBox="0 0 11 10" fill="none" xmlns="http://www.w3.org/2000/svg">
<g clip-path="url(#clip0_37_1227)">
<path d="M4.88031 0.00270629C4.85854 0.00466104 4.78927 0.0115027 4.72692 0.0163895C3.28899 0.144425 1.9421 0.910686 1.08904 2.08842C0.614016 2.74326 0.3102 3.48607 0.195402 4.27285C0.154828 4.54749 0.149879 4.62861 0.149879 5.00099C0.149879 5.37337 0.154828 5.4545 0.195402 5.72914C0.47052 7.60667 1.82334 9.18415 3.65812 9.76862C3.98668 9.8732 4.33305 9.94455 4.72692 9.98755C4.88031 10.0042 5.54337 10.0042 5.69676 9.98755C6.37663 9.91327 6.9526 9.74712 7.52065 9.46075C7.60773 9.41677 7.62456 9.40504 7.61268 9.39527C7.60477 9.3894 7.23365 8.89778 6.78832 8.30354L5.9788 7.22354L4.96443 5.74087C4.40628 4.92574 3.94709 4.25917 3.94313 4.25917C3.93917 4.25819 3.93522 4.91694 3.93324 5.72132C3.93027 7.12971 3.92928 7.1864 3.91146 7.21963C3.88573 7.26752 3.86594 7.28707 3.82438 7.30857C3.79271 7.32421 3.765 7.32714 3.61557 7.32714H3.44436L3.39884 7.2988C3.36915 7.28023 3.34738 7.2558 3.33253 7.22745L3.31175 7.18347L3.31373 5.22384L3.3167 3.26322L3.34738 3.22511C3.36321 3.20458 3.39686 3.17819 3.42061 3.16549C3.46118 3.14594 3.47702 3.14398 3.64822 3.14398C3.85011 3.14398 3.88376 3.1518 3.93621 3.20849C3.95105 3.22413 4.5003 4.04121 5.15741 5.02543C5.81452 6.00964 6.71311 7.35353 7.15448 8.01326L7.95608 9.2125L7.99666 9.18611C8.3559 8.95545 8.73591 8.62705 9.03676 8.28497C9.67705 7.55878 10.0897 6.67328 10.2283 5.72914C10.2689 5.4545 10.2738 5.37337 10.2738 5.00099C10.2738 4.62861 10.2689 4.54749 10.2283 4.27285C9.95316 2.39532 8.60033 0.817836 6.76556 0.233366C6.44195 0.129765 6.09756 0.0584166 5.7116 0.0154121C5.6166 0.00563842 4.96245 -0.00511269 4.88031 0.00270629ZM6.9526 3.0267C7.0001 3.05016 7.0387 3.09512 7.05255 3.14203C7.06047 3.16744 7.06245 3.71086 7.06047 4.93551L7.0575 6.69283L6.74379 6.21782L6.42908 5.74282V4.46539C6.42908 3.63951 6.43304 3.17526 6.43898 3.15278C6.45481 3.09805 6.48945 3.05504 6.53695 3.02963C6.57753 3.00911 6.59237 3.00715 6.74775 3.00715C6.89421 3.00715 6.91994 3.00911 6.9526 3.0267Z" fill="black"/>
</g>
<defs>
<clipPath id="clip0_37_1227">
<rect width="10.1239" height="10" fill="white" transform="translate(0.149879)"/>
</clipPath>
</defs>
</svg>
