<svg width="11" height="7" viewBox="0 0 11 7" fill="none" xmlns="http://www.w3.org/2000/svg">
<path fill-rule="evenodd" clip-rule="evenodd" d="M5.01944 6.12342C4.98511 6.12342 4.95307 6.11438 4.92332 6.09856L4.61896 5.91999C4.5732 5.89512 4.59608 5.88608 4.60981 5.88156C4.6716 5.86122 4.68304 5.8567 4.74712 5.82053C4.75398 5.81601 4.76313 5.81827 4.77 5.82279L5.00342 5.96067C5.01257 5.96519 5.02401 5.96519 5.03088 5.96067L5.94395 5.43852C5.95311 5.434 5.95768 5.42496 5.95768 5.41366V4.37161C5.95768 4.36031 5.95311 4.35127 5.94395 4.34675L5.03088 3.82686C5.02172 3.82234 5.01028 3.82234 5.00342 3.82686L4.09034 4.34675C4.08119 4.35127 4.07661 4.36257 4.07661 4.37161V5.41366C4.07661 5.4227 4.08119 5.434 4.09034 5.43852L4.33978 5.58093C4.4748 5.64874 4.55947 5.56962 4.55947 5.49051V4.46203C4.55947 4.44847 4.57091 4.43491 4.58693 4.43491H4.70364C4.71737 4.43491 4.7311 4.44621 4.7311 4.46203V5.49051C4.7311 5.66908 4.6327 5.77306 4.46106 5.77306C4.40843 5.77306 4.36724 5.77306 4.25053 5.71655L4.01025 5.58093C3.95075 5.54702 3.91413 5.48373 3.91413 5.41592V4.37387C3.91413 4.30606 3.95075 4.24277 4.01025 4.20887L4.92332 3.68671C4.98053 3.65507 5.05834 3.65507 5.11555 3.68671L6.02862 4.20887C6.08812 4.24277 6.12474 4.30606 6.12474 4.37387V5.41592C6.12474 5.48373 6.08812 5.54702 6.02862 5.58093L5.11555 6.10308C5.0858 6.11664 5.05147 6.12342 5.01944 6.12342ZM5.30091 5.40688C4.90044 5.40688 4.81806 5.22604 4.81806 5.07234C4.81806 5.05877 4.8295 5.04521 4.84552 5.04521H4.96451C4.97825 5.04521 4.98969 5.05425 4.98969 5.06782C5.00799 5.18762 5.06063 5.24639 5.3032 5.24639C5.49543 5.24639 5.57781 5.20344 5.57781 5.10172C5.57781 5.04295 5.55492 5 5.25514 4.97062C5.00571 4.94576 4.85009 4.89151 4.85009 4.69485C4.85009 4.51176 5.00571 4.40326 5.26658 4.40326C5.5595 4.40326 5.70367 4.50272 5.72198 4.71972C5.72198 4.7265 5.71969 4.73328 5.71511 4.74006C5.71054 4.74458 5.70367 4.7491 5.69681 4.7491H5.57781C5.56637 4.7491 5.55492 4.74006 5.55264 4.72876C5.52517 4.60443 5.45423 4.56375 5.26658 4.56375C5.05605 4.56375 5.03088 4.63608 5.03088 4.69033C5.03088 4.75588 5.06063 4.77623 5.34439 4.81239C5.62586 4.84856 5.75859 4.90055 5.75859 5.09494C5.7563 5.29386 5.59154 5.40688 5.30091 5.40688Z" fill="#539E43"/>
<path fill-rule="evenodd" clip-rule="evenodd" d="M2.18639 2.04792C2.18639 2.00723 2.16351 1.96881 2.12689 1.94846L1.15661 1.39693C1.14059 1.38788 1.12228 1.38336 1.10397 1.3811H1.09482C1.07651 1.3811 1.05821 1.38788 1.04219 1.39693L0.0719021 1.94846C0.0352876 1.96881 0.0124035 2.00723 0.0124035 2.04792L0.0146919 3.53074C0.0146919 3.55109 0.0261339 3.57143 0.0444412 3.58047C0.0627485 3.59177 0.0856326 3.59177 0.101651 3.58047L0.678331 3.25497C0.714945 3.23463 0.737829 3.1962 0.737829 3.15552V2.46157C0.737829 2.42089 0.760713 2.38246 0.797328 2.36212L1.04219 2.22197C1.0605 2.21067 1.08109 2.20615 1.10169 2.20615C1.12228 2.20615 1.14288 2.21067 1.1589 2.22197L1.40376 2.36212C1.44037 2.38246 1.46326 2.42089 1.46326 2.46157V3.15552C1.46326 3.1962 1.48614 3.23463 1.52275 3.25497L2.09943 3.58047C2.11774 3.59177 2.14062 3.59177 2.15893 3.58047C2.17724 3.57143 2.18868 3.55109 2.18868 3.53074L2.18639 2.04792Z" fill="#333333"/>
<path fill-rule="evenodd" clip-rule="evenodd" d="M6.85016 0.00678119C6.83185 -0.0022604 6.80896 -0.0022604 6.79295 0.00678119C6.77464 0.0180832 6.7632 0.0361664 6.7632 0.05651V1.52577C6.7632 1.53933 6.75633 1.55289 6.7426 1.56194C6.72887 1.56872 6.71514 1.56872 6.70141 1.56194L6.45884 1.42405C6.42222 1.40371 6.37874 1.40371 6.34213 1.42405L5.37184 1.97785C5.33523 1.99819 5.31235 2.03662 5.31235 2.07731V3.18264C5.31235 3.22333 5.33523 3.26175 5.37184 3.2821L6.34213 3.8359C6.37874 3.85624 6.42222 3.85624 6.45884 3.8359L7.42912 3.2821C7.46574 3.26175 7.48862 3.22333 7.48862 3.18264V0.427215C7.48862 0.384268 7.46574 0.345841 7.42912 0.325497L6.85016 0.00678119ZM6.7609 2.81872C6.7609 2.83002 6.75632 2.83906 6.74717 2.84358L6.41535 3.03345C6.40619 3.03797 6.39475 3.03797 6.3856 3.03345L6.05378 2.84358C6.04462 2.83906 6.04005 2.82776 6.04005 2.81872V2.43897C6.04005 2.42767 6.04462 2.41863 6.05378 2.4141L6.3856 2.22423C6.39475 2.21971 6.40619 2.21971 6.41535 2.22423L6.74717 2.4141C6.75632 2.41863 6.7609 2.42993 6.7609 2.43897V2.81872Z" fill="#333333"/>
<path fill-rule="evenodd" clip-rule="evenodd" d="M10.0791 2.42993C10.1157 2.40959 10.1363 2.37116 10.1363 2.33047V2.06149C10.1363 2.0208 10.1134 1.98237 10.0791 1.96203L9.11569 1.41049C9.07907 1.39015 9.03559 1.39015 8.99898 1.41049L8.02869 1.96429C7.99208 1.98463 7.96919 2.02306 7.96919 2.06375V3.16908C7.96919 3.20977 7.99208 3.24819 8.02869 3.26854L8.99211 3.81103C9.02873 3.83138 9.07221 3.83138 9.10653 3.81103L9.69008 3.49006C9.70838 3.48102 9.71983 3.46067 9.71983 3.44033C9.71983 3.41999 9.70838 3.39964 9.69008 3.3906L8.71522 2.8368C8.69691 2.8255 8.68547 2.80742 8.68547 2.78707V2.44123C8.68547 2.42089 8.69691 2.40055 8.71522 2.3915L9.01957 2.21971C9.03788 2.20841 9.06077 2.20841 9.07907 2.21971L9.38343 2.3915C9.40174 2.40281 9.41318 2.42089 9.41318 2.44123V2.71248C9.41318 2.73282 9.42462 2.75317 9.44293 2.76221C9.46124 2.77351 9.48412 2.77351 9.50243 2.76221L10.0791 2.42993Z" fill="#333333"/>
<path fill-rule="evenodd" clip-rule="evenodd" d="M9.04247 2.37795C9.04933 2.37343 9.05849 2.37343 9.06535 2.37795L9.25071 2.48419C9.25758 2.48871 9.26215 2.49549 9.26215 2.50453V2.71701C9.26215 2.72605 9.25758 2.73283 9.25071 2.73735L9.06535 2.84359C9.05849 2.84811 9.04933 2.84811 9.04247 2.84359L8.85711 2.73735C8.85024 2.73283 8.84566 2.72605 8.84566 2.71701V2.50453C8.84566 2.49549 8.85024 2.48871 8.85711 2.48419L9.04247 2.37795Z" fill="#539E43"/>
<path fill-rule="evenodd" clip-rule="evenodd" d="M3.80887 1.41501C3.77226 1.39466 3.72878 1.39466 3.69216 1.41501L2.72874 1.96428C2.69213 1.98463 2.67153 2.02305 2.67153 2.06374V3.16456C2.67153 3.20524 2.69441 3.24367 2.72874 3.26401L3.69216 3.81329C3.72878 3.83363 3.77226 3.83363 3.80887 3.81329L4.77229 3.26401C4.8089 3.24367 4.8295 3.20524 4.8295 3.16456V2.06374C4.8295 2.02305 4.80662 1.98463 4.77229 1.96428L3.80887 1.41501Z" fill="white"/>
<path fill-rule="evenodd" clip-rule="evenodd" d="M3.80887 1.41501C3.77226 1.39466 3.72878 1.39466 3.69216 1.41501L2.72874 1.96428C2.69213 1.98463 2.67153 2.02305 2.67153 2.06374V3.16456C2.67153 3.20524 2.69441 3.24367 2.72874 3.26401L3.69216 3.81329C3.72878 3.83363 3.77226 3.83363 3.80887 3.81329L4.77229 3.26401C4.8089 3.24367 4.8295 3.20524 4.8295 3.16456V2.06374C4.8295 2.02305 4.80662 1.98463 4.77229 1.96428L3.80887 1.41501Z" fill="url(#paint0_linear_37_1177)"/>
<mask id="mask0_37_1177" style="mask-type:luminance" maskUnits="userSpaceOnUse" x="2" y="1" width="3" height="3">
<path fill-rule="evenodd" clip-rule="evenodd" d="M3.80887 1.41501C3.77226 1.39466 3.72878 1.39466 3.69216 1.41501L2.72874 1.96428C2.69213 1.98463 2.67153 2.02305 2.67153 2.06374V3.16456C2.67153 3.20524 2.69441 3.24367 2.72874 3.26401L3.69216 3.81329C3.72878 3.83363 3.77226 3.83363 3.80887 3.81329L4.77229 3.26401C4.8089 3.24367 4.8295 3.20524 4.8295 3.16456V2.06374C4.8295 2.02305 4.80662 1.98463 4.77229 1.96428L3.80887 1.41501Z" fill="white"/>
</mask>
<g mask="url(#mask0_37_1177)">
<path fill-rule="evenodd" clip-rule="evenodd" d="M4.77459 1.96428L3.80659 1.415C3.79744 1.41048 3.786 1.40596 3.77684 1.4037L2.69214 3.23915C2.70129 3.25045 2.71273 3.25949 2.72418 3.26627L3.69217 3.81555C3.71963 3.83137 3.75167 3.83589 3.78142 3.82685L4.79976 1.98688C4.7929 1.97784 4.78374 1.97106 4.77459 1.96428Z" fill="url(#paint1_linear_37_1177)"/>
</g>
<mask id="mask1_37_1177" style="mask-type:luminance" maskUnits="userSpaceOnUse" x="2" y="1" width="3" height="3">
<path fill-rule="evenodd" clip-rule="evenodd" d="M3.80887 1.41501C3.77226 1.39466 3.72878 1.39466 3.69216 1.41501L2.72874 1.96428C2.69213 1.98463 2.67153 2.02305 2.67153 2.06374V3.16456C2.67153 3.20524 2.69441 3.24367 2.72874 3.26401L3.69216 3.81329C3.72878 3.83363 3.77226 3.83363 3.80887 3.81329L4.77229 3.26401C4.8089 3.24367 4.8295 3.20524 4.8295 3.16456V2.06374C4.8295 2.02305 4.80662 1.98463 4.77229 1.96428L3.80887 1.41501Z" fill="white"/>
</mask>
<g mask="url(#mask1_37_1177)">
<path fill-rule="evenodd" clip-rule="evenodd" d="M4.77688 3.26401C4.80434 3.24819 4.82493 3.22106 4.83409 3.19168L3.77226 1.40144C3.7448 1.39692 3.71505 1.39918 3.68988 1.415L2.72875 1.96202L3.7654 3.82911C3.77913 3.82685 3.79515 3.82233 3.80888 3.81555L4.77688 3.26401Z" fill="url(#paint2_linear_37_1177)"/>
<path fill-rule="evenodd" clip-rule="evenodd" d="M4.77687 3.26402L3.81116 3.81329C3.79743 3.82007 3.7837 3.82459 3.76768 3.82685L3.78599 3.86076L4.85696 3.24819V3.23463L4.8295 3.18942C4.82493 3.22107 4.80433 3.24819 4.77687 3.26402Z" fill="url(#paint3_linear_37_1177)"/>
<path fill-rule="evenodd" clip-rule="evenodd" d="M4.77687 3.26402L3.81116 3.81329C3.79743 3.82007 3.7837 3.82459 3.76768 3.82685L3.78599 3.86076L4.85696 3.24819V3.23463L4.8295 3.18942C4.82493 3.22107 4.80433 3.24819 4.77687 3.26402Z" fill="url(#paint4_linear_37_1177)"/>
</g>
<defs>
<linearGradient id="paint0_linear_37_1177" x1="3.54243" y1="1.51573" x2="2.53189" y2="2.75382" gradientUnits="userSpaceOnUse">
<stop stop-color="#41873F"/>
<stop offset="0.3288" stop-color="#418B3D"/>
<stop offset="0.6352" stop-color="#419637"/>
<stop offset="0.9319" stop-color="#3FA92D"/>
<stop offset="1" stop-color="#3FAE2A"/>
</linearGradient>
<linearGradient id="paint1_linear_37_1177" x1="4.1736" y1="4.11757" x2="6.7301" y2="3.08359" gradientUnits="userSpaceOnUse">
<stop offset="0.1376" stop-color="#41873F"/>
<stop offset="0.4032" stop-color="#54A044"/>
<stop offset="0.7136" stop-color="#66B848"/>
<stop offset="0.9081" stop-color="#6CC04A"/>
</linearGradient>
<linearGradient id="paint2_linear_37_1177" x1="2.63635" y1="3.90057" x2="4.86565" y2="3.90057" gradientUnits="userSpaceOnUse">
<stop offset="0.0919165" stop-color="#6CC04A"/>
<stop offset="0.2864" stop-color="#66B848"/>
<stop offset="0.5968" stop-color="#54A044"/>
<stop offset="0.8624" stop-color="#41873F"/>
</linearGradient>
<linearGradient id="paint3_linear_37_1177" x1="2.63635" y1="4.21391" x2="4.86564" y2="4.21391" gradientUnits="userSpaceOnUse">
<stop offset="0.0919165" stop-color="#6CC04A"/>
<stop offset="0.2864" stop-color="#66B848"/>
<stop offset="0.5968" stop-color="#54A044"/>
<stop offset="0.8624" stop-color="#41873F"/>
</linearGradient>
<linearGradient id="paint4_linear_37_1177" x1="2.40658" y1="1.60749" x2="2.20149" y2="4.40216" gradientUnits="userSpaceOnUse">
<stop stop-color="#41873F"/>
<stop offset="0.3288" stop-color="#418B3D"/>
<stop offset="0.6352" stop-color="#419637"/>
<stop offset="0.9319" stop-color="#3FA92D"/>
<stop offset="1" stop-color="#3FAE2A"/>
</linearGradient>
</defs>
</svg>
