<svg width="11" height="10" viewBox="0 0 11 10" fill="none" xmlns="http://www.w3.org/2000/svg">
<g clip-path="url(#clip0_37_1147)">
<path d="M0.0247803 3.61905C0.0247803 2.35226 0.0247803 1.71887 0.274368 1.23502C0.493912 0.809417 0.844227 0.463389 1.27511 0.246533C1.76495 0 2.40619 0 3.68868 0H6.48481C7.76729 0 8.40853 0 8.89837 0.246533C9.32925 0.463389 9.67957 0.809417 9.89911 1.23502C10.1487 1.71887 10.1487 2.35226 10.1487 3.61905V6.38095C10.1487 7.64774 10.1487 8.28113 9.89911 8.76498C9.67957 9.19058 9.32925 9.53661 8.89837 9.75347C8.40853 10 7.76729 10 6.48481 10H3.68867C2.40619 10 1.76495 10 1.27511 9.75347C0.844227 9.53661 0.493912 9.19058 0.274368 8.76498C0.0247803 8.28113 0.0247803 7.64774 0.0247803 6.38095V3.61905Z" fill="#001E36"/>
<path d="M2.19418 7.32723V2.92979C2.19418 2.89987 2.20684 2.88278 2.23637 2.88278C2.67228 2.88278 3.108 2.85714 3.54404 2.85714C4.25157 2.85714 5.01767 3.0961 5.2862 3.82723C5.34947 4.00671 5.38322 4.19047 5.38322 4.38278C5.38322 4.7503 5.29885 5.05372 5.13012 5.29304C4.65878 5.96154 3.84185 5.95116 3.10955 5.95116V7.32295C3.11528 7.36356 3.08024 7.38278 3.04628 7.38278H2.2448C2.21106 7.38278 2.19418 7.36569 2.19418 7.32723ZM3.11377 3.70757V5.14347C3.40413 5.16448 3.70797 5.16676 3.98696 5.07509C4.29496 4.98733 4.46363 4.72398 4.46363 4.40842C4.47219 4.13953 4.32385 3.88153 4.07133 3.78449C3.7957 3.67129 3.4113 3.66451 3.11377 3.70757Z" fill="#31A8FF"/>
<path d="M8.01423 4.85977C7.88659 4.79333 7.75066 4.74473 7.61013 4.71528C7.42955 4.67331 6.71733 4.52632 6.71706 4.89417C6.72338 5.09954 7.05341 5.20016 7.19924 5.25883C7.71117 5.43243 8.29048 5.74275 8.27909 6.36657C8.29474 7.14315 7.53301 7.45359 6.88005 7.45366C6.54012 7.45714 6.186 7.40513 5.87491 7.26101C5.84521 7.24548 5.82609 7.21227 5.82737 7.17844V6.43537C5.82402 6.40557 5.85639 6.37954 5.8817 6.40097C6.18651 6.58305 6.54781 6.67145 6.90042 6.67618C7.05608 6.67618 7.36459 6.66127 7.36225 6.43537C7.36225 6.21857 6.9932 6.1189 6.84608 6.06382C6.63284 5.98863 6.43065 5.88448 6.24504 5.75421C5.98566 5.57146 5.82294 5.27845 5.82737 4.95609C5.82585 4.22489 6.52703 3.89668 7.1585 3.89652C7.45371 3.89412 7.77071 3.91571 8.04551 4.03413C8.08503 4.04562 8.09322 4.08673 8.09305 4.12357V4.81849C8.09556 4.86162 8.04706 4.87631 8.01423 4.85977Z" fill="#31A8FF"/>
</g>
<defs>
<clipPath id="clip0_37_1147">
<rect width="10.1239" height="10" fill="white" transform="translate(0.0247803)"/>
</clipPath>
</defs>
</svg>
