<svg width="11" height="10" viewBox="0 0 11 10" fill="none" xmlns="http://www.w3.org/2000/svg">
<path d="M10.0949 5.63488C10.4492 2.89538 8.49057 0.390831 5.72218 0.0408938C2.95379 -0.309043 0.408079 1.62561 0.053806 4.36012C-0.300467 7.09462 1.65816 9.60417 4.42655 9.95911C7.20001 10.309 9.73559 8.37439 10.0949 5.63488Z" fill="#FF6C37"/>
<path d="M6.9014 3.21033L4.76564 5.31995L4.16338 4.72506C6.26371 2.65043 6.47121 2.8304 6.9014 3.21033Z" fill="white"/>
<path d="M4.76563 5.36994C4.75045 5.36994 4.74033 5.36494 4.73021 5.35494L4.12288 4.76005C4.10264 4.74006 4.10264 4.71006 4.12288 4.69006C6.25864 2.58044 6.48133 2.78041 6.93176 3.18034C6.94188 3.19033 6.94694 3.20033 6.94694 3.21533C6.94694 3.23033 6.94188 3.24033 6.93176 3.25032L4.796 5.35494C4.79094 5.36494 4.77575 5.36994 4.76563 5.36994ZM4.23422 4.72506L4.76563 5.24996L6.82548 3.21533C6.45096 2.88539 6.19791 2.78541 4.23422 4.72506Z" fill="#FF6C37"/>
<path d="M5.37803 5.92483L4.79601 5.34994L6.93177 3.24032C7.50367 3.81022 6.64835 4.73505 5.37803 5.92483Z" fill="white"/>
<path d="M5.37803 5.97484C5.36284 5.97484 5.35272 5.96984 5.3426 5.95984L4.76058 5.38494C4.75046 5.37494 4.75046 5.36495 4.75046 5.34995C4.75046 5.33495 4.75552 5.32495 4.76564 5.31496L6.9014 3.20534C6.92165 3.18534 6.95201 3.18534 6.97226 3.20534C7.10385 3.32531 7.1747 3.49528 7.16964 3.67025C7.15952 4.22515 6.52182 4.93002 5.41852 5.95984C5.40333 5.96984 5.38815 5.97484 5.37803 5.97484ZM4.86686 5.34995C5.19077 5.67489 5.32742 5.80487 5.37803 5.85486C6.22828 5.055 7.05323 4.23515 7.0583 3.67025C7.06336 3.54028 7.01275 3.4103 6.92671 3.31032L4.86686 5.34995Z" fill="#FF6C37"/>
<path d="M4.1735 4.74005L4.60369 5.16498C4.61381 5.17498 4.61381 5.18497 4.60369 5.19497C4.59863 5.19997 4.59863 5.19997 4.59357 5.19997L3.70282 5.38994C3.65727 5.39494 3.61679 5.36494 3.60666 5.31995C3.6016 5.29495 3.61172 5.26996 3.62691 5.25496L4.14313 4.74505C4.15326 4.73505 4.16844 4.73006 4.1735 4.74005Z" fill="white"/>
<path d="M3.68763 5.43993C3.61172 5.43993 3.55605 5.37994 3.55605 5.30496C3.55605 5.26996 3.57123 5.23497 3.59653 5.20997L4.11276 4.70007C4.14313 4.67507 4.18362 4.67507 4.21398 4.70007L4.64417 5.12499C4.67454 5.14999 4.67454 5.19498 4.64417 5.22497C4.63405 5.23497 4.62393 5.23997 4.60874 5.24497L3.718 5.43493C3.70788 5.43493 3.69775 5.43993 3.68763 5.43993ZM4.15831 4.79505L3.66233 5.28496C3.65221 5.29496 3.64714 5.30996 3.65727 5.32495C3.66233 5.33995 3.67751 5.34495 3.69269 5.33995L4.52777 5.15998L4.15831 4.79505Z" fill="#FF6C37"/>
<path d="M8.03001 2.04055C7.70611 1.7306 7.18482 1.7406 6.87103 2.06554C6.55725 2.39048 6.56737 2.90039 6.89634 3.21034C7.16457 3.46529 7.56946 3.51028 7.8883 3.32032L7.31135 2.75042L8.03001 2.04055Z" fill="white"/>
<path d="M7.46317 3.48528C6.98237 3.48528 6.59267 3.10035 6.59267 2.62544C6.59267 2.15053 6.98237 1.76559 7.46317 1.76559C7.68585 1.76559 7.90348 1.85058 8.06543 2.00555C8.07555 2.01555 8.08061 2.02555 8.08061 2.04054C8.08061 2.05554 8.07555 2.06554 8.06543 2.07554L7.38219 2.75042L7.91866 3.28032C7.93891 3.30032 7.93891 3.33031 7.91866 3.35031C7.9136 3.35531 7.9136 3.35531 7.90854 3.36031C7.77695 3.44029 7.62006 3.48528 7.46317 3.48528ZM7.46317 1.87058C7.03804 1.87058 6.69389 2.21051 6.69895 2.63044C6.69895 3.05036 7.0431 3.3903 7.46823 3.3853C7.58463 3.3853 7.70104 3.36031 7.80732 3.30532L7.27591 2.78541C7.26579 2.77541 7.26073 2.76541 7.26073 2.75042C7.26073 2.73542 7.26579 2.72542 7.27591 2.71542L7.95409 2.04554C7.81744 1.93056 7.64536 1.87058 7.46317 1.87058Z" fill="#FF6C37"/>
<path d="M8.04519 2.05555L8.03507 2.04555L7.31134 2.75042L7.88324 3.31532C7.93891 3.28032 7.99458 3.24033 8.04013 3.19534C8.36404 2.8804 8.36404 2.37049 8.04519 2.05555Z" fill="white"/>
<path d="M7.8883 3.3703C7.87311 3.3703 7.86299 3.3653 7.85287 3.3553L7.27591 2.7854C7.26579 2.77541 7.26073 2.76541 7.26073 2.75041C7.26073 2.73541 7.26579 2.72541 7.27591 2.71542L7.99458 2.00554C8.01482 1.98555 8.04519 1.98555 8.06543 2.00554L8.08062 2.01554C8.41971 2.35048 8.41971 2.89038 8.08568 3.23032C8.03507 3.28031 7.9794 3.32531 7.91866 3.3603C7.90348 3.3653 7.89336 3.3703 7.8883 3.3703ZM7.38219 2.75041L7.89336 3.25532C7.93385 3.23032 7.97433 3.19533 8.0047 3.16534C8.29318 2.88039 8.30836 2.41547 8.03001 2.11552L7.38219 2.75041Z" fill="#FF6C37"/>
<path d="M6.98744 3.30031C6.86598 3.18033 6.66859 3.18033 6.54713 3.30031L4.63911 5.18497L4.95796 5.49991L6.97732 3.75023C7.10891 3.64025 7.11903 3.44528 7.00768 3.31531C6.99756 3.31031 6.9925 3.30531 6.98744 3.30031Z" fill="white"/>
<path d="M4.95289 5.54991C4.93771 5.54991 4.92759 5.54491 4.91746 5.53491L4.59862 5.21997C4.57837 5.19997 4.57837 5.16998 4.59862 5.14998L6.50663 3.26532C6.64834 3.12535 6.87609 3.12535 7.0178 3.26532C7.15951 3.4053 7.15951 3.63025 7.0178 3.77023C7.01274 3.77523 7.00768 3.78023 7.00262 3.78523L4.98326 5.53491C4.9782 5.54491 4.96807 5.54991 4.95289 5.54991ZM4.70996 5.18497L4.95795 5.42993L6.94188 3.71024C7.05323 3.62026 7.06335 3.45529 6.97225 3.34531C6.88115 3.23533 6.71414 3.22533 6.60279 3.31531C6.59773 3.32031 6.59267 3.32531 6.58255 3.33031L4.70996 5.18497Z" fill="#FF6C37"/>
<path d="M3.17646 7.32959C3.15622 7.33959 3.14609 7.35958 3.15116 7.37958L3.23719 7.73951C3.25744 7.78951 3.22707 7.84949 3.1714 7.86449C3.13091 7.87949 3.08536 7.86449 3.06006 7.8345L2.50334 7.2896L4.32026 5.49492L4.94783 5.50492L5.37296 5.92484C5.27173 6.00983 4.65935 6.59472 3.17646 7.32959Z" fill="white"/>
<path d="M3.13598 7.91449C3.09549 7.91449 3.055 7.89949 3.0297 7.86949L2.47804 7.32459C2.46792 7.31459 2.46286 7.3046 2.46286 7.2896C2.46286 7.2746 2.46792 7.2646 2.47804 7.25461L4.29496 5.45993C4.30508 5.44993 4.32026 5.44493 4.33039 5.44493L4.95796 5.45493C4.97314 5.45493 4.98326 5.45993 4.99338 5.46993L5.41851 5.88985C5.42863 5.89985 5.43369 5.91485 5.43369 5.92984C5.43369 5.94484 5.42863 5.95484 5.41345 5.96484L5.37802 5.99483C4.84155 6.45975 4.11276 6.92466 3.20683 7.36958L3.29287 7.72452C3.30805 7.78951 3.27769 7.8595 3.21696 7.89449C3.18659 7.90949 3.16128 7.91449 3.13598 7.91449ZM2.57926 7.2896L3.10055 7.79951C3.11574 7.8245 3.1461 7.8345 3.17141 7.8195C3.19671 7.80451 3.20683 7.77451 3.19165 7.74952L3.10561 7.38958C3.09549 7.34459 3.11574 7.3046 3.15622 7.2846C4.05203 6.83968 4.77576 6.37976 5.30717 5.92484L4.93265 5.55491L4.35063 5.54491L2.57926 7.2896Z" fill="#FF6C37"/>
<path d="M2.07316 7.71951L2.50841 7.28959L3.15623 7.92947L2.12377 7.85949C2.07822 7.85449 2.04786 7.81449 2.05292 7.7695C2.05292 7.74951 2.05798 7.72951 2.07316 7.71951Z" fill="white"/>
<path d="M3.15622 7.97447L2.1187 7.90448C2.04278 7.89948 1.99217 7.8345 1.99724 7.75951C2.0023 7.72951 2.01242 7.69952 2.03772 7.67952L2.47297 7.2496C2.49322 7.2296 2.52358 7.2296 2.54383 7.2496L3.19164 7.88949C3.20683 7.90448 3.21189 7.92448 3.20176 7.94448C3.19164 7.96447 3.17646 7.97447 3.15622 7.97447ZM2.5084 7.35958L2.10858 7.75451C2.0934 7.76451 2.0934 7.7895 2.10858 7.7995C2.11364 7.8045 2.1187 7.8095 2.12882 7.8095L3.02463 7.86949L2.5084 7.35958Z" fill="#FF6C37"/>
<path d="M4.14312 5.72488C4.11276 5.72488 4.09251 5.69988 4.09251 5.67489C4.09251 5.65989 4.09758 5.64989 4.1077 5.63989L4.59862 5.15498C4.61886 5.13499 4.64923 5.13499 4.66947 5.15498L4.98832 5.46992C5.0035 5.48492 5.00856 5.49992 5.0035 5.51992C4.99844 5.53491 4.98326 5.54991 4.96301 5.55491L4.15325 5.72488C4.14819 5.72488 4.14312 5.72488 4.14312 5.72488ZM4.63405 5.25996L4.30002 5.5899L4.84661 5.47492L4.63405 5.25996Z" fill="#FF6C37"/>
<path d="M4.94783 5.50491L4.39111 5.62489C4.35062 5.63489 4.31013 5.60989 4.30001 5.5699C4.29495 5.54491 4.30001 5.51991 4.32026 5.49991L4.62898 5.19497L4.94783 5.50491Z" fill="white"/>
<path d="M4.381 5.67489C4.31014 5.67489 4.25447 5.6199 4.25447 5.54991C4.25447 5.51492 4.26965 5.48492 4.2899 5.45993L4.59862 5.15498C4.61887 5.13499 4.64923 5.13499 4.66948 5.15498L4.98832 5.46992C5.00351 5.48492 5.00857 5.49992 5.00351 5.51992C4.99844 5.53491 4.98326 5.54991 4.96302 5.55491L4.4063 5.67489C4.39618 5.67489 4.38606 5.67489 4.381 5.67489ZM4.63405 5.25996L4.36075 5.52991C4.35063 5.53991 4.35063 5.54991 4.35569 5.55991C4.36075 5.56991 4.37087 5.57491 4.38606 5.57491L4.85167 5.47492L4.63405 5.25996Z" fill="#FF6C37"/>
<path d="M8.05026 2.53545C8.04013 2.50545 8.00471 2.49045 7.97434 2.50045C7.94397 2.51045 7.92879 2.54544 7.93891 2.57544C7.93891 2.58044 7.94397 2.58544 7.94397 2.59044C7.97434 2.65043 7.96422 2.72541 7.92373 2.7804C7.90349 2.8054 7.90855 2.84039 7.92879 2.86039C7.9541 2.88038 7.98952 2.87538 8.00977 2.85039C8.08568 2.75541 8.10087 2.63543 8.05026 2.53545Z" fill="#FF6C37"/>
</svg>
