<svg width="11" height="10" viewBox="0 0 11 10" fill="none" xmlns="http://www.w3.org/2000/svg">
<path d="M8.47377 2.92752C8.36875 2.89127 8.25992 2.85698 8.14787 2.82454C8.16629 2.74917 8.18319 2.67478 8.19822 2.60165C8.44492 1.40083 8.28362 0.433446 7.73283 0.114942C7.20468 -0.190462 6.34095 0.12797 5.46861 0.889229C5.38473 0.962431 5.30061 1.03993 5.21653 1.12116C5.1605 1.06742 5.10456 1.01549 5.04877 0.965811C4.13454 0.151823 3.21817 -0.191203 2.66791 0.128223C2.14027 0.434512 1.98402 1.34395 2.20608 2.48197C2.22753 2.59189 2.25259 2.70414 2.28094 2.81827C2.15125 2.85519 2.02604 2.89455 1.90624 2.93641C0.834404 3.31113 0.149879 3.89841 0.149879 4.50758C0.149879 5.13673 0.884717 5.76777 2.00112 6.15041C2.08922 6.1806 2.18064 6.20915 2.27485 6.23626C2.24427 6.35969 2.21767 6.48066 2.19534 6.59864C1.9836 7.71691 2.14896 8.60486 2.67519 8.90921C3.21874 9.22352 4.13097 8.90045 5.01925 8.12184C5.08946 8.06029 5.15992 7.99503 5.23051 7.92661C5.322 8.01496 5.41334 8.09857 5.5042 8.17699C6.36461 8.91944 7.2144 9.21924 7.74014 8.91404C8.28315 8.59882 8.45963 7.64495 8.23052 6.48442C8.21302 6.39578 8.19265 6.30523 8.16979 6.21307C8.23385 6.19408 8.29674 6.17448 8.35806 6.15409C9.51867 5.76849 10.2738 5.14513 10.2738 4.50758C10.2738 3.89621 9.5672 3.30497 8.47377 2.92752ZM8.22205 5.74244C8.16669 5.76081 8.10989 5.77858 8.052 5.7958C7.92388 5.38906 7.75096 4.95655 7.53934 4.50969C7.74128 4.07348 7.90752 3.6465 8.03206 3.2424C8.13562 3.27245 8.23614 3.30414 8.333 3.33759C9.26984 3.66099 9.84131 4.13914 9.84131 4.50758C9.84131 4.90002 9.22414 5.40948 8.22205 5.74244ZM7.80624 6.56864C7.90755 7.08181 7.92202 7.54578 7.85492 7.90849C7.79462 8.2344 7.67336 8.45169 7.52343 8.53872C7.20438 8.7239 6.52209 8.48319 5.78626 7.84824C5.70191 7.77545 5.61694 7.69774 5.5317 7.61548C5.81697 7.30263 6.10207 6.93893 6.38032 6.53501C6.86974 6.49146 7.33212 6.42027 7.75144 6.32307C7.77209 6.4066 7.79044 6.48854 7.80624 6.56864ZM3.60135 8.50672C3.28963 8.61711 3.04137 8.62027 2.89129 8.5335C2.57195 8.3488 2.4392 7.63586 2.62028 6.67952C2.64103 6.56999 2.66571 6.45749 2.69417 6.34249C3.10889 6.43445 3.56789 6.50062 4.05848 6.5405C4.3386 6.93575 4.63194 7.29905 4.92755 7.61716C4.86296 7.67968 4.79863 7.73921 4.73466 7.7953C4.34187 8.13959 3.94825 8.38386 3.60135 8.50672ZM2.14099 5.74003C1.64734 5.57084 1.23967 5.35095 0.960223 5.11099C0.709126 4.89536 0.582352 4.68129 0.582352 4.50758C0.582352 4.13792 1.13196 3.66641 2.0486 3.34594C2.15983 3.30705 2.27626 3.2704 2.39708 3.23598C2.52377 3.64921 2.68995 4.08125 2.8905 4.51813C2.68736 4.9615 2.51881 5.40042 2.39088 5.81849C2.30475 5.79367 2.22129 5.76754 2.14099 5.74003ZM2.63052 2.39868C2.44026 1.42365 2.56662 0.688127 2.88459 0.503558C3.22328 0.306937 3.97223 0.587277 4.7616 1.29012C4.81206 1.33504 4.86271 1.38206 4.91351 1.4307C4.61936 1.74742 4.32871 2.10799 4.05107 2.50091C3.57493 2.54516 3.11916 2.61625 2.70011 2.71144C2.67377 2.60517 2.65043 2.50076 2.63052 2.39868ZM6.99752 3.47998C6.89735 3.30647 6.7945 3.13706 6.68966 2.97228C7.01268 3.01323 7.32216 3.06759 7.61279 3.1341C7.52554 3.41451 7.41678 3.7077 7.28877 4.00826C7.19693 3.83343 7.0998 3.65716 6.99752 3.47998ZM5.21667 1.74064C5.41615 1.95736 5.61593 2.19931 5.81242 2.46184C5.61442 2.45246 5.41396 2.44758 5.21184 2.44758C5.01163 2.44758 4.81265 2.45235 4.61587 2.46157C4.81256 2.20148 5.01406 1.95985 5.21667 1.74064ZM3.42441 3.48298C3.32434 3.65698 3.22901 3.8323 3.13862 4.00794C3.01268 3.70843 2.90493 3.4139 2.81692 3.12951C3.10577 3.06469 3.4138 3.01169 3.73476 2.97152C3.62844 3.13782 3.52475 3.30848 3.42441 3.48295V3.48298ZM3.744 6.07457C3.41239 6.03747 3.09974 5.9872 2.81096 5.92417C2.90038 5.6347 3.0105 5.33389 3.13911 5.02793C3.22973 5.20344 3.32544 5.37883 3.42612 5.55321H3.42614C3.52869 5.73085 3.63494 5.90487 3.744 6.07457ZM5.22863 7.30509C5.02365 7.08331 4.81919 6.83799 4.61951 6.57412C4.81335 6.58174 5.01098 6.58564 5.21184 6.58564C5.41819 6.58564 5.62218 6.58098 5.82297 6.57202C5.62582 6.84065 5.42677 7.08635 5.22863 7.30509ZM7.29289 5.01233C7.42821 5.3216 7.54228 5.62084 7.63285 5.90538C7.33931 5.97252 7.02239 6.02661 6.68847 6.0668C6.79357 5.89979 6.89731 5.72747 6.99925 5.55022C7.10238 5.3709 7.2003 5.1913 7.29289 5.01233ZM6.62462 5.33356C6.46637 5.60872 6.3039 5.87139 6.13896 6.11933C5.83854 6.14087 5.52817 6.15196 5.21184 6.15196C4.89679 6.15196 4.59033 6.14215 4.29523 6.12294C4.12364 5.87175 3.95763 5.6083 3.80039 5.33593H3.80042C3.64359 5.0643 3.49925 4.79037 3.36846 4.51799C3.49921 4.24496 3.64318 3.97073 3.79911 3.69959L3.79907 3.69964C3.95542 3.42778 4.11996 3.16562 4.28997 2.91599C4.59105 2.89317 4.8998 2.88126 5.21182 2.88126H5.21184C5.52527 2.88126 5.83441 2.89326 6.13541 2.91628C6.30281 3.16408 6.46624 3.42539 6.6232 3.69729C6.78194 3.97225 6.92776 4.24466 7.05964 4.51182C6.92816 4.78358 6.78266 5.05873 6.62462 5.33356ZM7.5168 0.490656C7.85582 0.686699 7.98765 1.47734 7.77465 2.51411C7.76106 2.58027 7.74577 2.64765 7.72915 2.71594C7.30913 2.61876 6.85303 2.54644 6.37551 2.50152C6.09733 2.10428 5.80905 1.74315 5.5197 1.4305C5.59749 1.35546 5.67518 1.2839 5.75254 1.21637C6.49996 0.564129 7.19852 0.306612 7.5168 0.490656ZM5.21184 3.60105C5.71111 3.60105 6.11587 4.00691 6.11587 4.50758C6.11587 5.00823 5.71111 5.4141 5.21184 5.4141C4.71256 5.4141 4.30781 5.00823 4.30781 4.50758C4.30781 4.00691 4.71256 3.60105 5.21184 3.60105Z" fill="#00D8FF"/>
</svg>
