<svg width="9" height="10" viewBox="0 0 9 10" fill="none" xmlns="http://www.w3.org/2000/svg">
<path fill-rule="evenodd" clip-rule="evenodd" d="M2.74704 6.11915C2.58613 6.21854 2.3437 6.37956 2.15615 6.5547C1.84825 6.84191 1.78382 7.24031 1.94625 7.33338C2.09649 7.41941 2.44727 7.31704 2.69831 7.04658C2.96178 6.76261 3.07044 6.40263 2.95822 5.99398C2.94504 6.00174 2.9321 6.00953 2.9194 6.01678L2.91967 6.01733L2.90265 6.02686C2.83714 6.06549 2.78361 6.09734 2.74704 6.11915ZM7.26868 5.99022C7.17754 6.18587 7.17297 6.24883 7.20065 6.26841C7.33291 6.22148 7.5517 6.10838 7.55343 5.80531C7.55371 5.75992 7.54357 5.71121 7.52731 5.66032C7.38592 5.78398 7.30443 5.91345 7.26868 5.99022ZM8.68776 5.39867C8.33447 5.358 8.05878 5.40694 7.84483 5.49499C7.88445 5.59685 7.9149 5.70294 7.91919 5.80982C7.92912 6.0444 7.76566 6.21799 7.5953 6.34193C7.49582 6.41419 7.38997 6.46235 7.30111 6.49143C7.23007 6.52103 7.13563 6.55162 7.06861 6.53812C6.92085 6.50845 6.8422 6.37881 6.94272 6.09283C6.99701 5.93806 7.15363 5.70246 7.40644 5.49954C7.34882 5.38237 7.2846 5.26298 7.25187 5.1533C7.18737 4.93707 7.16788 4.80637 7.16788 4.80637C7.16788 4.80637 6.9595 5.23311 6.69067 5.62118C6.67517 5.64374 6.6597 5.66586 6.6442 5.6879C6.697 5.8091 6.7386 5.93728 6.74424 6.06651C6.75413 6.30105 6.65133 6.47841 6.48073 6.60207C6.38838 6.66934 6.28986 6.71579 6.20532 6.74535C6.15127 6.76866 6.04134 6.80701 5.885 6.81734C5.7995 6.82311 5.71724 6.81788 5.67133 6.7835C5.60811 6.73633 5.60049 6.67812 5.63323 6.59859C5.66091 6.53108 5.86801 6.29756 6.04165 6.0931C6.08961 6.03664 6.13529 5.97894 6.17615 5.92552L6.17515 5.92323C6.17515 5.92323 6.2066 5.88314 6.25764 5.81314C6.19418 5.67816 6.11373 5.53765 6.07591 5.41022C6.01141 5.194 5.99189 5.06327 5.99189 5.06327C5.99189 5.06327 5.78067 5.59815 5.56063 6.02512C5.39035 6.35581 5.27661 6.5562 5.22536 6.64401L5.22484 6.64753C5.22484 6.64753 5.21719 6.66035 5.20401 6.68041L5.19415 6.69668L5.19387 6.69518C5.13674 6.77851 5.00857 6.94178 4.88116 6.94178C4.53139 6.94178 4.6598 6.24011 4.6598 6.24011C4.6598 6.24011 4.55755 6.50001 4.44229 6.72303C4.34841 6.9049 4.26287 7.05899 4.0758 7.05899C4.022 7.05899 3.9367 7.05745 3.86586 6.99093C3.7052 6.84017 3.58236 6.45732 3.60644 6.16081C3.627 5.9087 3.66634 5.73408 3.72015 5.58837C3.6242 5.64002 3.51329 5.70127 3.40035 5.76675L3.22671 5.86782L3.23231 5.87787C3.37595 6.15234 3.41429 6.75366 3.10106 7.21526C2.78787 7.67709 2.20484 7.95808 1.63679 7.80205C1.4535 7.75161 1.1766 7.37706 1.41543 6.855C1.6261 6.39464 2.46803 5.95939 2.68991 5.85077L2.75081 5.81765C2.30844 5.43531 1.20376 4.91954 1.04895 4.12729C1.00528 3.90427 1.11113 3.37093 1.7741 2.75781C2.33173 2.24228 3.10743 1.8474 3.82399 1.59577C5.02784 1.17307 6.29979 1.42241 6.49547 2.18055C6.68787 2.92614 6.03303 3.818 5.19439 4.1386C4.44561 4.42482 3.82652 4.37943 3.57219 4.29692C3.28308 4.2031 3.11352 4.01467 3.07217 3.9083C3.05591 3.86667 3.02795 3.7967 3.07217 3.77261C3.0993 3.75781 3.1102 3.76133 3.1828 3.84059C3.25186 3.91585 3.52952 4.11782 4.05698 4.05934C5.44111 3.90608 6.27488 2.84312 6.01141 2.27112C5.8269 1.87074 4.76008 1.6901 3.42723 2.34663C1.80022 3.1479 1.71191 3.80846 1.69797 4.05934C1.65987 4.74946 2.55966 5.11249 3.04653 5.62573L3.06528 5.64606C3.15639 5.5964 3.25263 5.54397 3.34702 5.4928C3.5925 5.35957 3.824 5.23461 3.93185 5.1764C4.10321 4.93038 4.4509 4.65889 4.70195 4.65889C5.10324 4.65889 4.96542 5.22863 4.96542 5.22863C4.96542 5.22863 4.97355 5.20255 4.98445 5.20231C4.99587 5.202 5.04006 5.12725 5.16394 5.17189C5.29135 5.21807 5.26238 5.30639 5.26318 5.31541C5.2647 5.33294 5.11266 5.83945 5.04947 6.16433C5.01923 6.31937 5.03674 6.4323 5.04566 6.4323C5.05809 6.4323 5.08349 6.39289 5.10709 6.35051L5.10657 6.34924C5.10657 6.34924 5.12432 6.31715 5.15404 6.25945L5.15989 6.24739L5.16013 6.24794C5.19519 6.18019 5.24439 6.08059 5.30124 5.95717C5.41267 5.7146 5.8378 4.77807 5.87386 4.67447C5.90988 4.57087 5.92867 4.46375 5.94646 4.41782C5.96397 4.37191 6.11425 4.33729 6.28986 4.33855C6.46551 4.33982 6.48333 4.41382 6.48454 4.42913C6.48582 4.44441 6.40104 4.6499 6.38149 4.79513C6.36222 4.94039 6.38076 5.01285 6.39675 5.1348C6.40717 5.21455 6.45765 5.31568 6.51734 5.43032C6.69908 5.13679 7.01885 4.57535 7.04958 4.41806C7.07061 4.31046 7.10439 4.20734 7.12217 4.1614C7.13992 4.1155 7.28997 4.08091 7.46558 4.08214C7.64122 4.0834 7.65897 4.1574 7.66025 4.17271C7.66153 4.18803 7.57648 4.39348 7.55721 4.53874C7.5379 4.68373 7.55648 4.7565 7.57243 4.87842C7.58617 4.98277 7.66787 5.12301 7.74887 5.28253C7.96992 5.1749 8.2301 5.10268 8.53471 5.10117C8.66084 5.10045 8.80732 5.11296 8.88296 5.13627V2.73621C8.88296 2.56688 8.7951 2.41085 8.64666 2.32632L4.68295 0.0634205C4.53475 -0.0211402 4.35325 -0.0211402 4.20501 0.0634205L0.252243 2.32523C0.104002 2.40979 0.0247955 2.56609 0.0247955 2.73515V7.2629C0.0247955 7.43196 0.104487 7.58826 0.252485 7.67279L4.21162 9.93637C4.35983 10.0212 4.53956 10.0212 4.68776 9.93637L8.6487 7.67279C8.7969 7.58799 8.88324 7.43192 8.88324 7.2629V5.43306C8.83296 5.41843 8.75936 5.40691 8.68776 5.39867ZM4.42353 5.16157C4.33851 5.25563 4.19359 5.4982 4.1258 5.70123C3.99103 6.10435 4.0494 6.51403 4.14484 6.53863C4.25626 6.56745 4.43903 6.0286 4.52655 5.81785C4.58139 5.68588 4.79462 5.10015 4.7479 5.02187C4.71143 4.96066 4.56035 5.01008 4.42353 5.16157ZM5.96556 6.52028C5.96556 6.52028 5.93867 6.5454 5.9503 6.55241C5.96604 6.56171 6.00006 6.54964 6.03712 6.53057C6.14197 6.46539 6.37723 6.30279 6.37775 6.0622C6.37775 6.0552 6.37748 6.04843 6.37699 6.04115C6.32242 6.1119 6.27214 6.17486 6.22875 6.22828C6.15463 6.31934 5.96556 6.52028 5.96556 6.52028Z" fill="#8CC84B"/>
</svg>
