<svg width="11" height="9" viewBox="0 0 11 9" fill="none" xmlns="http://www.w3.org/2000/svg">
<path fill-rule="evenodd" clip-rule="evenodd" d="M2.23363 0.282206L5.08673 0L7.93983 0.282206L10.1487 3.05643L5.08673 8.5714L0.0247803 3.05643L2.23363 0.282206Z" fill="#FDB300"/>
<path d="M2.0751 3.05643L5.0867 8.57143L0.0247803 3.05643H2.0751ZM8.09838 3.05643L5.08678 8.57143L10.1487 3.05643" fill="#EA6C00"/>
<path fill-rule="evenodd" clip-rule="evenodd" d="M2.07513 3.05643H8.09834L5.08674 8.57143" fill="#FDAD00"/>
<path d="M5.08674 0L2.23364 0.282158L2.07513 3.0564L5.08674 0ZM5.08679 0L7.93988 0.282158L8.09839 3.0564" fill="#FDD231"/>
<path d="M10.1487 3.05639L7.93987 0.282146L8.09838 3.05639H10.1487ZM0.0247803 3.05639L2.23361 0.282146L2.0751 3.05639" fill="#FDAD00"/>
<path fill-rule="evenodd" clip-rule="evenodd" d="M5.08674 0L2.07513 3.0564H8.09834" fill="#FEEEB7"/>
</svg>
