<svg width="11" height="6" viewBox="0 0 11 6" fill="none" xmlns="http://www.w3.org/2000/svg">
<path d="M5.06198 0C3.71212 0 2.86846 0.666667 2.531 2C3.03719 1.33333 3.62775 1.08333 4.30268 1.25C4.68777 1.34509 4.963 1.62104 5.26766 1.9265C5.76396 2.42409 6.33836 3 7.59295 3C8.94281 3 9.78647 2.33333 10.1239 1C9.61774 1.66667 9.02718 1.91667 8.35225 1.75C7.96716 1.65491 7.69193 1.37896 7.38727 1.0735C6.89097 0.575907 6.31657 0 5.06198 0ZM2.531 3C1.18114 3 0.337479 3.66667 1.52588e-05 5C0.506211 4.33333 1.09677 4.08333 1.7717 4.25C2.15679 4.34509 2.43202 4.62104 2.73668 4.9265C3.23298 5.42409 3.80738 6 5.06198 6C6.41183 6 7.25549 5.33333 7.59295 4C7.08676 4.66667 6.4962 4.91667 5.82127 4.75C5.43618 4.65491 5.16095 4.37896 4.85629 4.0735C4.35999 3.57591 3.78559 3 2.531 3Z" fill="url(#paint0_linear_37_1042)"/>
<defs>
<linearGradient id="paint0_linear_37_1042" x1="-0.281205" y1="1.92" x2="8.40839" y2="6.99231" gradientUnits="userSpaceOnUse">
<stop stop-color="#2298BD"/>
<stop offset="1" stop-color="#0ED7B5"/>
</linearGradient>
</defs>
</svg>
