<svg width="21" height="21" viewBox="0 0 21 21" fill="none" xmlns="http://www.w3.org/2000/svg">
<g filter="url(#filter0_f_38_1525)">
<mask id="path-1-outside-1_38_1525" maskUnits="userSpaceOnUse" x="2" y="2" width="17" height="17" fill="black">
<rect fill="white" x="2" y="2" width="17" height="17"/>
<path d="M10.2043 5L10.3642 8.22287L11.0391 5.06739L10.68 8.27419L11.8523 5.26783L10.9835 8.37549L12.6228 5.59612L11.2667 8.52417L13.3307 6.04376L11.5225 8.71635L13.9576 6.59915L11.7441 8.94707L14.4873 7.24791L11.9258 9.21035L14.9061 7.97325L12.063 9.49938L15.2031 8.75636L12.152 9.80666L15.3706 9.57698L12.1905 10.1242L15.4043 10.4138L12.1777 10.4439L15.3034 11.2453L12.1137 10.7573L15.0704 12.0497L12.0002 11.0565L14.7113 12.8064L11.8403 11.3335L14.2355 13.4957L11.6379 11.5813L13.6554 14.0997L11.3985 11.7935L12.9858 14.6029L11.1281 11.9644L12.2442 14.9921L10.8338 12.0898L11.4498 15.2573L10.5232 12.1664L10.6231 15.3917L10.2043 12.1921L9.78551 15.3917L9.88541 12.1664L8.95882 15.2573L9.57479 12.0898L8.16438 14.9921L9.28048 11.9644L7.42277 14.6029L9.01009 11.7935L6.75321 14.0997L8.77064 11.5813L6.17302 13.4957L8.56831 11.3335L5.69724 12.8064L8.40835 11.0565L5.33819 12.0497L8.29491 10.7573L5.10518 11.2453L8.23092 10.4439L5.00422 10.4138L8.21804 10.1242L5.03795 9.57698L8.2566 9.80666L5.20547 8.75636L8.3456 9.49938L5.50247 7.97325L8.48275 9.21035L5.92124 7.24791L8.66448 8.94707L6.45094 6.59915L8.88609 8.71635L7.07785 6.04376L9.14184 8.52417L7.78573 5.59612L9.42511 8.37549L8.55625 5.26783L9.72856 8.27419L9.36946 5.06739L10.0443 8.22287L10.2043 5Z"/>
</mask>
<path d="M10.2043 5L13.0111 4.86069L7.39743 4.86069L10.2043 5ZM10.3642 8.22287L7.55738 8.36218L13.1124 8.81063L10.3642 8.22287ZM11.0391 5.06739L13.832 5.38014L8.29095 4.47964L11.0391 5.06739ZM10.68 8.27419L7.88715 7.96144L13.2983 9.29517L10.68 8.27419ZM11.8523 5.26783L14.5588 6.02453L9.23402 4.24685L11.8523 5.26783ZM10.9835 8.37549L8.27694 7.61879L13.4041 9.80326L10.9835 8.37549ZM12.6228 5.59612L15.1729 6.77718L10.2022 4.16836L12.6228 5.59612ZM11.2667 8.52417L8.71664 7.3431L13.427 10.3217L11.2667 8.52417ZM13.3307 6.04376L15.6583 7.61859L11.1705 4.24619L13.3307 6.04376ZM11.5225 8.71635L9.19487 7.14152L13.3664 10.8372L11.5225 8.71635ZM13.9576 6.59915L16.0025 8.52696L12.1137 4.47833L13.9576 6.59915ZM11.7441 8.94707L9.69924 7.01926L13.2239 11.3362L11.7441 8.94707ZM14.4873 7.24791L16.1965 9.47878L13.0075 4.85878L14.4873 7.24791ZM11.9258 9.21035L10.2167 6.97949L13.0032 11.8059L11.9258 9.21035ZM14.9061 7.97325L16.2352 10.4494L13.8287 5.37767L14.9061 7.97325ZM12.063 9.49938L10.7338 7.02324L12.7101 12.2342L12.063 9.49938ZM15.2031 8.75636L16.1178 11.4136L14.556 6.02157L15.2031 8.75636ZM12.152 9.80666L11.2372 7.14938L12.352 12.6098L12.152 9.80666ZM15.3706 9.57698L15.8472 12.3466L15.1706 6.77379L15.3706 9.57698ZM12.1905 10.1242L11.7139 7.35464L11.9383 12.9232L12.1905 10.1242ZM15.4043 10.4138L15.4305 13.224L15.6566 7.61487L15.4043 10.4138ZM12.1777 10.4439L12.1515 7.6337L11.4797 13.1662L12.1777 10.4439ZM15.3034 11.2453L14.8784 14.0233L16.0013 8.52301L15.3034 11.2453ZM12.1137 10.7573L12.5386 7.97934L10.9881 13.3324L12.1137 10.7573ZM15.0704 12.0497L14.2053 14.7236L16.196 9.47469L15.0704 12.0497ZM12.0002 11.0565L12.8653 8.38261L10.4761 13.4176L12.0002 11.0565ZM14.7113 12.8064L13.4285 15.3069L16.2354 10.4453L14.7113 12.8064ZM11.8403 11.3335L13.123 8.83305L9.95717 13.4196L11.8403 11.3335ZM14.2355 13.4957L12.5683 15.758L16.1186 11.4096L14.2355 13.4957ZM11.6379 11.5813L13.3052 9.31901L9.44459 13.3383L11.6379 11.5813ZM13.6554 14.0997L11.6468 16.0653L15.8487 12.3427L13.6554 14.0997ZM11.3985 11.7935L13.4071 9.8279L8.95169 13.1759L11.3985 11.7935ZM12.9858 14.6029L10.6879 16.2208L15.4326 13.2205L12.9858 14.6029ZM11.1281 11.9644L13.426 10.3465L8.49123 12.9365L11.1281 11.9644ZM12.2442 14.9921L9.71654 16.2205L14.881 14.0201L12.2442 14.9921ZM10.8338 12.0898L13.3614 10.8615L8.07514 12.6263L10.8338 12.0898ZM11.4498 15.2573L8.75779 16.0643L14.2084 14.7209L11.4498 15.2573ZM10.5232 12.1664L13.2151 11.3594L7.71419 12.2534L10.5232 12.1664ZM10.6231 15.3917L7.83651 15.7564L13.432 15.3047L10.6231 15.3917ZM10.2043 12.1921L12.9908 11.8274L7.41774 11.8274L10.2043 12.1921ZM9.78551 15.3917L6.97655 15.3047L12.5721 15.7564L9.78551 15.3917ZM9.88541 12.1664L12.6944 12.2534L7.19345 11.3594L9.88541 12.1664ZM8.95882 15.2573L6.20018 14.7209L11.6508 16.0643L8.95882 15.2573ZM9.57479 12.0898L12.3334 12.6263L7.04714 10.8615L9.57479 12.0898ZM8.16438 14.9921L5.52752 14.0201L10.692 16.2205L8.16438 14.9921ZM9.28048 11.9644L11.9173 12.9365L6.98261 10.3465L9.28048 11.9644ZM7.42277 14.6029L4.97599 13.2205L9.72065 16.2208L7.42277 14.6029ZM9.01009 11.7935L11.4569 13.1759L7.00151 9.8279L9.01009 11.7935ZM6.75321 14.0997L4.55986 12.3427L8.76179 16.0653L6.75321 14.0997ZM8.77064 11.5813L10.964 13.3383L7.10336 9.31901L8.77064 11.5813ZM6.17302 13.4957L4.28993 11.4096L7.8403 15.758L6.17302 13.4957ZM8.56831 11.3335L10.4514 13.4196L7.28552 8.83305L8.56831 11.3335ZM5.69724 12.8064L4.17317 10.4453L6.98003 15.3069L5.69724 12.8064ZM8.40835 11.0565L9.93243 13.4176L7.54328 8.38261L8.40835 11.0565ZM5.33819 12.0497L4.21261 9.47469L6.20326 14.7236L5.33819 12.0497ZM8.29491 10.7573L9.42049 13.3324L7.86996 7.97934L8.29491 10.7573ZM5.10518 11.2453L4.40724 8.52301L5.53013 14.0233L5.10518 11.2453ZM8.23092 10.4439L8.92886 13.1662L8.25709 7.6337L8.23092 10.4439ZM5.00422 10.4138L4.752 7.61487L4.97805 13.224L5.00422 10.4138ZM8.21804 10.1242L8.47025 12.9232L8.69466 7.35464L8.21804 10.1242ZM5.03795 9.57698L5.23798 6.77379L4.56132 12.3466L5.03795 9.57698ZM8.2566 9.80666L8.05656 12.6098L9.17132 7.14938L8.2566 9.80666ZM5.20547 8.75636L5.85258 6.02157L4.29075 11.4136L5.20547 8.75636ZM8.3456 9.49938L7.6985 12.2342L9.67474 7.02324L8.3456 9.49938ZM5.50247 7.97325L6.57989 5.37767L4.17333 10.4494L5.50247 7.97325ZM8.48275 9.21035L7.40533 11.8059L10.1919 6.97949L8.48275 9.21035ZM5.92124 7.24791L7.40107 4.85878L4.21212 9.47878L5.92124 7.24791ZM8.66448 8.94707L7.18465 11.3362L10.7093 7.01926L8.66448 8.94707ZM6.45094 6.59915L8.29485 4.47833L4.40609 8.52696L6.45094 6.59915ZM8.88609 8.71635L7.04218 10.8372L11.2137 7.14152L8.88609 8.71635ZM7.07785 6.04376L9.23808 4.24619L4.75024 7.61859L7.07785 6.04376ZM9.14184 8.52417L6.98161 10.3217L11.6919 7.3431L9.14184 8.52417ZM7.78573 5.59612L10.2063 4.16836L5.23564 6.77718L7.78573 5.59612ZM9.42511 8.37549L7.0045 9.80326L12.1316 7.61879L9.42511 8.37549ZM8.55625 5.26783L11.1745 4.24685L5.84973 6.02453L8.55625 5.26783ZM9.72856 8.27419L7.11027 9.29517L12.5214 7.96144L9.72856 8.27419ZM9.36946 5.06739L12.1176 4.47964L6.5766 5.38014L9.36946 5.06739ZM10.0443 8.22287L7.29616 8.81063L12.8512 8.36218L10.0443 8.22287ZM7.39743 4.86069L7.39691 4.87109L13.0106 5.14971L13.0111 5.13931L7.39743 4.86069ZM7.36595 5.49487L7.36492 5.51566L12.9786 5.79428L12.9797 5.77349L7.36595 5.49487ZM7.33396 6.13944L7.33293 6.16024L12.9466 6.43885L12.9477 6.41806L7.33396 6.13944ZM7.30197 6.78402L7.30094 6.80481L12.9147 7.08343L12.9157 7.06264L7.30197 6.78402ZM7.26998 7.42859L7.26894 7.44938L12.8827 7.728L12.8837 7.70721L7.26998 7.42859ZM7.23799 8.07317L7.23747 8.08356L12.8512 8.36218L12.8517 8.35178L7.23799 8.07317ZM12.7925 7.63511L12.7903 7.62494L7.29399 8.80045L7.29616 8.81063L12.7925 7.63511ZM12.6597 7.0142L12.6553 6.99384L7.15901 8.16935L7.16337 8.18971L12.6597 7.0142ZM12.5247 6.3831L12.5204 6.36274L7.02404 7.53826L7.02839 7.55862L12.5247 6.3831ZM12.3897 5.75201L12.3854 5.73165L6.88907 6.90716L6.89342 6.92752L12.3897 5.75201ZM12.2548 5.12091L12.2504 5.10055L6.75409 6.27607L6.75845 6.29642L12.2548 5.12091ZM12.1198 4.48982L12.1176 4.47964L6.62129 5.65515L6.62347 5.66533L12.1198 4.48982ZM6.5766 5.38014L6.57776 5.39049L12.1635 4.76499L12.1623 4.75465L6.5766 5.38014ZM6.64726 6.01116L6.64958 6.03184L12.2353 5.40635L12.233 5.38566L6.64726 6.01116ZM6.71908 6.65251L6.7214 6.6732L12.3071 6.04771L12.3048 6.02702L6.71908 6.65251ZM6.7909 7.29387L6.79322 7.31456L12.3789 6.68907L12.3766 6.66838L6.7909 7.29387ZM6.86272 7.93523L6.86504 7.95592L12.4508 7.33043L12.4484 7.30974L6.86272 7.93523ZM6.93454 8.57659L6.9357 8.58694L12.5214 7.96144L12.5203 7.9511L6.93454 8.57659ZM12.3469 7.25321L12.3431 7.24351L7.10648 9.28547L7.11027 9.29517L12.3469 7.25321ZM12.1162 6.66163L12.1086 6.64224L6.87202 8.6842L6.87959 8.7036L12.1162 6.66163ZM11.8817 6.06036L11.8741 6.04097L6.63756 8.08293L6.64513 8.10232L11.8817 6.06036ZM11.6473 5.45909L11.6397 5.43969L6.4031 7.48166L6.41066 7.50105L11.6473 5.45909ZM11.4128 4.85782L11.4052 4.83842L6.16864 6.88039L6.1762 6.89978L11.4128 4.85782ZM11.1783 4.25655L11.1745 4.24685L5.93796 6.28881L5.94174 6.29851L11.1783 4.25655ZM5.84973 6.02453L5.85253 6.03456L11.2656 4.52115L11.2628 4.51113L5.84973 6.02453ZM6.0207 6.63604L6.02631 6.65609L11.4394 5.14269L11.4337 5.12264L6.0207 6.63604ZM6.19447 7.25757L6.20008 7.27762L11.6131 5.76422L11.6075 5.74417L6.19447 7.25757ZM6.36824 7.87911L6.37385 7.89916L11.7869 6.38575L11.7813 6.3657L6.36824 7.87911ZM6.54201 8.50064L6.54762 8.52069L11.9607 7.00728L11.9551 6.98723L6.54201 8.50064ZM6.71578 9.12217L6.71859 9.1322L12.1316 7.61879L12.1288 7.60877L6.71578 9.12217ZM11.8457 6.94773L11.8404 6.93876L6.99921 9.79429L7.0045 9.80326L11.8457 6.94773ZM11.5231 6.40082L11.5126 6.38289L6.67134 9.23842L6.68191 9.25635L11.5231 6.40082ZM11.1953 5.84495L11.1847 5.82701L6.34346 8.68254L6.35404 8.70047L11.1953 5.84495ZM10.8674 5.28907L10.8568 5.27114L6.01559 8.12667L6.02616 8.1446L10.8674 5.28907ZM10.5395 4.7332L10.5289 4.71526L5.68771 7.57079L5.69829 7.58872L10.5395 4.7332ZM10.2116 4.17732L10.2063 4.16836L5.36512 7.02388L5.37041 7.03285L10.2116 4.17732ZM5.23564 6.77718L5.24002 6.78663L10.3402 4.4245L10.3358 4.41506L5.23564 6.77718ZM5.50249 7.35334L5.51124 7.37223L10.6114 5.01011L10.6027 4.99122L5.50249 7.35334ZM5.77371 7.93895L5.78246 7.95784L10.8826 5.59572L10.8739 5.57683L5.77371 7.93895ZM6.04493 8.52456L6.05368 8.54345L11.1539 6.18133L11.1451 6.16244L6.04493 8.52456ZM6.31616 9.11017L6.3249 9.12906L11.4251 6.76694L11.4163 6.74805L6.31616 9.11017ZM6.58738 9.69578L6.59175 9.70523L11.6919 7.3431L11.6876 7.33366L6.58738 9.69578ZM11.3021 6.7266L11.2954 6.7186L6.97495 10.3137L6.98161 10.3217L11.3021 6.7266ZM10.8959 6.23852L10.8826 6.22251L6.56215 9.81765L6.57547 9.83365L10.8959 6.23852ZM10.4831 5.74243L10.4698 5.72643L6.14935 9.32157L6.16267 9.33757L10.4831 5.74243ZM10.0703 5.24635L10.057 5.23035L5.73655 8.82549L5.74987 8.84149L10.0703 5.24635ZM9.65754 4.75027L9.64423 4.73427L5.32376 8.32941L5.33707 8.34541L9.65754 4.75027ZM9.24474 4.25419L9.23808 4.24619L4.91762 7.84133L4.92427 7.84933L9.24474 4.25419ZM4.75024 7.61859L4.75607 7.62721L9.4113 4.47755L9.40546 4.46893L4.75024 7.61859ZM5.10605 8.14448L5.11772 8.16173L9.77294 5.01207L9.76128 4.99483L5.10605 8.14448ZM5.4677 8.679L5.47937 8.69624L10.1346 5.54659L10.1229 5.52934L5.4677 8.679ZM5.82935 9.21352L5.84102 9.23076L10.4962 6.0811L10.4846 6.06386L5.82935 9.21352ZM6.191 9.74804L6.20266 9.76528L10.8579 6.61562L10.8462 6.59838L6.191 9.74804ZM6.55265 10.2826L6.55848 10.2912L11.2137 7.14152L11.2079 7.1329L6.55265 10.2826ZM10.73 6.59553L10.7221 6.5887L7.03433 10.8303L7.04218 10.8372L10.73 6.59553ZM10.2508 6.17892L10.2351 6.16526L6.5473 10.4069L6.56301 10.4206L10.2508 6.17892ZM9.7638 5.75548L9.74808 5.74182L6.06027 9.98346L6.07598 9.99712L9.7638 5.75548ZM9.27677 5.33204L9.26106 5.31838L5.57324 9.56002L5.58895 9.57368L9.27677 5.33204ZM8.78974 4.9086L8.77403 4.89494L5.08621 9.13658L5.10192 9.15024L8.78974 4.9086ZM8.30271 4.48516L8.29485 4.47833L4.60703 8.71997L4.61489 8.7268L8.30271 4.48516ZM4.40609 8.52696L4.41323 8.53453L8.50293 4.67891L8.49579 4.67134L4.40609 8.52696ZM4.84166 8.98897L4.85594 9.00412L8.94564 5.1485L8.93136 5.13335L4.84166 8.98897ZM5.28437 9.45856L5.29865 9.4737L9.38835 5.61808L9.37407 5.60293L5.28437 9.45856ZM5.72707 9.92814L5.74135 9.94329L9.83105 6.08767L9.81677 6.07252L5.72707 9.92814ZM6.16978 10.3977L6.18406 10.4129L10.2738 6.55725L10.2595 6.5421L6.16978 10.3977ZM6.61249 10.8673L6.61963 10.8749L10.7093 7.01926L10.7022 7.01169L6.61249 10.8673ZM10.1443 6.55794L10.1355 6.55245L7.1758 11.3307L7.18465 11.3362L10.1443 6.55794ZM9.60451 6.22359L9.58681 6.21262L6.62715 10.9909L6.64485 11.0019L9.60451 6.22359ZM9.05586 5.88375L9.03816 5.87279L6.07851 10.6511L6.0962 10.662L9.05586 5.88375ZM8.50721 5.54392L8.48952 5.53296L5.52986 10.3112L5.54756 10.3222L8.50721 5.54392ZM7.95857 5.20409L7.94087 5.19313L4.98121 9.9714L4.99891 9.98236L7.95857 5.20409ZM7.40992 4.86426L7.40107 4.85878L4.44141 9.63705L4.45026 9.64253L7.40992 4.86426ZM4.21212 9.47878L4.22038 9.48511L7.63863 5.02338L7.63037 5.01705L4.21212 9.47878ZM4.71615 9.86493L4.73268 9.8776L8.15093 5.41587L8.13441 5.40321L4.71615 9.86493ZM5.22846 10.2574L5.24498 10.2701L8.66323 5.80836L8.64671 5.7957L5.22846 10.2574ZM5.74076 10.6499L5.75728 10.6626L9.17553 6.20085L9.15901 6.18819L5.74076 10.6499ZM6.25306 11.0424L6.26958 11.0551L9.68784 6.59333L9.67131 6.58067L6.25306 11.0424ZM6.76536 11.4349L6.77362 11.4412L10.1919 6.97949L10.1836 6.97316L6.76536 11.4349ZM9.56017 6.61478L9.55055 6.61079L7.39571 11.8019L7.40533 11.8059L9.56017 6.61478ZM8.97373 6.37135L8.9545 6.36336L6.79966 11.5545L6.81889 11.5625L8.97373 6.37135ZM8.37767 6.12392L8.35844 6.11594L6.2036 11.3071L6.22283 11.3151L8.37767 6.12392ZM7.78162 5.8765L7.76239 5.86852L5.60755 11.0597L5.62677 11.0677L7.78162 5.8765ZM7.18556 5.62908L7.16633 5.6211L5.01149 10.8123L5.03072 10.8202L7.18556 5.62908ZM6.58951 5.38166L6.57989 5.37767L4.42505 10.5688L4.43466 10.5728L6.58951 5.38166ZM4.17333 10.4494L4.1825 10.4543L6.84078 5.50203L6.83161 5.49711L4.17333 10.4494ZM4.73279 10.7497L4.75113 10.7595L7.40941 5.80726L7.39106 5.79741L4.73279 10.7497ZM5.30141 11.0549L5.31976 11.0648L7.97803 6.11249L7.95969 6.10264L5.30141 11.0549ZM5.87004 11.3601L5.88838 11.37L8.54666 6.41771L8.52832 6.40787L5.87004 11.3601ZM6.43867 11.6654L6.45701 11.6752L9.11529 6.72294L9.09694 6.71309L6.43867 11.6654ZM7.00729 11.9706L7.01647 11.9755L9.67474 7.02324L9.66557 7.01832L7.00729 11.9706ZM8.99271 6.76458L8.98258 6.76219L7.68837 12.2318L7.6985 12.2342L8.99271 6.76458ZM8.37482 6.61838L8.35456 6.61358L7.06034 12.0832L7.0806 12.088L8.37482 6.61838ZM7.74679 6.46977L7.72653 6.46498L6.43231 11.9346L6.45257 11.9394L7.74679 6.46977ZM7.11876 6.32117L7.0985 6.31638L5.80429 11.786L5.82455 11.7908L7.11876 6.32117ZM6.49074 6.17257L6.47048 6.16777L5.17626 11.6374L5.19652 11.6422L6.49074 6.17257ZM5.86271 6.02396L5.85258 6.02157L4.55837 11.4912L4.5685 11.4936L5.86271 6.02396ZM4.29075 11.4136L4.30059 11.417L6.13004 6.10247L6.1202 6.09908L4.29075 11.4136ZM4.89113 11.6203L4.91082 11.6271L6.74027 6.31253L6.72058 6.30575L4.89113 11.6203ZM5.50136 11.8304L5.52104 11.8372L7.35049 6.52259L7.33081 6.51581L5.50136 11.8304ZM6.11158 12.0404L6.13127 12.0472L7.96072 6.73265L7.94103 6.72587L6.11158 12.0404ZM6.72181 12.2505L6.74149 12.2573L8.57094 6.94271L8.55126 6.93593L6.72181 12.2505ZM7.33203 12.4606L7.34187 12.4639L9.17132 7.14938L9.16148 7.14599L7.33203 12.4606ZM8.45663 7.00348L8.44625 7.00274L8.04618 12.6091L8.05656 12.6098L8.45663 7.00348ZM7.82329 6.95828L7.80252 6.9568L7.40245 12.5632L7.42321 12.5647L7.82329 6.95828ZM7.17956 6.91234L7.15879 6.91086L6.75872 12.5172L6.77948 12.5187L7.17956 6.91234ZM6.53583 6.86641L6.51506 6.86492L6.11499 12.4713L6.13575 12.4728L6.53583 6.86641ZM5.89209 6.82047L5.87133 6.81899L5.47126 12.4254L5.49202 12.4268L5.89209 6.82047ZM5.24836 6.77453L5.23798 6.77379L4.83791 12.3802L4.84829 12.3809L5.24836 6.77453ZM4.56132 12.3466L4.57158 12.3483L5.52483 6.80914L5.51457 6.80738L4.56132 12.3466ZM5.18708 12.4543L5.2076 12.4578L6.16084 6.91859L6.14033 6.91506L5.18708 12.4543ZM5.8231 12.5637L5.84362 12.5673L6.79686 7.02805L6.77635 7.02452L5.8231 12.5637ZM6.45912 12.6732L6.47964 12.6767L7.43288 7.1375L7.41236 7.13397L6.45912 12.6732ZM7.09514 12.7826L7.11565 12.7862L8.0689 7.24695L8.04838 7.24342L7.09514 12.7826ZM7.73116 12.8921L7.74141 12.8938L8.69466 7.35464L8.6844 7.35287L7.73116 12.8921ZM7.96582 7.32527L7.95545 7.3262L8.45989 12.9241L8.47025 12.9232L7.96582 7.32527ZM7.33342 7.38225L7.31269 7.38412L7.81712 12.9821L7.83786 12.9802L7.33342 7.38225ZM6.69066 7.44017L6.66993 7.44204L7.17436 13.04L7.19509 13.0381L6.69066 7.44017ZM6.0479 7.49809L6.02716 7.49996L6.5316 13.0979L6.55233 13.096L6.0479 7.49809ZM5.40513 7.55601L5.3844 7.55788L5.88883 13.1558L5.90957 13.154L5.40513 7.55601ZM4.76237 7.61393L4.752 7.61487L5.25644 13.2128L5.2668 13.2119L4.76237 7.61393ZM4.97805 13.224L4.98845 13.2241L5.0408 7.60375L5.0304 7.60365L4.97805 13.224ZM5.61298 13.2299L5.63379 13.2301L5.68614 7.60976L5.66533 7.60956L5.61298 13.2299ZM6.25832 13.236L6.27913 13.2362L6.33148 7.61577L6.31067 7.61557L6.25832 13.236ZM6.90366 13.242L6.92447 13.2422L6.97682 7.62178L6.95601 7.62158L6.90366 13.242ZM7.549 13.248L7.56981 13.2482L7.62216 7.62779L7.60135 7.6276L7.549 13.248ZM8.19433 13.254L8.20474 13.2541L8.25709 7.6337L8.24668 7.63361L8.19433 13.254ZM7.53298 7.72163L7.5229 7.72421L8.91877 13.1687L8.92886 13.1662L7.53298 7.72163ZM6.91792 7.87932L6.89775 7.88449L8.29362 13.329L8.31379 13.3239L6.91792 7.87932ZM6.29277 8.03959L6.2726 8.04476L7.66848 13.4893L7.68864 13.4841L6.29277 8.03959ZM5.66762 8.19987L5.64745 8.20504L7.04333 13.6496L7.06349 13.6444L5.66762 8.19987ZM5.04247 8.36015L5.0223 8.36532L6.41818 13.8099L6.43834 13.8047L5.04247 8.36015ZM4.41732 8.52042L4.40724 8.52301L5.80311 13.9675L5.8132 13.965L4.41732 8.52042ZM5.53013 14.0233L5.54042 14.0217L4.69051 8.4657L4.68022 8.46728L5.53013 14.0233ZM6.15778 13.9273L6.17836 13.9241L5.32846 8.36812L5.30788 8.37126L6.15778 13.9273ZM6.79573 13.8297L6.81631 13.8265L5.96641 8.27053L5.94583 8.27368L6.79573 13.8297ZM7.43368 13.7321L7.45426 13.7289L6.60435 8.17294L6.58378 8.17609L7.43368 13.7321ZM8.07162 13.6345L8.0922 13.6314L7.2423 8.07536L7.22172 8.0785L8.07162 13.6345ZM8.70957 13.5369L8.71986 13.5353L7.86996 7.97934L7.85967 7.98092L8.70957 13.5369ZM7.16933 8.18228L7.15979 8.18645L9.41095 13.3366L9.42049 13.3324L7.16933 8.18228ZM6.58752 8.4366L6.56845 8.44493L8.81961 13.5951L8.83869 13.5867L6.58752 8.4366ZM5.99618 8.69508L5.9771 8.70342L8.22827 13.8535L8.24734 13.8452L5.99618 8.69508ZM5.40484 8.95356L5.38576 8.9619L7.63692 14.112L7.656 14.1037L5.40484 8.95356ZM4.81349 9.21204L4.79442 9.22038L7.04558 14.3705L7.06466 14.3622L4.81349 9.21204ZM4.22215 9.47052L4.21261 9.47469L6.46378 14.6248L6.47331 14.6206L4.22215 9.47052ZM6.20326 14.7236L6.21317 14.7204L4.48303 9.37269L4.47312 9.37589L6.20326 14.7236ZM6.80739 14.5282L6.8272 14.5217L5.09706 9.17403L5.07725 9.18044L6.80739 14.5282ZM7.42142 14.3295L7.44123 14.3231L5.71109 8.97537L5.69128 8.98178L7.42142 14.3295ZM8.03545 14.1308L8.05526 14.1244L6.32512 8.77672L6.30532 8.78312L8.03545 14.1308ZM8.64949 13.9322L8.66929 13.9258L6.93915 8.57806L6.91935 8.58447L8.64949 13.9322ZM9.26352 13.7335L9.27342 13.7303L7.54328 8.38261L7.53338 8.38581L9.26352 13.7335ZM6.88428 8.69531L6.87553 8.70095L9.92368 13.4233L9.93243 13.4176L6.88428 8.69531ZM6.3508 9.03966L6.33331 9.05095L9.38146 13.7733L9.39895 13.762L6.3508 9.03966ZM5.80858 9.38965L5.79109 9.40094L8.83924 14.1233L8.85673 14.112L5.80858 9.38965ZM5.26636 9.73964L5.24887 9.75093L8.29701 14.4732L8.31451 14.462L5.26636 9.73964ZM4.72414 10.0896L4.70664 10.1009L7.75479 14.8232L7.77228 14.8119L4.72414 10.0896ZM4.18191 10.4396L4.17317 10.4453L7.22132 15.1676L7.23006 15.1619L4.18191 10.4396ZM6.98003 15.3069L6.98929 15.3021L4.42372 10.3012L4.41446 10.306L6.98003 15.3069ZM7.54498 15.0171L7.5635 15.0076L4.99793 10.0066L4.97941 10.0161L7.54498 15.0171ZM8.11919 14.7225L8.13771 14.713L5.57215 9.71205L5.55362 9.72155L8.11919 14.7225ZM8.6934 14.4279L8.71193 14.4184L6.14636 9.41746L6.12784 9.42697L8.6934 14.4279ZM9.26762 14.1333L9.28614 14.1238L6.72057 9.12288L6.70205 9.13239L9.26762 14.1333ZM9.84183 13.8387L9.85109 13.834L7.28552 8.83305L7.27626 8.8378L9.84183 13.8387ZM6.68521 9.24742L6.67749 9.25439L10.4437 13.4266L10.4514 13.4196L6.68521 9.24742ZM6.21388 9.67288L6.19843 9.68683L9.96462 13.859L9.98007 13.8451L6.21388 9.67288ZM5.73483 10.1053L5.71937 10.1193L9.48556 14.2915L9.50101 14.2775L5.73483 10.1053ZM5.25577 10.5378L5.24031 10.5517L9.0065 14.7239L9.02196 14.71L5.25577 10.5378ZM4.77671 10.9702L4.76126 10.9841L8.52745 15.1563L8.5429 15.1424L4.77671 10.9702ZM4.29765 11.4026L4.28993 11.4096L8.05611 15.5818L8.06384 15.5748L4.29765 11.4026ZM7.8403 15.758L7.84867 15.7518L4.51412 11.2272L4.50574 11.2334L7.8403 15.758ZM8.35144 15.3813L8.3682 15.369L5.03365 10.8443L5.01689 10.8567L8.35144 15.3813ZM8.87096 14.9984L8.88772 14.9861L5.55317 10.4615L5.53641 10.4738L8.87096 14.9984ZM9.39049 14.6156L9.40724 14.6032L6.07269 10.0786L6.05593 10.0909L9.39049 14.6156ZM9.91001 14.2327L9.92677 14.2203L6.59222 9.69571L6.57546 9.70806L9.91001 14.2327ZM10.4295 13.8498L10.4379 13.8436L7.10336 9.31901L7.09498 9.32519L10.4295 13.8498ZM6.57729 9.82431L6.57078 9.83243L10.9575 13.3465L10.964 13.3383L6.57729 9.82431ZM6.18031 10.3199L6.1673 10.3361L10.554 13.8501L10.567 13.8339L6.18031 10.3199ZM5.77683 10.8236L5.76381 10.8398L10.1505 14.3538L10.1635 14.3376L5.77683 10.8236ZM5.37334 11.3272L5.36033 11.3435L9.74701 14.8575L9.76003 14.8413L5.37334 11.3272ZM4.96986 11.8309L4.95684 11.8472L9.34353 15.3612L9.35654 15.345L4.96986 11.8309ZM4.56637 12.3346L4.55986 12.3427L8.94655 15.8568L8.95306 15.8486L4.56637 12.3346ZM8.76179 16.0653L8.76907 16.0579L4.7519 12.1267L4.74462 12.1342L8.76179 16.0653ZM9.20589 15.6115L9.22045 15.5966L5.20328 11.6655L5.18872 11.6804L9.20589 15.6115ZM9.65727 15.1502L9.67183 15.1354L5.65466 11.2042L5.6401 11.2191L9.65727 15.1502ZM10.1086 14.689L10.1232 14.6741L6.10603 10.743L6.09147 10.7579L10.1086 14.689ZM10.56 14.2277L10.5746 14.2128L6.55741 10.2817L6.54285 10.2966L10.56 14.2277ZM11.0114 13.7665L11.0187 13.759L7.00151 9.8279L6.99423 9.83534L11.0114 13.7665ZM6.56331 10.411L6.55819 10.4201L11.4518 13.185L11.4569 13.1759L6.56331 10.411ZM6.25096 10.9639L6.24072 10.982L11.1343 13.7468L11.1445 13.7287L6.25096 10.9639ZM5.9335 11.5257L5.92326 11.5439L10.8168 14.3087L10.8271 14.2906L5.9335 11.5257ZM5.61604 12.0876L5.6058 12.1058L10.4994 14.8706L10.5096 14.8525L5.61604 12.0876ZM5.29857 12.6495L5.28833 12.6676L10.1819 15.4325L10.1921 15.4144L5.29857 12.6495ZM4.98111 13.2114L4.97599 13.2205L9.86956 15.9853L9.87468 15.9763L4.98111 13.2114ZM9.72065 16.2208L9.72664 16.2123L5.13089 12.9765L5.1249 12.985L9.72065 16.2208ZM10.0862 15.7016L10.0982 15.6846L5.50243 12.4488L5.49045 12.4658L10.0862 15.7016ZM10.4577 15.1739L10.4697 15.1569L5.87397 11.9211L5.86199 11.9381L10.4577 15.1739ZM10.8293 14.6462L10.8413 14.6292L6.24552 11.3934L6.23353 11.4104L10.8293 14.6462ZM11.2008 14.1186L11.2128 14.1015L6.61706 10.8657L6.60507 10.8827L11.2008 14.1186ZM11.5724 13.5909L11.5784 13.5824L6.98261 10.3465L6.97661 10.355L11.5724 13.5909ZM6.64362 10.9924L6.64002 11.0022L11.9137 12.9462L11.9173 12.9365L6.64362 10.9924ZM6.424 11.5882L6.4168 11.6077L11.6905 13.5518L11.6977 13.5322L6.424 11.5882ZM6.20078 12.1937L6.19358 12.2132L11.4673 14.1573L11.4745 14.1378L6.20078 12.1937ZM5.97756 12.7993L5.97036 12.8188L11.2441 14.7629L11.2513 14.7433L5.97756 12.7993ZM5.75434 13.4048L5.74714 13.4243L11.0209 15.3684L11.0281 15.3489L5.75434 13.4048ZM5.53112 14.0103L5.52752 14.0201L10.8012 15.9642L10.8048 15.9544L5.53112 14.0103ZM10.692 16.2205L10.6966 16.2111L5.64128 13.7544L5.63673 13.7638L10.692 16.2205ZM10.9696 15.6494L10.9787 15.6307L5.92336 13.1739L5.91426 13.1927L10.9696 15.6494ZM11.2516 15.0689L11.2607 15.0502L6.20545 12.5935L6.19635 12.6122L11.2516 15.0689ZM11.5337 14.4885L11.5428 14.4697L6.48753 12.013L6.47843 12.0318L11.5337 14.4885ZM11.8158 13.908L11.8249 13.8893L6.76961 11.4326L6.76051 11.4513L11.8158 13.908ZM12.0979 13.3276L12.1024 13.3182L7.04714 10.8615L7.0426 10.8708L12.0979 13.3276ZM6.81616 11.5534L6.81417 11.5636L12.3314 12.6365L12.3334 12.6263L6.81616 11.5534ZM6.69495 12.1767L6.69098 12.1971L12.2082 13.27L12.2122 13.2496L6.69495 12.1767ZM6.57175 12.8102L6.56778 12.8306L12.0851 13.9035L12.089 13.8831L6.57175 12.8102ZM6.44856 13.4437L6.44459 13.4641L11.9619 14.537L11.9658 14.5166L6.44856 13.4437ZM6.32536 14.0772L6.32139 14.0976L11.8387 15.1705L11.8426 15.1501L6.32536 14.0772ZM6.20217 14.7107L6.20018 14.7209L11.7175 15.7938L11.7194 15.7836L6.20217 14.7107ZM11.6508 16.0643L11.6538 16.0544L6.26985 14.4404L6.26686 14.4504L11.6508 16.0643ZM11.8331 15.4561L11.8391 15.4362L6.45517 13.8222L6.44919 13.8421L11.8331 15.4561ZM12.0184 14.8379L12.0244 14.818L6.64049 13.204L6.63451 13.224L12.0184 14.8379ZM12.2037 14.2197L12.2097 14.1998L6.8258 12.5858L6.81983 12.6058L12.2037 14.2197ZM12.3891 13.6015L12.395 13.5816L7.01112 11.9676L7.00514 11.9876L12.3891 13.6015ZM12.5744 12.9834L12.5774 12.9734L7.19345 11.3594L7.19046 11.3694L12.5744 12.9834ZM7.07644 12.0794L7.07612 12.0898L12.6941 12.2638L12.6944 12.2534L7.07644 12.0794ZM7.05679 12.7141L7.05614 12.7349L12.6741 12.9089L12.6747 12.8881L7.05679 12.7141ZM7.03681 13.3591L7.03616 13.3799L12.6541 13.5539L12.6547 13.5331L7.03681 13.3591ZM7.01683 14.0042L7.01618 14.025L12.6341 14.199L12.6348 14.1782L7.01683 14.0042ZM6.99685 14.6492L6.9962 14.67L12.6141 14.844L12.6148 14.8232L6.99685 14.6492ZM6.97687 15.2943L6.97655 15.3047L12.5945 15.4787L12.5948 15.4683L6.97687 15.2943ZM12.5721 15.7564L12.5734 15.7461L7.00032 15.0167L6.99897 15.027L12.5721 15.7564ZM12.6545 15.1268L12.6572 15.1062L7.08407 14.3767L7.08137 14.3974L12.6545 15.1268ZM12.7382 14.4869L12.7409 14.4663L7.16783 13.7368L7.16512 13.7575L12.7382 14.4869ZM12.822 13.847L12.8247 13.8264L7.25158 13.0969L7.24888 13.1176L12.822 13.847ZM12.9057 13.2071L12.9084 13.1864L7.33533 12.457L7.33263 12.4777L12.9057 13.2071ZM12.9895 12.5672L12.9908 12.5569L7.41774 11.8274L7.41639 11.8378L12.9895 12.5672ZM7.41774 12.5569L7.41909 12.5672L12.9922 11.8378L12.9908 11.8274L7.41774 12.5569ZM7.50014 13.1864L7.50284 13.2071L13.0759 12.4777L13.0732 12.457L7.50014 13.1864ZM7.58389 13.8264L7.5866 13.847L13.1597 13.1176L13.157 13.0969L7.58389 13.8264ZM7.66765 14.4663L7.67035 14.4869L13.2434 13.7575L13.2407 13.7368L7.66765 14.4663ZM7.7514 15.1062L7.7541 15.1268L13.3272 14.3974L13.3245 14.3767L7.7514 15.1062ZM7.83516 15.7461L7.83651 15.7564L13.4096 15.027L13.4083 15.0167L7.83516 15.7461ZM13.432 15.3047L13.4317 15.2943L7.81377 15.4683L7.81409 15.4787L13.432 15.3047ZM13.4124 14.67L13.4117 14.6492L7.79379 14.8232L7.79443 14.844L13.4124 14.67ZM13.3924 14.025L13.3917 14.0042L7.77381 14.1782L7.77445 14.199L13.3924 14.025ZM13.3724 13.3799L13.3718 13.3591L7.75383 13.5331L7.75447 13.5539L13.3724 13.3799ZM13.3524 12.7349L13.3518 12.7141L7.73385 12.8881L7.73449 12.9089L13.3524 12.7349ZM13.3324 12.0898L13.3321 12.0794L7.71419 12.2534L7.71452 12.2638L13.3324 12.0898ZM7.8312 12.9734L7.83419 12.9834L13.2181 11.3694L13.2151 11.3594L7.8312 12.9734ZM8.01353 13.5816L8.01951 13.6015L13.4034 11.9876L13.3974 11.9676L8.01353 13.5816ZM8.19885 14.1998L8.20483 14.2197L13.5887 12.6058L13.5828 12.5858L8.19885 14.1998ZM8.38417 14.818L8.39015 14.8379L13.7741 13.224L13.7681 13.204L8.38417 14.818ZM8.56949 15.4362L8.57546 15.4561L13.9594 13.8421L13.9534 13.8222L8.56949 15.4362ZM8.7548 16.0544L8.75779 16.0643L14.1417 14.4504L14.1387 14.4404L8.7548 16.0544ZM14.2084 14.7209L14.2064 14.7107L8.68913 15.7836L8.69112 15.7938L14.2084 14.7209ZM14.0872 14.0976L14.0832 14.0772L8.56593 15.1501L8.56991 15.1705L14.0872 14.0976ZM13.964 13.4641L13.96 13.4437L8.44274 14.5166L8.44671 14.537L13.964 13.4641ZM13.8408 12.8306L13.8368 12.8102L8.31954 13.8831L8.32352 13.9035L13.8408 12.8306ZM13.7176 12.1971L13.7136 12.1767L8.19635 13.2496L8.20032 13.27L13.7176 12.1971ZM13.5944 11.5636L13.5924 11.5534L8.07514 12.6263L8.07713 12.6365L13.5944 11.5636ZM8.30613 13.3182L8.31068 13.3276L13.366 10.8708L13.3614 10.8615L8.30613 13.3182ZM8.58366 13.8893L8.59276 13.908L13.6481 11.4513L13.639 11.4326L8.58366 13.8893ZM8.86574 14.4697L8.87484 14.4885L13.9301 12.0318L13.921 12.013L8.86574 14.4697ZM9.14783 15.0502L9.15693 15.0689L14.2122 12.6122L14.2031 12.5935L9.14783 15.0502ZM9.42991 15.6307L9.43901 15.6494L14.4943 13.1927L14.4852 13.1739L9.42991 15.6307ZM9.71199 16.2111L9.71654 16.2205L14.7718 13.7638L14.7673 13.7544L9.71199 16.2111ZM14.881 14.0201L14.8774 14.0103L9.60373 15.9544L9.60733 15.9642L14.881 14.0201ZM14.6614 13.4243L14.6542 13.4048L9.38051 15.3489L9.38771 15.3684L14.6614 13.4243ZM14.4382 12.8188L14.431 12.7993L9.15729 14.7433L9.16449 14.7629L14.4382 12.8188ZM14.215 12.2132L14.2078 12.1937L8.93407 14.1378L8.94127 14.1573L14.215 12.2132ZM13.9918 11.6077L13.9846 11.5882L8.71085 13.5322L8.71805 13.5518L13.9918 11.6077ZM13.7685 11.0022L13.7649 10.9924L8.49123 12.9365L8.49483 12.9462L13.7685 11.0022ZM8.83022 13.5824L8.83621 13.5909L13.432 10.355L13.426 10.3465L8.83022 13.5824ZM9.19576 14.1015L9.20775 14.1186L13.8035 10.8827L13.7915 10.8657L9.19576 14.1015ZM9.56731 14.6292L9.57929 14.6462L14.175 11.4104L14.1631 11.3934L9.56731 14.6292ZM9.93885 15.1569L9.95083 15.1739L14.5466 11.9381L14.5346 11.9211L9.93885 15.1569ZM10.3104 15.6846L10.3224 15.7016L14.9181 12.4658L14.9061 12.4488L10.3104 15.6846ZM10.6819 16.2123L10.6879 16.2208L15.2837 12.985L15.2777 12.9765L10.6819 16.2123ZM15.4326 13.2205L15.4275 13.2114L10.5339 15.9763L10.539 15.9853L15.4326 13.2205ZM15.1202 12.6676L15.11 12.6495L10.2164 15.4144L10.2267 15.4325L15.1202 12.6676ZM14.8028 12.1058L14.7925 12.0876L9.89896 14.8525L9.9092 14.8706L14.8028 12.1058ZM14.4853 11.5439L14.4751 11.5257L9.5815 14.2906L9.59174 14.3087L14.4853 11.5439ZM14.1678 10.982L14.1576 10.9639L9.26403 13.7287L9.27428 13.7468L14.1678 10.982ZM13.8504 10.4201L13.8453 10.411L8.95169 13.1759L8.95681 13.185L13.8504 10.4201ZM9.38989 13.759L9.39717 13.7665L13.4143 9.83534L13.4071 9.8279L9.38989 13.759ZM9.83399 14.2128L9.84855 14.2277L13.8657 10.2966L13.8512 10.2817L9.83399 14.2128ZM10.2854 14.6741L10.2999 14.689L14.3171 10.7579L14.3025 10.743L10.2854 14.6741ZM10.7367 15.1354L10.7513 15.1502L14.7685 11.2191L14.7539 11.2042L10.7367 15.1354ZM11.1881 15.5966L11.2027 15.6115L15.2199 11.6804L15.2053 11.6655L11.1881 15.5966ZM11.6395 16.0579L11.6468 16.0653L15.6639 12.1342L15.6567 12.1267L11.6395 16.0579ZM15.8487 12.3427L15.8422 12.3346L11.4555 15.8486L11.462 15.8568L15.8487 12.3427ZM15.4517 11.8472L15.4387 11.8309L11.052 15.345L11.065 15.3612L15.4517 11.8472ZM15.0482 11.3435L15.0352 11.3272L10.6485 14.8413L10.6616 14.8575L15.0482 11.3435ZM14.6448 10.8398L14.6317 10.8236L10.2451 14.3376L10.2581 14.3538L14.6448 10.8398ZM14.2413 10.3361L14.2283 10.3199L9.84157 13.8339L9.85459 13.8501L14.2413 10.3361ZM13.8378 9.83243L13.8313 9.82431L9.44459 13.3383L9.4511 13.3465L13.8378 9.83243ZM9.97066 13.8436L9.97904 13.8498L13.3136 9.32519L13.3052 9.31901L9.97066 13.8436ZM10.4818 14.2203L10.4986 14.2327L13.8331 9.70806L13.8164 9.69571L10.4818 14.2203ZM11.0013 14.6032L11.0181 14.6156L14.3526 10.0909L14.3359 10.0786L11.0013 14.6032ZM11.5208 14.9861L11.5376 14.9984L14.8722 10.4738L14.8554 10.4615L11.5208 14.9861ZM12.0404 15.369L12.0571 15.3813L15.3917 10.8567L15.3749 10.8443L12.0404 15.369ZM12.5599 15.7518L12.5683 15.758L15.9028 11.2334L15.8944 11.2272L12.5599 15.7518ZM16.1186 11.4096L16.1109 11.4026L12.3447 15.5748L12.3525 15.5818L16.1186 11.4096ZM15.6473 10.9841L15.6319 10.9702L11.8657 15.1424L11.8811 15.1563L15.6473 10.9841ZM15.1683 10.5517L15.1528 10.5378L11.3866 14.71L11.4021 14.7239L15.1683 10.5517ZM14.6892 10.1193L14.6737 10.1053L10.9076 14.2775L10.923 14.2915L14.6892 10.1193ZM14.2101 9.68683L14.1947 9.67288L10.4285 13.8451L10.444 13.859L14.2101 9.68683ZM13.7311 9.25439L13.7234 9.24742L9.95717 13.4196L9.96489 13.4266L13.7311 9.25439ZM10.5575 13.834L10.5667 13.8387L13.1323 8.8378L13.123 8.83305L10.5575 13.834ZM11.1224 14.1238L11.141 14.1333L13.7065 9.13239L13.688 9.12288L11.1224 14.1238ZM11.6966 14.4184L11.7152 14.4279L14.2807 9.42697L14.2622 9.41746L11.6966 14.4184ZM12.2709 14.713L12.2894 14.7225L14.8549 9.72155L14.8364 9.71205L12.2709 14.713ZM12.8451 15.0076L12.8636 15.0171L15.4292 10.0161L15.4106 10.0066L12.8451 15.0076ZM13.4193 15.3021L13.4285 15.3069L15.9941 10.306L15.9849 10.3012L13.4193 15.3021ZM16.2354 10.4453L16.2267 10.4396L13.1785 15.1619L13.1873 15.1676L16.2354 10.4453ZM15.7019 10.1009L15.6844 10.0896L12.6363 14.8119L12.6538 14.8232L15.7019 10.1009ZM15.1597 9.75093L15.1422 9.73964L12.0941 14.462L12.1116 14.4732L15.1597 9.75093ZM14.6175 9.40094L14.6 9.38965L11.5518 14.112L11.5693 14.1233L14.6175 9.40094ZM14.0753 9.05095L14.0578 9.03966L11.0096 13.762L11.0271 13.7733L14.0753 9.05095ZM13.533 8.70095L13.5243 8.69531L10.4761 13.4176L10.4849 13.4233L13.533 8.70095ZM11.1351 13.7303L11.1451 13.7335L12.8752 8.38581L12.8653 8.38261L11.1351 13.7303ZM11.7393 13.9258L11.7591 13.9322L13.4892 8.58447L13.4694 8.57806L11.7393 13.9258ZM12.3533 14.1244L12.3731 14.1308L14.1033 8.78313L14.0834 8.77672L12.3533 14.1244ZM12.9673 14.3231L12.9871 14.3295L14.7173 8.98178L14.6975 8.97537L12.9673 14.3231ZM13.5814 14.5217L13.6012 14.5282L15.3313 9.18044L15.3115 9.17403L13.5814 14.5217ZM14.1954 14.7204L14.2053 14.7236L15.9354 9.37589L15.9255 9.37269L14.1954 14.7204ZM16.196 9.47469L16.1864 9.47052L13.9353 14.6206L13.9448 14.6248L16.196 9.47469ZM15.6142 9.22038L15.5951 9.21204L13.3439 14.3622L13.363 14.3705L15.6142 9.22038ZM15.0228 8.9619L15.0037 8.95356L12.7526 14.1037L12.7716 14.112L15.0228 8.9619ZM14.4315 8.70342L14.4124 8.69508L12.1612 13.8452L12.1803 13.8535L14.4315 8.70342ZM13.8401 8.44493L13.821 8.4366L11.5699 13.5867L11.589 13.5951L13.8401 8.44493ZM13.2488 8.18645L13.2392 8.18228L10.9881 13.3324L10.9976 13.3366L13.2488 8.18645ZM11.6887 13.5353L11.699 13.5369L12.5489 7.98092L12.5386 7.97934L11.6887 13.5353ZM12.3164 13.6314L12.3369 13.6345L13.1868 8.0785L13.1663 8.07536L12.3164 13.6314ZM12.9543 13.7289L12.9749 13.7321L13.8248 8.17609L13.8042 8.17294L12.9543 13.7289ZM13.5923 13.8265L13.6128 13.8297L14.4627 8.27368L14.4422 8.27053L13.5923 13.8265ZM14.2302 13.9241L14.2508 13.9273L15.1007 8.37126L15.0801 8.36812L14.2302 13.9241ZM14.8682 14.0217L14.8784 14.0233L15.7283 8.46728L15.7181 8.4657L14.8682 14.0217ZM16.0013 8.52301L15.9912 8.52042L14.5954 13.965L14.6055 13.9675L16.0013 8.52301ZM15.3863 8.36532L15.3661 8.36015L13.9702 13.8047L13.9904 13.8099L15.3863 8.36532ZM14.7611 8.20504L14.741 8.19987L13.3451 13.6444L13.3652 13.6496L14.7611 8.20504ZM14.136 8.04476L14.1158 8.03959L12.7199 13.4841L12.7401 13.4893L14.136 8.04476ZM13.5108 7.88449L13.4907 7.87932L12.0948 13.3239L12.1149 13.329L13.5108 7.88449ZM12.8857 7.72421L12.8756 7.72163L11.4797 13.1662L11.4898 13.1687L12.8857 7.72421ZM12.2038 13.2541L12.2142 13.254L12.1619 7.63361L12.1515 7.6337L12.2038 13.2541ZM12.8388 13.2482L12.8596 13.248L12.8072 7.6276L12.7864 7.62779L12.8388 13.2482ZM13.4841 13.2422L13.5049 13.242L13.4526 7.62158L13.4317 7.62178L13.4841 13.2422ZM14.1294 13.2362L14.1503 13.236L14.0979 7.61557L14.0771 7.61577L14.1294 13.2362ZM14.7748 13.2301L14.7956 13.2299L14.7432 7.60956L14.7224 7.60976L14.7748 13.2301ZM15.4201 13.2241L15.4305 13.224L15.3782 7.60365L15.3678 7.60375L15.4201 13.2241ZM15.6566 7.61487L15.6462 7.61393L15.1418 13.2119L15.1521 13.2128L15.6566 7.61487ZM15.0242 7.55788L15.0034 7.55601L14.499 13.154L14.5197 13.1558L15.0242 7.55788ZM14.3814 7.49996L14.3607 7.49809L13.8562 13.096L13.877 13.0979L14.3814 7.49996ZM13.7386 7.44204L13.7179 7.44017L13.2135 13.0381L13.2342 13.04L13.7386 7.44204ZM13.0959 7.38412L13.0751 7.38225L12.5707 12.9802L12.5914 12.9821L13.0959 7.38412ZM12.4531 7.3262L12.4427 7.32527L11.9383 12.9232L11.9487 12.9241L12.4531 7.3262ZM12.6672 12.8938L12.6774 12.8921L11.7242 7.35287L11.7139 7.35464L12.6672 12.8938ZM13.2929 12.7862L13.3134 12.7826L12.3602 7.24342L12.3397 7.24695L13.2929 12.7862ZM13.9289 12.6767L13.9495 12.6732L12.9962 7.13397L12.9757 7.1375L13.9289 12.6767ZM14.565 12.5673L14.5855 12.5637L13.6322 7.02452L13.6117 7.02805L14.565 12.5673ZM15.201 12.4578L15.2215 12.4543L14.2682 6.91506L14.2477 6.91859L15.201 12.4578ZM15.837 12.3483L15.8472 12.3466L14.894 6.80738L14.8837 6.80914L15.837 12.3483ZM15.1706 6.77379L15.1602 6.77453L15.5603 12.3809L15.5707 12.3802L15.1706 6.77379ZM14.5372 6.81899L14.5165 6.82047L14.9165 12.4268L14.9373 12.4254L14.5372 6.81899ZM13.8935 6.86492L13.8727 6.86641L14.2728 12.4728L14.2936 12.4713L13.8935 6.86492ZM13.2498 6.91086L13.229 6.91234L13.6291 12.5187L13.6499 12.5172L13.2498 6.91086ZM12.606 6.9568L12.5853 6.95828L12.9854 12.5647L13.0061 12.5632L12.606 6.9568ZM11.9623 7.00274L11.9519 7.00348L12.352 12.6098L12.3624 12.6091L11.9623 7.00274ZM13.0667 12.4639L13.0765 12.4606L11.2471 7.14599L11.2372 7.14938L13.0667 12.4639ZM13.6671 12.2573L13.6868 12.2505L11.8573 6.93593L11.8376 6.94271L13.6671 12.2573ZM14.2773 12.0472L14.297 12.0404L12.4675 6.72587L12.4479 6.73265L14.2773 12.0472ZM14.8875 11.8372L14.9072 11.8304L13.0778 6.51581L13.0581 6.52259L14.8875 11.8372ZM15.4978 11.6271L15.5174 11.6203L13.688 6.30575L13.6683 6.31253L15.4978 11.6271ZM16.108 11.417L16.1178 11.4136L14.2884 6.09908L14.2785 6.10247L16.108 11.417ZM14.556 6.02157L14.5459 6.02396L15.8401 11.4936L15.8502 11.4912L14.556 6.02157ZM13.9381 6.16777L13.9178 6.17257L15.212 11.6422L15.2323 11.6374L13.9381 6.16777ZM13.3101 6.31638L13.2898 6.32117L14.584 11.7908L14.6043 11.786L13.3101 6.31638ZM12.682 6.46498L12.6618 6.46977L13.956 11.9394L13.9763 11.9346L12.682 6.46498ZM12.054 6.61358L12.0338 6.61838L13.328 12.088L13.3482 12.0832L12.054 6.61358ZM11.426 6.76219L11.4159 6.76458L12.7101 12.2342L12.7202 12.2318L11.426 6.76219ZM13.3921 11.9755L13.4013 11.9706L10.743 7.01832L10.7338 7.02324L13.3921 11.9755ZM13.9516 11.6752L13.9699 11.6654L11.3116 6.71309L11.2933 6.72294L13.9516 11.6752ZM14.5202 11.37L14.5385 11.3601L11.8803 6.40787L11.8619 6.41771L14.5202 11.37ZM15.0888 11.0648L15.1072 11.0549L12.4489 6.10264L12.4305 6.11249L15.0888 11.0648ZM15.6574 10.7595L15.6758 10.7497L13.0175 5.79741L12.9992 5.80726L15.6574 10.7595ZM16.2261 10.4543L16.2352 10.4494L13.577 5.49711L13.5678 5.50203L16.2261 10.4543ZM13.8287 5.37767L13.8191 5.38166L15.9739 10.5728L15.9835 10.5688L13.8287 5.37767ZM13.2422 5.6211L13.223 5.62908L15.3778 10.8202L15.3971 10.8123L13.2422 5.6211ZM12.6462 5.86852L12.627 5.8765L14.7818 11.0677L14.801 11.0597L12.6462 5.86852ZM12.0501 6.11594L12.0309 6.12392L14.1857 11.3151L14.205 11.3071L12.0501 6.11594ZM11.4541 6.36336L11.4348 6.37135L13.5897 11.5625L13.6089 11.5545L11.4541 6.36336ZM10.858 6.61079L10.8484 6.61478L13.0032 11.8059L13.0129 11.8019L10.858 6.61079ZM13.6349 11.4412L13.6432 11.4349L10.225 6.97316L10.2167 6.97949L13.6349 11.4412ZM14.139 11.0551L14.1555 11.0424L10.7373 6.58067L10.7207 6.59333L14.139 11.0551ZM14.6513 10.6626L14.6678 10.6499L11.2496 6.18818L11.233 6.20085L14.6513 10.6626ZM15.1636 10.2701L15.1801 10.2574L11.7619 5.7957L11.7453 5.80836L15.1636 10.2701ZM15.6759 9.8776L15.6924 9.86494L12.2742 5.40321L12.2576 5.41587L15.6759 9.8776ZM16.1882 9.48511L16.1965 9.47878L12.7782 5.01705L12.7699 5.02338L16.1882 9.48511ZM13.0075 4.85878L12.9986 4.86426L15.9583 9.64253L15.9672 9.63705L13.0075 4.85878ZM12.4677 5.19313L12.45 5.20409L15.4097 9.98236L15.4274 9.9714L12.4677 5.19313ZM11.9191 5.53296L11.9014 5.54392L14.861 10.3222L14.8787 10.3112L11.9191 5.53296ZM11.3704 5.87279L11.3527 5.88375L14.3124 10.662L14.3301 10.6511L11.3704 5.87279ZM10.8218 6.21262L10.8041 6.22359L13.7637 11.0019L13.7814 10.9909L10.8218 6.21262ZM10.2731 6.55245L10.2643 6.55794L13.2239 11.3362L13.2328 11.3307L10.2731 6.55245ZM13.7889 10.8749L13.7961 10.8673L9.70638 7.01169L9.69924 7.01926L13.7889 10.8749ZM14.2245 10.4129L14.2388 10.3977L10.1491 6.5421L10.1348 6.55725L14.2245 10.4129ZM14.6672 9.94329L14.6815 9.92814L10.5918 6.07252L10.5775 6.08767L14.6672 9.94329ZM15.1099 9.4737L15.1242 9.45856L11.0345 5.60293L11.0202 5.61808L15.1099 9.4737ZM15.5526 9.00412L15.5669 8.98897L11.4772 5.13335L11.4629 5.1485L15.5526 9.00412ZM15.9953 8.53453L16.0025 8.52696L11.9128 4.67134L11.9056 4.67891L15.9953 8.53453ZM12.1137 4.47833L12.1059 4.48516L15.7937 8.7268L15.8015 8.71997L12.1137 4.47833ZM11.6345 4.89494L11.6188 4.9086L15.3067 9.15024L15.3224 9.13658L11.6345 4.89494ZM11.1475 5.31838L11.1318 5.33204L14.8196 9.57368L14.8353 9.56002L11.1475 5.31838ZM10.6605 5.74182L10.6448 5.75548L14.3326 9.99712L14.3483 9.98346L10.6605 5.74182ZM10.1735 6.16526L10.1577 6.17892L13.8456 10.4206L13.8613 10.4069L10.1735 6.16526ZM9.68643 6.5887L9.67857 6.59553L13.3664 10.8372L13.3742 10.8303L9.68643 6.5887ZM13.8501 10.2912L13.8559 10.2826L9.2007 7.1329L9.19487 7.14152L13.8501 10.2912ZM14.2059 9.76528L14.2176 9.74804L9.56235 6.59838L9.55068 6.61562L14.2059 9.76528ZM14.5676 9.23076L14.5792 9.21352L9.924 6.06386L9.91233 6.0811L14.5676 9.23076ZM14.9292 8.69625L14.9409 8.679L10.2856 5.52934L10.274 5.54659L14.9292 8.69625ZM15.2908 8.16173L15.3025 8.14448L10.6473 4.99483L10.6356 5.01207L15.2908 8.16173ZM15.6525 7.62721L15.6583 7.61859L11.0031 4.46893L10.9973 4.47755L15.6525 7.62721ZM11.1705 4.24619L11.1638 4.25419L15.4843 7.84933L15.491 7.84133L11.1705 4.24619ZM10.7643 4.73427L10.751 4.75027L15.0715 8.34541L15.0848 8.32941L10.7643 4.73427ZM10.3515 5.23035L10.3382 5.24635L14.6587 8.84149L14.672 8.82549L10.3515 5.23035ZM9.93875 5.72643L9.92543 5.74243L14.2459 9.33757L14.2592 9.32157L9.93875 5.72643ZM9.52595 6.22251L9.51263 6.23852L13.8331 9.83365L13.8464 9.81765L9.52595 6.22251ZM9.11315 6.7186L9.10649 6.7266L13.427 10.3217L13.4336 10.3137L9.11315 6.7186ZM13.8168 9.70523L13.8212 9.69578L8.72101 7.33366L8.71664 7.3431L13.8168 9.70523ZM14.0837 9.12906L14.0924 9.11017L8.99223 6.74805L8.98348 6.76694L14.0837 9.12906ZM14.3549 8.54345L14.3636 8.52456L9.26346 6.16244L9.25471 6.18133L14.3549 8.54345ZM14.6261 7.95784L14.6349 7.93895L9.53468 5.57683L9.52593 5.59572L14.6261 7.95784ZM14.8973 7.37223L14.9061 7.35334L9.8059 4.99122L9.79715 5.01011L14.8973 7.37223ZM15.1686 6.78662L15.1729 6.77718L10.0727 4.41506L10.0684 4.4245L15.1686 6.78662ZM10.2022 4.16836L10.1969 4.17732L15.0382 7.03285L15.0434 7.02388L10.2022 4.16836ZM9.87964 4.71526L9.86906 4.7332L14.7103 7.58872L14.7209 7.57079L9.87964 4.71526ZM9.55176 5.27114L9.54119 5.28907L14.3824 8.1446L14.393 8.12667L9.55176 5.27114ZM9.22389 5.82701L9.21331 5.84495L14.0545 8.70047L14.0651 8.68254L9.22389 5.82701ZM8.89601 6.38289L8.88544 6.40082L13.7267 9.25635L13.7372 9.23842L8.89601 6.38289ZM8.56814 6.93876L8.56285 6.94773L13.4041 9.80326L13.4094 9.79429L8.56814 6.93876ZM13.69 9.1322L13.6928 9.12217L8.27974 7.60877L8.27694 7.61879L13.69 9.1322ZM13.861 8.52069L13.8666 8.50064L8.45351 6.98723L8.44791 7.00728L13.861 8.52069ZM14.0347 7.89916L14.0403 7.87911L8.62728 6.3657L8.62168 6.38575L14.0347 7.89916ZM14.2085 7.27762L14.2141 7.25757L8.80105 5.74417L8.79545 5.76422L14.2085 7.27762ZM14.3823 6.65609L14.3879 6.63604L8.97482 5.12264L8.96922 5.14269L14.3823 6.65609ZM14.556 6.03456L14.5588 6.02453L9.14579 4.51113L9.14299 4.52115L14.556 6.03456ZM9.23402 4.24685L9.23024 4.25655L14.4668 6.29851L14.4706 6.28881L9.23402 4.24685ZM9.00334 4.83842L8.99578 4.85782L14.2324 6.89978L14.2399 6.88039L9.00334 4.83842ZM8.76888 5.43969L8.76132 5.45909L13.9979 7.50105L14.0055 7.48166L8.76888 5.43969ZM8.53442 6.04097L8.52686 6.06036L13.7634 8.10233L13.771 8.08293L8.53442 6.04097ZM8.29996 6.64224L8.2924 6.66163L13.529 8.7036L13.5365 8.6842L8.29996 6.64224ZM8.0655 7.24351L8.06172 7.25321L13.2983 9.29517L13.3021 9.28547L8.0655 7.24351ZM13.4729 8.58694L13.474 8.57659L7.88831 7.9511L7.88715 7.96144L13.4729 8.58694ZM13.5435 7.95592L13.5458 7.93523L7.96013 7.30974L7.95781 7.33043L13.5435 7.95592ZM13.6153 7.31456L13.6177 7.29387L8.03195 6.66838L8.02963 6.68907L13.6153 7.31456ZM13.6872 6.6732L13.6895 6.65251L8.10377 6.02702L8.10145 6.04771L13.6872 6.6732ZM13.759 6.03184L13.7613 6.01116L8.17559 5.38566L8.17327 5.40635L13.759 6.03184ZM13.8308 5.39049L13.832 5.38014L8.24625 4.75465L8.24509 4.76499L13.8308 5.39049ZM8.29095 4.47964L8.28877 4.48982L13.7851 5.66533L13.7873 5.65515L8.29095 4.47964ZM8.15815 5.10055L8.1538 5.12091L13.6501 6.29643L13.6545 6.27607L8.15815 5.10055ZM8.02318 5.73165L8.01882 5.75201L13.5151 6.92752L13.5195 6.90716L8.02318 5.73165ZM7.8882 6.36274L7.88385 6.3831L13.3802 7.55862L13.3845 7.53826L7.8882 6.36274ZM7.75323 6.99384L7.74887 7.0142L13.2452 8.18971L13.2496 8.16935L7.75323 6.99384ZM7.61825 7.62494L7.61608 7.63511L13.1124 8.81063L13.1146 8.80045L7.61825 7.62494ZM13.1711 8.08356L13.1706 8.07317L7.55687 8.35178L7.55738 8.36218L13.1711 8.08356ZM13.1396 7.44938L13.1386 7.42859L7.52488 7.70721L7.52591 7.728L13.1396 7.44938ZM13.1076 6.80481L13.1066 6.78402L7.49288 7.06264L7.49392 7.08343L13.1076 6.80481ZM13.0756 6.16024L13.0746 6.13944L7.46089 6.41806L7.46192 6.43885L13.0756 6.16024ZM13.0437 5.51566L13.0426 5.49487L7.4289 5.77349L7.42993 5.79428L13.0437 5.51566ZM13.0117 4.87109L13.0111 4.86069L7.39743 5.13931L7.39794 5.14971L13.0117 4.87109ZM10.2043 5L15.818 4.72138L4.59057 4.72138L10.2043 5ZM10.3642 8.22287L4.75052 8.50149L15.8606 9.39838L10.3642 8.22287ZM11.0391 5.06739L16.6248 5.69289L5.54278 3.89188L11.0391 5.06739ZM10.68 8.27419L5.0943 7.64869L15.9166 10.3162L10.68 8.27419ZM11.8523 5.26783L17.2654 6.78124L6.61573 3.22587L11.8523 5.26783ZM10.9835 8.37549L5.57041 6.86209L15.8247 11.231L10.9835 8.37549ZM12.6228 5.59612L17.723 7.95824L7.78162 2.74059L12.6228 5.59612ZM11.2667 8.52417L6.16655 6.16204L15.5872 12.1193L11.2667 8.52417ZM13.3307 6.04376L17.9859 9.19342L9.01025 2.44862L13.3307 6.04376ZM11.5225 8.71635L6.86726 5.56669L15.2103 12.958L11.5225 8.71635ZM13.9576 6.59915L18.0473 10.4548L10.2698 2.35752L13.9576 6.59915ZM11.7441 8.94707L7.65439 5.09145L14.7037 13.7253L11.7441 8.94707ZM14.4873 7.24791L17.9056 11.7096L11.5277 2.46964L14.4873 7.24791ZM11.9258 9.21035L8.50757 4.74863L14.0807 14.4015L11.9258 9.21035ZM14.9061 7.97325L17.5644 12.9255L12.7513 2.78209L14.9061 7.97325ZM12.063 9.49938L9.40469 4.54711L13.3572 14.969L12.063 9.49938ZM15.2031 8.75636L17.0325 14.0709L13.9089 3.28677L15.2031 8.75636ZM12.152 9.80666L10.3225 4.4921L12.552 15.413L12.152 9.80666ZM15.3706 9.57698L16.3239 15.1162L14.9706 3.97061L15.3706 9.57698ZM12.1905 10.1242L11.2373 4.58504L11.6861 15.7222L12.1905 10.1242ZM15.4043 10.4138L15.4567 16.0342L15.9088 4.81589L15.4043 10.4138ZM12.1777 10.4439L12.1253 4.82351L10.7818 15.8884L12.1777 10.4439ZM15.3034 11.2453L14.4535 16.8013L16.6993 5.80074L15.3034 11.2453ZM12.1137 10.7573L12.9636 5.20134L9.8625 15.9075L12.1137 10.7573ZM15.0704 12.0497L13.3402 17.3975L17.3215 6.89963L15.0704 12.0497ZM12.0002 11.0565L13.7304 5.70875L8.95207 15.7788L12.0002 11.0565ZM14.7113 12.8064L12.1458 17.8074L17.7595 8.08411L14.7113 12.8064ZM11.8403 11.3335L14.4058 6.33259L8.07407 15.5057L11.8403 11.3335ZM14.2355 13.4957L10.901 18.0203L18.0017 9.32351L14.2355 13.4957ZM11.6379 11.5813L14.9725 7.0567L7.25125 15.0954L11.6379 11.5813ZM13.6554 14.0997L9.63819 18.0309L18.042 10.5857L13.6554 14.0997ZM11.3985 11.7935L15.4156 7.86233L6.50491 14.5583L11.3985 11.7935ZM12.9858 14.6029L8.39005 17.8387L17.8794 11.838L12.9858 14.6029ZM11.1281 11.9644L15.7238 8.72862L5.85438 13.9085L11.1281 11.9644ZM12.2442 14.9921L7.18889 17.4488L17.5179 13.0481L12.2442 14.9921ZM10.8338 12.0898L15.8891 9.63313L5.31651 13.1628L10.8338 12.0898ZM11.4498 15.2573L6.06584 16.8713L16.967 14.1844L11.4498 15.2573ZM10.5232 12.1664L15.9071 10.5524L4.90523 12.3404L10.5232 12.1664ZM10.6231 15.3917L5.04996 16.1211L16.241 15.2177L10.6231 15.3917ZM10.2043 12.1921L15.7774 11.4627L4.63119 11.4627L10.2043 12.1921ZM9.78551 15.3917L4.16758 15.2177L15.3586 16.1211L9.78551 15.3917ZM9.88541 12.1664L15.5033 12.3404L4.50149 10.5524L9.88541 12.1664ZM8.95882 15.2573L3.44155 14.1844L14.3427 16.8713L8.95882 15.2573ZM9.57479 12.0898L15.0921 13.1628L4.5195 9.63313L9.57479 12.0898ZM8.16438 14.9921L2.89067 13.0481L13.2197 17.4488L8.16438 14.9921ZM9.28048 11.9644L14.5542 13.9085L4.68473 8.72862L9.28048 11.9644ZM7.42277 14.6029L2.5292 11.838L12.0185 17.8387L7.42277 14.6029ZM9.01009 11.7935L13.9037 14.5583L4.99292 7.86233L9.01009 11.7935ZM6.75321 14.0997L2.36652 10.5857L10.7704 18.0309L6.75321 14.0997ZM8.77064 11.5813L13.1573 15.0954L5.43608 7.0567L8.77064 11.5813ZM6.17302 13.4957L2.40683 9.32351L9.50757 18.0203L6.17302 13.4957ZM8.56831 11.3335L12.3345 15.5057L6.00274 6.33259L8.56831 11.3335ZM5.69724 12.8064L2.64909 8.08411L8.26281 17.8074L5.69724 12.8064ZM8.40835 11.0565L11.4565 15.7788L6.67821 5.70875L8.40835 11.0565ZM5.33819 12.0497L3.08703 6.89963L7.06833 17.3975L5.33819 12.0497ZM8.29491 10.7573L10.5461 15.9075L7.44501 5.20134L8.29491 10.7573ZM5.10518 11.2453L3.7093 5.80074L5.95508 16.8013L5.10518 11.2453ZM8.23092 10.4439L9.62679 15.8884L8.28327 4.82351L8.23092 10.4439ZM5.00422 10.4138L4.49979 4.81589L4.95187 16.0342L5.00422 10.4138ZM8.21804 10.1242L8.72247 15.7222L9.17128 4.58504L8.21804 10.1242ZM5.03795 9.57698L5.43802 3.97061L4.0847 15.1162L5.03795 9.57698ZM8.2566 9.80666L7.85653 15.413L10.086 4.4921L8.2566 9.80666ZM5.20547 8.75636L6.49969 3.28677L3.37602 14.0709L5.20547 8.75636ZM8.3456 9.49938L7.05139 14.969L11.0039 4.54711L8.3456 9.49938ZM5.50247 7.97325L7.65731 2.78209L2.8442 12.9255L5.50247 7.97325ZM8.48275 9.21035L6.32791 14.4015L11.901 4.74863L8.48275 9.21035ZM5.92124 7.24791L8.8809 2.46964L2.50299 11.7096L5.92124 7.24791ZM8.66448 8.94707L5.70482 13.7253L12.7542 5.09145L8.66448 8.94707ZM6.45094 6.59915L10.1388 2.35752L2.36124 10.4548L6.45094 6.59915ZM8.88609 8.71635L5.19827 12.958L13.5413 5.56669L8.88609 8.71635ZM7.07785 6.04376L11.3983 2.44862L2.42263 9.19342L7.07785 6.04376ZM9.14184 8.52417L4.82137 12.1193L14.242 6.16204L9.14184 8.52417ZM7.78573 5.59612L12.627 2.74059L2.68555 7.95824L7.78573 5.59612ZM9.42511 8.37549L4.58389 11.231L14.8382 6.86209L9.42511 8.37549ZM8.55625 5.26783L13.7928 3.22587L3.14321 6.78124L8.55625 5.26783ZM9.72856 8.27419L4.49197 10.3162L15.3143 7.64869L9.72856 8.27419ZM9.36946 5.06739L14.8658 3.89188L3.78374 5.69289L9.36946 5.06739ZM10.0443 8.22287L4.548 9.39838L15.658 8.50149L10.0443 8.22287ZM4.59057 4.72138L4.59005 4.73178L15.8175 5.28901L15.818 5.27862L4.59057 4.72138ZM4.55909 5.35556L4.55806 5.37635L15.7855 5.93359L15.7865 5.9128L4.55909 5.35556ZM4.5271 6.00013L4.52607 6.02093L15.7535 6.57816L15.7545 6.55737L4.5271 6.00013ZM4.49511 6.64471L4.49408 6.6655L15.7215 7.22274L15.7225 7.20194L4.49511 6.64471ZM4.46312 7.28928L4.46209 7.31007L15.6895 7.86731L15.6906 7.84652L4.46312 7.28928ZM4.43113 7.93386L4.43061 7.94425L15.658 8.50149L15.6586 8.49109L4.43113 7.93386ZM15.5407 7.04736L15.5385 7.03718L4.54582 9.38821L4.548 9.39838L15.5407 7.04736ZM15.4079 6.42644L15.4035 6.40608L4.41085 8.75711L4.4152 8.77747L15.4079 6.42644ZM15.2729 5.79535L15.2685 5.77499L4.27588 8.12601L4.28023 8.14637L15.2729 5.79535ZM15.1379 5.16425L15.1336 5.14389L4.1409 7.49492L4.14526 7.51528L15.1379 5.16425ZM15.0029 4.53316L14.9986 4.5128L4.00593 6.86382L4.01028 6.88418L15.0029 4.53316ZM14.868 3.90206L14.8658 3.89188L3.87313 6.24291L3.87531 6.25309L14.868 3.90206ZM3.78374 5.69289L3.7849 5.70323L14.9563 4.45225L14.9552 4.4419L3.78374 5.69289ZM3.85441 6.3239L3.85672 6.34459L15.0282 5.0936L15.0258 5.07291L3.85441 6.3239ZM3.92623 6.96526L3.92854 6.98595L15.1 5.73496L15.0977 5.71427L3.92623 6.96526ZM3.99805 7.60662L4.00036 7.62731L15.1718 6.37632L15.1695 6.35563L3.99805 7.60662ZM4.06987 8.24798L4.07218 8.26867L15.2436 7.01768L15.2413 6.99699L4.06987 8.24798ZM4.14169 8.88934L4.14284 8.89968L15.3143 7.64869L15.3131 7.63835L4.14169 8.88934ZM14.9651 6.23222L14.9614 6.22253L4.48819 10.3065L4.49197 10.3162L14.9651 6.23222ZM14.7345 5.64065L14.7269 5.62126L4.25373 9.70518L4.26129 9.72458L14.7345 5.64065ZM14.5 5.03938L14.4924 5.01998L4.01927 9.10391L4.02683 9.12331L14.5 5.03938ZM14.2655 4.43811L14.258 4.41871L3.78481 8.50264L3.79237 8.52204L14.2655 4.43811ZM14.0311 3.83684L14.0235 3.81744L3.55035 7.90137L3.55791 7.92076L14.0311 3.83684ZM13.7966 3.23557L13.7928 3.22587L3.31967 7.30979L3.32345 7.31949L13.7966 3.23557ZM3.14321 6.78124L3.14601 6.79126L13.9721 3.76445L13.9693 3.75443L3.14321 6.78124ZM3.31418 7.39274L3.31978 7.41279L14.1459 4.38598L14.1403 4.36593L3.31418 7.39274ZM3.48795 8.01428L3.49355 8.03433L14.3196 5.00752L14.314 4.98747L3.48795 8.01428ZM3.66172 8.63581L3.66733 8.65586L14.4934 5.62905L14.4878 5.609L3.66172 8.63581ZM3.83549 9.25734L3.8411 9.27739L14.6672 6.25058L14.6616 6.23053L3.83549 9.25734ZM4.00926 9.87887L4.01206 9.8889L14.8382 6.86209L14.8354 6.85206L4.00926 9.87887ZM14.2663 5.51997L14.261 5.511L4.5786 11.2221L4.58389 11.231L14.2663 5.51997ZM13.9437 4.97306L13.9332 4.95513L4.25073 10.6662L4.2613 10.6841L13.9437 4.97306ZM13.6159 4.41718L13.6053 4.39925L3.92285 10.1103L3.93343 10.1282L13.6159 4.41718ZM13.288 3.86131L13.2774 3.84338L3.59498 9.55443L3.60555 9.57236L13.288 3.86131ZM12.9601 3.30543L12.9495 3.2875L3.2671 8.99856L3.27768 9.01649L12.9601 3.30543ZM12.6322 2.74956L12.627 2.74059L2.94451 8.45165L2.9498 8.46061L12.6322 2.74956ZM2.68555 7.95824L2.68993 7.96769L12.8903 3.24344L12.8859 3.234L2.68555 7.95824ZM2.9524 8.5344L2.96115 8.55329L13.1615 3.82905L13.1528 3.81016L2.9524 8.5344ZM3.22362 9.12001L3.23237 9.1389L13.4327 4.41466L13.424 4.39577L3.22362 9.12001ZM3.49484 9.70562L3.50359 9.72451L13.704 5.00027L13.6952 4.98138L3.49484 9.70562ZM3.76606 10.2912L3.77481 10.3101L13.9752 5.58588L13.9664 5.56699L3.76606 10.2912ZM4.03729 10.8768L4.04166 10.8863L14.242 6.16204L14.2376 6.1526L4.03729 10.8768ZM13.4623 4.92903L13.4557 4.92103L4.81472 12.1113L4.82137 12.1193L13.4623 4.92903ZM13.0562 4.44095L13.0429 4.42495L4.40192 11.6152L4.41523 11.6312L13.0562 4.44095ZM12.6434 3.94487L12.6301 3.92886L3.98912 11.1191L4.00243 11.1351L12.6434 3.94487ZM12.2306 3.44879L12.2173 3.43278L3.57632 10.6231L3.58964 10.6391L12.2306 3.44879ZM11.8178 2.9527L11.8045 2.9367L3.16352 10.127L3.17684 10.143L11.8178 2.9527ZM11.405 2.45662L11.3983 2.44862L2.75738 9.63889L2.76404 9.64689L11.405 2.45662ZM2.42263 9.19342L2.42846 9.20204L11.7389 2.90272L11.7331 2.8941L2.42263 9.19342ZM2.77844 9.71931L2.79011 9.73656L12.1006 3.43724L12.0889 3.42L2.77844 9.71931ZM3.14009 10.2538L3.15176 10.2711L12.4622 3.97176L12.4505 3.95451L3.14009 10.2538ZM3.50174 10.7884L3.5134 10.8056L12.8239 4.50628L12.8122 4.48903L3.50174 10.7884ZM3.86339 11.3229L3.87505 11.3401L13.1855 5.04079L13.1738 5.02355L3.86339 11.3229ZM4.22503 11.8574L4.23087 11.866L13.5413 5.56669L13.5355 5.55807L4.22503 11.8574ZM12.5739 4.47472L12.5661 4.46789L5.19042 12.9512L5.19827 12.958L12.5739 4.47472ZM12.0947 4.05811L12.079 4.04445L4.70339 12.5277L4.7191 12.5414L12.0947 4.05811ZM11.6077 3.63467L11.592 3.62101L4.21636 12.1043L4.23207 12.1179L11.6077 3.63467ZM11.1207 3.21123L11.105 3.19757L3.72933 11.6808L3.74504 11.6945L11.1207 3.21123ZM10.6336 2.78779L10.6179 2.77413L3.2423 11.2574L3.25801 11.2711L10.6336 2.78779ZM10.1466 2.36435L10.1388 2.35752L2.76312 10.8408L2.77098 10.8476L10.1466 2.36435ZM2.36124 10.4548L2.36838 10.4623L10.5478 2.7511L10.5406 2.74353L2.36124 10.4548ZM2.79681 10.9168L2.81109 10.9319L10.9905 3.22069L10.9762 3.20554L2.79681 10.9168ZM3.23952 11.3864L3.2538 11.4015L11.4332 3.69027L11.4189 3.67512L3.23952 11.3864ZM3.68222 11.856L3.69651 11.8711L11.8759 4.15986L11.8616 4.14471L3.68222 11.856ZM4.12493 12.3255L4.13921 12.3407L12.3186 4.62944L12.3043 4.61429L4.12493 12.3255ZM4.56764 12.7951L4.57478 12.8027L12.7542 5.09145L12.747 5.08388L4.56764 12.7951ZM11.6241 4.1688L11.6153 4.16332L5.69597 13.7199L5.70482 13.7253L11.6241 4.1688ZM11.0843 3.83445L11.0666 3.82349L5.14733 13.38L5.16502 13.391L11.0843 3.83445ZM10.5357 3.49462L10.518 3.48366L4.59868 13.0402L4.61638 13.0512L10.5357 3.49462ZM9.98704 3.15479L9.96934 3.14382L4.05003 12.7004L4.06773 12.7113L9.98704 3.15479ZM9.4384 2.81495L9.4207 2.80399L3.50138 12.3605L3.51908 12.3715L9.4384 2.81495ZM8.88975 2.47512L8.8809 2.46964L2.96159 12.0262L2.97043 12.0317L8.88975 2.47512ZM2.50299 11.7096L2.51125 11.716L9.34776 2.79252L9.3395 2.78619L2.50299 11.7096ZM3.00703 12.0958L3.02355 12.1085L9.86006 3.18501L9.84353 3.17235L3.00703 12.0958ZM3.51933 12.4883L3.53585 12.5009L10.3724 3.57749L10.3558 3.56483L3.51933 12.4883ZM4.03163 12.8808L4.04816 12.8934L10.8847 3.96998L10.8681 3.95732L4.03163 12.8808ZM4.54393 13.2733L4.56046 13.2859L11.397 4.36247L11.3804 4.34981L4.54393 13.2733ZM5.05623 13.6658L5.06449 13.6721L11.901 4.74863L11.8927 4.7423L5.05623 13.6658ZM10.6376 4.0192L10.628 4.01521L6.31829 14.3975L6.32791 14.4015L10.6376 4.0192ZM10.0511 3.77577L10.0319 3.76779L5.72224 14.1501L5.74146 14.1581L10.0511 3.77577ZM9.45509 3.52835L9.43586 3.52036L5.12618 13.9027L5.14541 13.9107L9.45509 3.52835ZM8.85904 3.28092L8.83981 3.27294L4.53013 13.6553L4.54935 13.6632L8.85904 3.28092ZM8.26298 3.0335L8.24375 3.02552L3.93407 13.4078L3.9533 13.4158L8.26298 3.0335ZM7.66693 2.78608L7.65731 2.78209L3.34763 13.1644L3.35724 13.1684L7.66693 2.78608ZM2.8442 12.9255L2.85337 12.9304L8.16992 3.0259L8.16075 3.02097L2.8442 12.9255ZM3.40365 13.2258L3.42199 13.2357L8.73855 3.33112L8.7202 3.32128L3.40365 13.2258ZM3.97228 13.5311L3.99062 13.5409L9.30717 3.63635L9.28883 3.6265L3.97228 13.5311ZM4.5409 13.8363L4.55925 13.8461L9.8758 3.94158L9.85746 3.93173L4.5409 13.8363ZM5.10953 14.1415L5.12787 14.1514L10.4444 4.2468L10.4261 4.23696L5.10953 14.1415ZM5.67816 14.4467L5.68733 14.4517L11.0039 4.54711L10.9947 4.54218L5.67816 14.4467ZM9.63982 4.02979L9.62969 4.02739L7.04126 14.9666L7.05139 14.969L9.63982 4.02979ZM9.02192 3.88358L9.00166 3.87879L6.41323 14.818L6.43349 14.8228L9.02192 3.88358ZM8.3939 3.73498L8.37364 3.73018L5.78521 14.6694L5.80547 14.6742L8.3939 3.73498ZM7.76587 3.58637L7.74561 3.58158L5.15718 14.5208L5.17744 14.5256L7.76587 3.58637ZM7.13785 3.43777L7.11759 3.43297L4.52916 14.3722L4.54941 14.377L7.13785 3.43777ZM6.50982 3.28916L6.49969 3.28677L3.91126 14.226L3.92139 14.2284L6.50982 3.28916ZM3.37602 14.0709L3.38587 14.0743L7.04477 3.44519L7.03493 3.4418L3.37602 14.0709ZM3.97641 14.2776L3.99609 14.2844L7.65499 3.65525L7.63531 3.64847L3.97641 14.2776ZM4.58663 14.4877L4.60632 14.4944L8.26522 3.86531L8.24553 3.85853L4.58663 14.4877ZM5.19686 14.6977L5.21654 14.7045L8.87544 4.07537L8.85576 4.06859L5.19686 14.6977ZM5.80708 14.9078L5.82676 14.9146L9.48567 4.28543L9.46598 4.27865L5.80708 14.9078ZM6.4173 15.1178L6.42715 15.1212L10.086 4.4921L10.0762 4.48871L6.4173 15.1178ZM8.65667 4.20029L8.64629 4.19955L7.84614 15.4123L7.85653 15.413L8.65667 4.20029ZM8.02332 4.15509L8.00256 4.15361L7.20241 15.3664L7.22318 15.3678L8.02332 4.15509ZM7.37959 4.10916L7.35883 4.10768L6.55868 15.3204L6.57945 15.3219L7.37959 4.10916ZM6.73586 4.06322L6.7151 4.06174L5.91495 15.2745L5.93572 15.276L6.73586 4.06322ZM6.09213 4.01728L6.07137 4.0158L5.27122 15.2285L5.29199 15.23L6.09213 4.01728ZM5.4484 3.97135L5.43802 3.97061L4.63787 15.1833L4.64826 15.1841L5.4484 3.97135ZM4.0847 15.1162L4.09496 15.1179L6.00145 4.03954L5.99119 4.03777L4.0847 15.1162ZM4.71046 15.2239L4.73098 15.2274L6.63747 4.14899L6.61695 4.14546L4.71046 15.2239ZM5.34648 15.3333L5.367 15.3369L7.27349 4.25845L7.25297 4.25491L5.34648 15.3333ZM5.9825 15.4428L6.00301 15.4463L7.9095 4.3679L7.88899 4.36437L5.9825 15.4428ZM6.61852 15.5522L6.63903 15.5558L8.54552 4.47735L8.52501 4.47382L6.61852 15.5522ZM7.25453 15.6617L7.26479 15.6634L9.17128 4.58504L9.16102 4.58327L7.25453 15.6617ZM7.7136 4.5263L7.70324 4.52723L8.7121 15.7231L8.72247 15.7222L7.7136 4.5263ZM7.08121 4.58328L7.06047 4.58515L8.06934 15.781L8.09007 15.7792L7.08121 4.58328ZM6.43844 4.6412L6.41771 4.64307L7.42658 15.839L7.44731 15.8371L6.43844 4.6412ZM5.79568 4.69912L5.77495 4.70099L6.78381 15.8969L6.80455 15.895L5.79568 4.69912ZM5.15292 4.75704L5.13218 4.75891L6.14105 15.9548L6.16178 15.9529L5.15292 4.75704ZM4.51015 4.81496L4.49979 4.81589L5.50865 16.0118L5.51902 16.0109L4.51015 4.81496ZM4.95187 16.0342L4.96228 16.0343L5.06698 4.79355L5.05657 4.79346L4.95187 16.0342ZM5.5868 16.0401L5.60762 16.0403L5.71232 4.79956L5.6915 4.79937L5.5868 16.0401ZM6.23214 16.0461L6.25296 16.0463L6.35766 4.80558L6.33684 4.80538L6.23214 16.0461ZM6.87748 16.0522L6.8983 16.0524L7.003 4.81159L6.98218 4.81139L6.87748 16.0522ZM7.52282 16.0582L7.54364 16.0584L7.64834 4.8176L7.62752 4.8174L7.52282 16.0582ZM8.16816 16.0642L8.17857 16.0643L8.28327 4.82351L8.27286 4.82341L8.16816 16.0642ZM6.83504 4.99936L6.82496 5.00194L9.61671 15.891L9.62679 15.8884L6.83504 4.99936ZM6.21998 5.15705L6.19981 5.16222L8.99156 16.0513L9.01173 16.0461L6.21998 5.15705ZM5.59483 5.31732L5.57466 5.3225L8.36641 16.2116L8.38658 16.2064L5.59483 5.31732ZM4.96968 5.4776L4.94951 5.48277L7.74126 16.3718L7.76143 16.3667L4.96968 5.4776ZM4.34453 5.63788L4.32437 5.64305L7.11612 16.5321L7.13628 16.527L4.34453 5.63788ZM3.71938 5.79815L3.7093 5.80074L6.50105 16.6898L6.51113 16.6872L3.71938 5.79815ZM5.95508 16.8013L5.96537 16.7997L4.26556 5.6877L4.25527 5.68928L5.95508 16.8013ZM6.58273 16.7053L6.60331 16.7021L4.90351 5.59012L4.88293 5.59326L6.58273 16.7053ZM7.22068 16.6077L7.24126 16.6045L5.54146 5.49253L5.52088 5.49568L7.22068 16.6077ZM7.85863 16.5101L7.87921 16.5069L6.1794 5.39494L6.15882 5.39809L7.85863 16.5101ZM8.49657 16.4125L8.51715 16.4094L6.81735 5.29736L6.79677 5.3005L8.49657 16.4125ZM9.13452 16.3149L9.14481 16.3133L7.44501 5.20134L7.43472 5.20292L9.13452 16.3149ZM6.04375 5.60722L6.03421 5.61139L10.5365 15.9116L10.5461 15.9075L6.04375 5.60722ZM5.46194 5.86154L5.44286 5.86987L9.94519 16.1701L9.96427 16.1618L5.46194 5.86154ZM4.8706 6.12002L4.85152 6.12836L9.35385 16.4286L9.37292 16.4203L4.8706 6.12002ZM4.27925 6.3785L4.26018 6.38684L8.76251 16.6871L8.78158 16.6787L4.27925 6.3785ZM3.68791 6.63698L3.66884 6.64532L8.17116 16.9456L8.19024 16.9372L3.68791 6.63698ZM3.09657 6.89546L3.08703 6.89963L7.58936 17.1999L7.5989 17.1957L3.09657 6.89546ZM7.06833 17.3975L7.07824 17.3943L3.61796 6.69883L3.60805 6.70203L7.06833 17.3975ZM7.67246 17.202L7.69227 17.1956L4.23199 6.50017L4.21218 6.50658L7.67246 17.202ZM8.28649 17.0034L8.3063 16.9969L4.84602 6.30152L4.82621 6.30792L8.28649 17.0034ZM8.90052 16.8047L8.92033 16.7983L5.46005 6.10286L5.44025 6.10927L8.90052 16.8047ZM9.51456 16.606L9.53436 16.5996L6.07408 5.9042L6.05428 5.91061L9.51456 16.606ZM10.1286 16.4074L10.1385 16.4042L6.67821 5.70875L6.66831 5.71195L10.1286 16.4074ZM5.3602 6.33415L5.35146 6.3398L11.4478 15.7844L11.4565 15.7788L5.3602 6.33415ZM4.82673 6.6785L4.80924 6.68979L10.9055 16.1344L10.923 16.1231L4.82673 6.6785ZM4.2845 7.02849L4.26701 7.03978L10.3633 16.4844L10.3808 16.4731L4.2845 7.02849ZM3.74228 7.37848L3.72479 7.38977L9.82109 16.8344L9.83858 16.8231L3.74228 7.37848ZM3.20006 7.72848L3.18257 7.73977L9.27887 17.1844L9.29636 17.1731L3.20006 7.72848ZM2.65784 8.07847L2.64909 8.08411L8.74539 17.5287L8.75414 17.5231L2.65784 8.07847ZM8.26281 17.8074L8.27207 17.8026L3.14093 7.80074L3.13167 7.8055L8.26281 17.8074ZM8.82776 17.5175L8.84628 17.508L3.71515 7.50616L3.69663 7.51567L8.82776 17.5175ZM9.40198 17.2229L9.4205 17.2134L4.28936 7.21158L4.27084 7.22108L9.40198 17.2229ZM9.97619 16.9284L9.99471 16.9189L4.86357 6.917L4.84505 6.9265L9.97619 16.9284ZM10.5504 16.6338L10.5689 16.6243L5.43779 6.62242L5.41927 6.63192L10.5504 16.6338ZM11.1246 16.3392L11.1339 16.3344L6.00274 6.33259L5.99348 6.33734L11.1246 16.3392ZM4.80212 7.16131L4.79439 7.16829L12.3268 15.5127L12.3345 15.5057L4.80212 7.16131ZM4.33079 7.58678L4.31534 7.60073L11.8477 15.9451L11.8632 15.9312L4.33079 7.58678ZM3.85173 8.01922L3.83628 8.03317L11.3687 16.3776L11.3841 16.3636L3.85173 8.01922ZM3.37267 8.45166L3.35722 8.46561L10.8896 16.81L10.9051 16.7961L3.37267 8.45166ZM2.89362 8.88409L2.87816 8.89804L10.4105 17.2424L10.426 17.2285L2.89362 8.88409ZM2.41456 9.31653L2.40683 9.32351L9.93921 17.6679L9.94694 17.6609L2.41456 9.31653ZM9.50757 18.0203L9.51595 18.0142L2.84685 8.96491L2.83847 8.97109L9.50757 18.0203ZM10.0187 17.6436L10.0355 17.6313L3.36637 8.58203L3.34961 8.59438L10.0187 17.6436ZM10.5382 17.2608L10.555 17.2484L3.88589 8.19916L3.86914 8.21151L10.5382 17.2608ZM11.0578 16.8779L11.0745 16.8655L4.40542 7.81628L4.38866 7.82863L11.0578 16.8779ZM11.5773 16.495L11.594 16.4826L4.92494 7.4334L4.90818 7.44575L11.5773 16.495ZM12.0968 16.1121L12.1052 16.1059L5.43608 7.0567L5.4277 7.06288L12.0968 16.1121ZM4.38395 8.06729L4.37744 8.07541L13.1508 15.1035L13.1573 15.0954L4.38395 8.06729ZM3.98697 8.56285L3.97396 8.5791L12.7473 15.6072L12.7603 15.5909L3.98697 8.56285ZM3.58349 9.06653L3.57047 9.08278L12.3438 16.1109L12.3569 16.0946L3.58349 9.06653ZM3.18 9.57022L3.16698 9.58647L11.9404 16.6145L11.9534 16.5983L3.18 9.57022ZM2.77651 10.0739L2.7635 10.0902L11.5369 17.1182L11.5499 17.102L2.77651 10.0739ZM2.37303 10.5776L2.36652 10.5857L11.1399 17.6138L11.1464 17.6057L2.37303 10.5776ZM10.7704 18.0309L10.7777 18.0234L2.74332 10.1612L2.73604 10.1686L10.7704 18.0309ZM11.2145 17.5771L11.229 17.5622L3.19469 9.69992L3.18013 9.7148L11.2145 17.5771ZM11.6659 17.1158L11.6804 17.1009L3.64607 9.23866L3.63151 9.25354L11.6659 17.1158ZM12.1172 16.6545L12.1318 16.6397L4.09745 8.77741L4.08289 8.79229L12.1172 16.6545ZM12.5686 16.1933L12.5832 16.1784L4.54883 8.31615L4.53427 8.33103L12.5686 16.1933ZM13.02 15.732L13.0273 15.7246L4.99292 7.86233L4.98564 7.86977L13.02 15.732ZM4.11652 9.02861L4.1114 9.03767L13.8985 14.5674L13.9037 14.5583L4.11652 9.02861ZM3.80418 9.58143L3.79394 9.59956L13.5811 15.1293L13.5913 15.1111L3.80418 9.58143ZM3.48672 10.1433L3.47647 10.1614L13.2636 15.6912L13.2739 15.673L3.48672 10.1433ZM3.16925 10.7052L3.15901 10.7233L12.9462 16.253L12.9564 16.2349L3.16925 10.7052ZM2.85179 11.2671L2.84155 11.2852L12.6287 16.8149L12.6389 16.7968L2.85179 11.2671ZM2.53432 11.829L2.5292 11.838L12.3163 17.3677L12.3215 17.3587L2.53432 11.829ZM12.0185 17.8387L12.0245 17.8302L2.83302 11.3586L2.82703 11.3671L12.0185 17.8387ZM12.3841 17.3195L12.3961 17.3025L3.20456 10.8309L3.19257 10.8479L12.3841 17.3195ZM12.7556 16.7919L12.7676 16.7748L3.5761 10.3032L3.56412 10.3202L12.7556 16.7919ZM13.1272 16.2642L13.1391 16.2471L3.94764 9.77549L3.93566 9.79251L13.1272 16.2642ZM13.4987 15.7365L13.5107 15.7195L4.31918 9.2478L4.3072 9.26482L13.4987 15.7365ZM13.8702 15.2088L13.8762 15.2003L4.68473 8.72862L4.67874 8.73713L13.8702 15.2088ZM4.00677 10.0204L4.00317 10.0301L14.5506 13.9183L14.5542 13.9085L4.00677 10.0204ZM3.78715 10.6161L3.77995 10.6357L14.3274 14.5238L14.3346 14.5043L3.78715 10.6161ZM3.56393 11.2217L3.55673 11.2412L14.1042 15.1293L14.1114 15.1098L3.56393 11.2217ZM3.34071 11.8272L3.33351 11.8468L13.8809 15.7349L13.8881 15.7154L3.34071 11.8272ZM3.11749 12.4328L3.11029 12.4523L13.6577 16.3404L13.6649 16.3209L3.11749 12.4328ZM2.89427 13.0383L2.89067 13.0481L13.4381 16.9362L13.4417 16.9264L2.89427 13.0383ZM13.2197 17.4488L13.2242 17.4395L3.11363 12.526L3.10908 12.5354L13.2197 17.4488ZM13.4972 16.8777L13.5063 16.859L3.39572 11.9456L3.38662 11.9643L13.4972 16.8777ZM13.7793 16.2973L13.7884 16.2786L3.6778 11.3651L3.6687 11.3839L13.7793 16.2973ZM14.0614 15.7168L14.0705 15.6981L3.95988 10.7847L3.95078 10.8034L14.0614 15.7168ZM14.3435 15.1364L14.3526 15.1176L4.24196 10.2042L4.23286 10.2229L14.3435 15.1364ZM14.6255 14.5559L14.6301 14.5466L4.5195 9.63313L4.51495 9.64249L14.6255 14.5559ZM4.05752 11.0169L4.05554 11.0271L15.0901 13.173L15.0921 13.1628L4.05752 11.0169ZM3.93631 11.6402L3.93234 11.6606L14.9669 13.8065L14.9709 13.7861L3.93631 11.6402ZM3.81312 12.2737L3.80915 12.2941L14.8437 14.44L14.8477 14.4196L3.81312 12.2737ZM3.68992 12.9072L3.68595 12.9276L14.7205 15.0735L14.7245 15.0531L3.68992 12.9072ZM3.56673 13.5407L3.56276 13.5611L14.5973 15.707L14.6013 15.6866L3.56673 13.5407ZM3.44353 14.1742L3.44155 14.1844L14.4761 16.3303L14.4781 16.3201L3.44353 14.1742ZM14.3427 16.8713L14.3457 16.8613L3.57789 13.6334L3.5749 13.6434L14.3427 16.8713ZM14.5251 16.2631L14.531 16.2432L3.76321 13.0152L3.75723 13.0352L14.5251 16.2631ZM14.7104 15.6449L14.7164 15.625L3.94853 12.397L3.94255 12.417L14.7104 15.6449ZM14.8957 15.0267L14.9017 15.0068L4.13385 11.7788L4.12787 11.7988L14.8957 15.0267ZM15.081 14.4085L15.087 14.3886L4.31916 11.1606L4.31319 11.1806L15.081 14.4085ZM15.2663 13.7903L15.2693 13.7804L4.50149 10.5524L4.4985 10.5624L15.2663 13.7903ZM4.26748 11.9924L4.26715 12.0028L15.503 12.3508L15.5033 12.3404L4.26748 11.9924ZM4.24782 12.6271L4.24717 12.6479L15.483 12.9959L15.4837 12.9751L4.24782 12.6271ZM4.22784 13.2721L4.2272 13.2929L15.4631 13.6409L15.4637 13.6201L4.22784 13.2721ZM4.20786 13.9172L4.20722 13.938L15.4431 14.286L15.4437 14.2652L4.20786 13.9172ZM4.18788 14.5622L4.18724 14.583L15.4231 14.931L15.4237 14.9102L4.18788 14.5622ZM4.1679 15.2073L4.16758 15.2177L15.4034 15.5657L15.4038 15.5553L4.1679 15.2073ZM15.3586 16.1211L15.36 16.1108L4.21377 14.6519L4.21242 14.6623L15.3586 16.1211ZM15.441 15.4915L15.4437 15.4709L4.29752 14.012L4.29482 14.0327L15.441 15.4915ZM15.5248 14.8516L15.5275 14.831L4.38128 13.3721L4.37858 13.3928L15.5248 14.8516ZM15.6085 14.2117L15.6112 14.1911L4.46503 12.7322L4.46233 12.7529L15.6085 14.2117ZM15.6923 13.5718L15.695 13.5512L4.54879 12.0923L4.54609 12.1129L15.6923 13.5718ZM15.776 12.9319L15.7774 12.9216L4.63119 11.4627L4.62984 11.473L15.776 12.9319ZM4.63119 12.9216L4.63254 12.9319L15.7787 11.473L15.7774 11.4627L4.63119 12.9216ZM4.71359 13.5512L4.7163 13.5718L15.8625 12.1129L15.8598 12.0923L4.71359 13.5512ZM4.79735 14.1911L4.80005 14.2117L15.9462 12.7529L15.9435 12.7322L4.79735 14.1911ZM4.8811 14.831L4.8838 14.8516L16.03 13.3928L16.0273 13.3721L4.8811 14.831ZM4.96486 15.4709L4.96756 15.4915L16.1137 14.0327L16.111 14.012L4.96486 15.4709ZM5.04861 16.1108L5.04996 16.1211L16.1962 14.6623L16.1948 14.6519L5.04861 16.1108ZM16.241 15.2177L16.2407 15.2073L5.0048 15.5553L5.00512 15.5657L16.241 15.2177ZM16.2213 14.583L16.2207 14.5622L4.98482 14.9102L4.98547 14.931L16.2213 14.583ZM16.2014 13.938L16.2007 13.9172L4.96484 14.2652L4.96549 14.286L16.2014 13.938ZM16.1814 13.2929L16.1807 13.2721L4.94486 13.6201L4.94551 13.6409L16.1814 13.2929ZM16.1614 12.6479L16.1608 12.6271L4.92488 12.9751L4.92553 12.9959L16.1614 12.6479ZM16.1414 12.0028L16.1411 11.9924L4.90523 12.3404L4.90555 12.3508L16.1414 12.0028ZM5.13924 13.7804L5.14223 13.7903L15.9101 10.5624L15.9071 10.5524L5.13924 13.7804ZM5.32157 14.3886L5.32755 14.4085L16.0954 11.1806L16.0894 11.1606L5.32157 14.3886ZM5.50689 15.0068L5.51287 15.0267L16.2807 11.7988L16.2747 11.7788L5.50689 15.0068ZM5.69221 15.625L5.69819 15.6449L16.466 12.417L16.46 12.397L5.69221 15.625ZM5.87753 16.2432L5.88351 16.2631L16.6513 13.0352L16.6454 13.0152L5.87753 16.2432ZM6.06285 16.8613L6.06584 16.8713L16.8337 13.6434L16.8307 13.6334L6.06285 16.8613ZM16.967 14.1844L16.965 14.1742L5.93049 16.3201L5.93248 16.3303L16.967 14.1844ZM16.8458 13.5611L16.8418 13.5407L5.8073 15.6866L5.81127 15.707L16.8458 13.5611ZM16.7226 12.9276L16.7186 12.9072L5.6841 15.0531L5.68808 15.0735L16.7226 12.9276ZM16.5994 12.2941L16.5955 12.2737L5.56091 14.4196L5.56488 14.44L16.5994 12.2941ZM16.4762 11.6606L16.4723 11.6402L5.43771 13.7861L5.44169 13.8065L16.4762 11.6606ZM16.353 11.0271L16.351 11.0169L5.31651 13.1628L5.31849 13.173L16.353 11.0271ZM5.77848 14.5466L5.78303 14.5559L15.8936 9.64249L15.8891 9.63313L5.77848 14.5466ZM6.05601 15.1176L6.06511 15.1364L16.1757 10.2229L16.1666 10.2042L6.05601 15.1176ZM6.3381 15.6981L6.3472 15.7168L16.4578 10.8034L16.4487 10.7847L6.3381 15.6981ZM6.62018 16.2786L6.62928 16.2973L16.7399 11.3839L16.7308 11.3651L6.62018 16.2786ZM6.90226 16.859L6.91136 16.8777L17.022 11.9643L17.0129 11.9456L6.90226 16.859ZM7.18434 17.4395L7.18889 17.4488L17.2995 12.5354L17.2949 12.526L7.18434 17.4395ZM17.5179 13.0481L17.5143 13.0383L6.96688 16.9264L6.97048 16.9362L17.5179 13.0481ZM17.2983 12.4523L17.2911 12.4328L6.74366 16.3209L6.75086 16.3404L17.2983 12.4523ZM17.0751 11.8468L17.0679 11.8272L6.52044 15.7154L6.52764 15.7349L17.0751 11.8468ZM16.8518 11.2412L16.8446 11.2217L6.29722 15.1098L6.30442 15.1293L16.8518 11.2412ZM16.6286 10.6357L16.6214 10.6161L6.074 14.5043L6.0812 14.5238L16.6286 10.6357ZM16.4054 10.0301L16.4018 10.0204L5.85438 13.9085L5.85798 13.9183L16.4054 10.0301ZM6.53234 15.2003L6.53834 15.2088L15.7298 8.73713L15.7238 8.72862L6.53234 15.2003ZM6.89789 15.7195L6.90988 15.7365L16.1014 9.26482L16.0894 9.2478L6.89789 15.7195ZM7.26943 16.2471L7.28142 16.2642L16.4729 9.79251L16.4609 9.77549L7.26943 16.2471ZM7.64097 16.7748L7.65296 16.7919L16.8445 10.3202L16.8325 10.3032L7.64097 16.7748ZM8.01252 17.3025L8.0245 17.3195L17.216 10.8479L17.204 10.8309L8.01252 17.3025ZM8.38406 17.8302L8.39005 17.8387L17.5815 11.3671L17.5756 11.3586L8.38406 17.8302ZM17.8794 11.838L17.8742 11.829L8.08711 17.3587L8.09223 17.3677L17.8794 11.838ZM17.567 11.2852L17.5568 11.2671L7.76964 16.7968L7.77988 16.8149L17.567 11.2852ZM17.2496 10.7233L17.2393 10.7052L7.45218 16.2349L7.46242 16.253L17.2496 10.7233ZM16.9321 10.1614L16.9219 10.1433L7.13471 15.673L7.14495 15.6912L16.9321 10.1614ZM16.6146 9.59956L16.6044 9.58143L6.81725 15.1111L6.82749 15.1293L16.6146 9.59956ZM16.2972 9.03767L16.292 9.02861L6.50491 14.5583L6.51003 14.5674L16.2972 9.03767ZM7.38131 15.7246L7.38859 15.732L15.4229 7.86977L15.4156 7.86233L7.38131 15.7246ZM7.8254 16.1784L7.83996 16.1933L15.8743 8.33103L15.8597 8.31615L7.8254 16.1784ZM8.27678 16.6397L8.29134 16.6545L16.3257 8.79229L16.3111 8.77741L8.27678 16.6397ZM8.72816 17.1009L8.74272 17.1158L16.7771 9.25354L16.7625 9.23866L8.72816 17.1009ZM9.17954 17.5622L9.1941 17.5771L17.2284 9.7148L17.2139 9.69992L9.17954 17.5622ZM9.63091 18.0234L9.63819 18.0309L17.6725 10.1686L17.6653 10.1612L9.63091 18.0234ZM18.042 10.5857L18.0355 10.5776L9.26217 17.6057L9.26868 17.6138L18.042 10.5857ZM17.6451 10.0902L17.6321 10.0739L8.85868 17.102L8.8717 17.1182L17.6451 10.0902ZM17.2416 9.58647L17.2286 9.57022L8.4552 16.5983L8.46821 16.6145L17.2416 9.58647ZM16.8381 9.08278L16.8251 9.06653L8.05171 16.0946L8.06473 16.1109L16.8381 9.08278ZM16.4346 8.5791L16.4216 8.56285L7.64823 15.5909L7.66124 15.6072L16.4346 8.5791ZM16.0311 8.07541L16.0246 8.06729L7.25125 15.0954L7.25776 15.1035L16.0311 8.07541ZM8.30338 16.1059L8.31176 16.1121L14.9809 7.06287L14.9725 7.0567L8.30338 16.1059ZM8.81453 16.4826L8.83129 16.495L15.5004 7.44575L15.4836 7.4334L8.81453 16.4826ZM9.33405 16.8655L9.35081 16.8779L16.0199 7.82863L16.0032 7.81628L9.33405 16.8655ZM9.85357 17.2484L9.87033 17.2608L16.5394 8.21151L16.5227 8.19916L9.85357 17.2484ZM10.3731 17.6313L10.3899 17.6436L17.059 8.59438L17.0422 8.58203L10.3731 17.6313ZM10.8926 18.0142L10.901 18.0203L17.5701 8.97109L17.5617 8.96491L10.8926 18.0142ZM18.0017 9.32351L17.994 9.31653L10.4616 17.6609L10.4694 17.6679L18.0017 9.32351ZM17.5304 8.89804L17.515 8.88409L9.98258 17.2285L9.99803 17.2425L17.5304 8.89804ZM17.0513 8.4656L17.0359 8.45166L9.50352 16.7961L9.51897 16.81L17.0513 8.4656ZM16.5723 8.03317L16.5568 8.01922L9.02446 16.3636L9.03992 16.3776L16.5723 8.03317ZM16.0932 7.60073L16.0778 7.58678L8.5454 15.9312L8.56086 15.9451L16.0932 7.60073ZM15.6142 7.16829L15.6064 7.16131L8.07407 15.5057L8.0818 15.5127L15.6142 7.16829ZM9.27469 16.3344L9.28395 16.3392L14.4151 6.33734L14.4058 6.33259L9.27469 16.3344ZM9.83964 16.6243L9.85817 16.6338L14.9893 6.63192L14.9708 6.62242L9.83964 16.6243ZM10.4139 16.9189L10.4324 16.9284L15.5635 6.9265L15.545 6.917L10.4139 16.9189ZM10.9881 17.2134L11.0066 17.2229L16.1377 7.22108L16.1192 7.21158L10.9881 17.2134ZM11.5623 17.508L11.5808 17.5175L16.7119 7.51567L16.6934 7.50616L11.5623 17.508ZM12.1365 17.8026L12.1458 17.8074L17.2769 7.8055L17.2676 7.80074L12.1365 17.8026ZM17.7595 8.08411L17.7507 8.07847L11.6544 17.5231L11.6632 17.5287L17.7595 8.08411ZM17.226 7.73977L17.2085 7.72848L11.1122 17.1731L11.1297 17.1844L17.226 7.73977ZM16.6838 7.38977L16.6663 7.37848L10.57 16.8231L10.5875 16.8344L16.6838 7.38977ZM16.1416 7.03978L16.1241 7.02849L10.0278 16.4731L10.0453 16.4844L16.1416 7.03978ZM15.5993 6.68979L15.5818 6.6785L9.48555 16.1231L9.50304 16.1344L15.5993 6.68979ZM15.0571 6.3398L15.0484 6.33415L8.95207 15.7788L8.96081 15.7844L15.0571 6.3398ZM10.2701 16.4042L10.28 16.4074L13.7403 5.71195L13.7304 5.70875L10.2701 16.4042ZM10.8742 16.5996L10.894 16.606L14.3543 5.91061L14.3345 5.9042L10.8742 16.5996ZM11.4882 16.7983L11.508 16.8047L14.9683 6.10927L14.9485 6.10286L11.4882 16.7983ZM12.1023 16.9969L12.1221 17.0034L15.5824 6.30792L15.5625 6.30152L12.1023 16.9969ZM12.7163 17.1956L12.7361 17.202L16.1964 6.50658L16.1766 6.50017L12.7163 17.1956ZM13.3303 17.3943L13.3402 17.3975L16.8005 6.70203L16.7906 6.69883L13.3303 17.3943ZM17.3215 6.89963L17.312 6.89546L12.8097 17.1957L12.8192 17.1999L17.3215 6.89963ZM16.7397 6.64532L16.7207 6.63698L12.2183 16.9372L12.2374 16.9456L16.7397 6.64532ZM16.1484 6.38684L16.1293 6.3785L11.627 16.6787L11.6461 16.6871L16.1484 6.38684ZM15.557 6.12836L15.538 6.12002L11.0356 16.4203L11.0547 16.4286L15.557 6.12836ZM14.9657 5.86987L14.9466 5.86154L10.4443 16.1618L10.4634 16.1701L14.9657 5.86987ZM14.3744 5.61139L14.3648 5.60722L9.8625 15.9075L9.87203 15.9116L14.3744 5.61139ZM11.2638 16.3133L11.274 16.3149L12.9739 5.20292L12.9636 5.20134L11.2638 16.3133ZM11.8914 16.4094L11.912 16.4125L13.6118 5.3005L13.5912 5.29736L11.8914 16.4094ZM12.5294 16.5069L12.5499 16.5101L14.2497 5.39809L14.2292 5.39494L12.5294 16.5069ZM13.1673 16.6045L13.1879 16.6077L14.8877 5.49568L14.8671 5.49253L13.1673 16.6045ZM13.8053 16.7021L13.8258 16.7053L15.5256 5.59326L15.5051 5.59012L13.8053 16.7021ZM14.4432 16.7997L14.4535 16.8013L16.1533 5.68928L16.143 5.6877L14.4432 16.7997ZM16.6993 5.80074L16.6892 5.79815L13.8974 16.6872L13.9075 16.6898L16.6993 5.80074ZM16.0842 5.64305L16.064 5.63788L13.2723 16.527L13.2925 16.5321L16.0842 5.64305ZM15.4591 5.48277L15.4389 5.4776L12.6471 16.3667L12.6673 16.3718L15.4591 5.48277ZM14.8339 5.32249L14.8137 5.31732L12.022 16.2064L12.0422 16.2116L14.8339 5.32249ZM14.2088 5.16222L14.1886 5.15705L11.3968 16.0461L11.417 16.0513L14.2088 5.16222ZM13.5836 5.00194L13.5735 4.99936L10.7818 15.8884L10.7919 15.891L13.5836 5.00194ZM12.23 16.0643L12.2404 16.0642L12.1357 4.82341L12.1253 4.82351L12.23 16.0643ZM12.8649 16.0584L12.8857 16.0582L12.781 4.8174L12.7602 4.8176L12.8649 16.0584ZM13.5103 16.0524L13.5311 16.0522L13.4264 4.81139L13.4056 4.81159L13.5103 16.0524ZM14.1556 16.0463L14.1764 16.0461L14.0717 4.80538L14.0509 4.80558L14.1556 16.0463ZM14.801 16.0403L14.8218 16.0401L14.7171 4.79937L14.6962 4.79956L14.801 16.0403ZM15.4463 16.0343L15.4567 16.0342L15.352 4.79346L15.3416 4.79355L15.4463 16.0343ZM15.9088 4.81589L15.8984 4.81496L14.8895 16.0109L14.8999 16.0118L15.9088 4.81589ZM15.2764 4.75891L15.2557 4.75704L14.2468 15.9529L14.2675 15.9548L15.2764 4.75891ZM14.6336 4.70099L14.6129 4.69912L13.604 15.895L13.6248 15.8969L14.6336 4.70099ZM13.9909 4.64307L13.9701 4.6412L12.9613 15.8371L12.982 15.839L13.9909 4.64307ZM13.3481 4.58515L13.3274 4.58328L12.3185 15.7792L12.3392 15.781L13.3481 4.58515ZM12.7053 4.52723L12.695 4.5263L11.6861 15.7222L11.6965 15.7231L12.7053 4.52723ZM13.1438 15.6634L13.154 15.6617L11.2475 4.58327L11.2373 4.58504L13.1438 15.6634ZM13.7695 15.5558L13.7901 15.5522L11.8836 4.47382L11.863 4.47735L13.7695 15.5558ZM14.4056 15.4463L14.4261 15.4428L12.5196 4.36437L12.4991 4.3679L14.4056 15.4463ZM15.0416 15.3369L15.0621 15.3333L13.1556 4.25491L13.1351 4.25845L15.0416 15.3369ZM15.6776 15.2274L15.6981 15.2239L13.7916 4.14546L13.7711 4.14899L15.6776 15.2274ZM16.3136 15.1179L16.3239 15.1162L14.4174 4.03777L14.4071 4.03954L16.3136 15.1179ZM14.9706 3.97061L14.9602 3.97135L15.7603 15.1841L15.7707 15.1833L14.9706 3.97061ZM14.3372 4.0158L14.3164 4.01728L15.1166 15.23L15.1373 15.2285L14.3372 4.0158ZM13.6935 4.06174L13.6727 4.06322L14.4729 15.276L14.4936 15.2745L13.6935 4.06174ZM13.0497 4.10768L13.029 4.10916L13.8291 15.3219L13.8499 15.3204L13.0497 4.10768ZM12.406 4.15361L12.3852 4.15509L13.1854 15.3678L13.2062 15.3664L12.406 4.15361ZM11.7623 4.19955L11.7519 4.20029L12.552 15.413L12.5624 15.4123L11.7623 4.19955ZM13.9814 15.1212L13.9913 15.1178L10.3324 4.48871L10.3225 4.4921L13.9814 15.1212ZM14.5818 14.9146L14.6015 14.9078L10.9426 4.27865L10.9229 4.28543L14.5818 14.9146ZM15.192 14.7045L15.2117 14.6977L11.5528 4.06859L11.5331 4.07537L15.192 14.7045ZM15.8023 14.4944L15.8219 14.4877L12.163 3.85853L12.1434 3.86531L15.8023 14.4944ZM16.4125 14.2844L16.4322 14.2776L12.7733 3.64847L12.7536 3.65525L16.4125 14.2844ZM17.0227 14.0743L17.0325 14.0709L13.3736 3.4418L13.3638 3.44519L17.0227 14.0743ZM13.9089 3.28677L13.8987 3.28916L16.4872 14.2284L16.4973 14.226L13.9089 3.28677ZM13.291 3.43297L13.2707 3.43777L15.8592 14.377L15.8794 14.3722L13.291 3.43297ZM12.663 3.58158L12.6427 3.58637L15.2311 14.5256L15.2514 14.5208L12.663 3.58158ZM12.0349 3.73018L12.0147 3.73498L14.6031 14.6742L14.6234 14.6694L12.0349 3.73018ZM11.4069 3.87879L11.3866 3.88358L13.9751 14.8228L13.9953 14.818L11.4069 3.87879ZM10.7789 4.02739L10.7687 4.02979L13.3572 14.969L13.3673 14.9666L10.7789 4.02739ZM14.7212 14.4517L14.7304 14.4467L9.41386 4.54218L9.40469 4.54711L14.7212 14.4517ZM15.2807 14.1514L15.299 14.1415L9.98249 4.23696L9.96414 4.2468L15.2807 14.1514ZM15.8493 13.8461L15.8677 13.8363L10.5511 3.93173L10.5328 3.94158L15.8493 13.8461ZM16.4179 13.5409L16.4363 13.5311L11.1197 3.6265L11.1014 3.63635L16.4179 13.5409ZM16.9866 13.2357L17.0049 13.2258L11.6884 3.32128L11.67 3.33112L16.9866 13.2357ZM17.5552 12.9304L17.5644 12.9255L12.2478 3.02097L12.2386 3.0259L17.5552 12.9304ZM12.7513 2.78209L12.7416 2.78608L17.0513 13.1684L17.0609 13.1644L12.7513 2.78209ZM12.1648 3.02552L12.1456 3.0335L16.4553 13.4158L16.4745 13.4078L12.1648 3.02552ZM11.5688 3.27294L11.5495 3.28092L15.8592 13.6632L15.8784 13.6553L11.5688 3.27294ZM10.9727 3.52036L10.9535 3.52835L15.2632 13.9107L15.2824 13.9027L10.9727 3.52036ZM10.3766 3.76779L10.3574 3.77577L14.6671 14.1581L14.6863 14.1501L10.3766 3.76779ZM9.78059 4.01521L9.77098 4.0192L14.0807 14.4015L14.0903 14.3975L9.78059 4.01521ZM15.3441 13.6721L15.3523 13.6658L8.51583 4.7423L8.50757 4.74863L15.3441 13.6721ZM15.8481 13.2859L15.8646 13.2733L9.02813 4.34981L9.01161 4.36247L15.8481 13.2859ZM16.3604 12.8934L16.3769 12.8808L9.54043 3.95732L9.52391 3.96998L16.3604 12.8934ZM16.8727 12.5009L16.8892 12.4883L10.0527 3.56483L10.0362 3.57749L16.8727 12.5009ZM17.385 12.1085L17.4015 12.0958L10.565 3.17235L10.5485 3.18501L17.385 12.1085ZM17.8973 11.716L17.9056 11.7096L11.0691 2.78619L11.0608 2.79252L17.8973 11.716ZM11.5277 2.46964L11.5188 2.47512L17.4381 12.0317L17.447 12.0262L11.5277 2.46964ZM10.9879 2.80399L10.9702 2.81495L16.8895 12.3715L16.9072 12.3605L10.9879 2.80399ZM10.4392 3.14382L10.4215 3.15479L16.3408 12.7113L16.3585 12.7004L10.4392 3.14382ZM9.89058 3.48366L9.87288 3.49462L15.7922 13.0512L15.8099 13.0402L9.89058 3.48366ZM9.34193 3.82349L9.32423 3.83445L15.2435 13.391L15.2612 13.38L9.34193 3.82349ZM8.79328 4.16332L8.78443 4.1688L14.7037 13.7253L14.7126 13.7199L8.79328 4.16332ZM15.8338 12.8027L15.8409 12.7951L7.66153 5.08388L7.65439 5.09145L15.8338 12.8027ZM16.2694 12.3407L16.2836 12.3255L8.10424 4.61429L8.08996 4.62944L16.2694 12.3407ZM16.7121 11.8711L16.7263 11.856L8.54695 4.14471L8.53267 4.15986L16.7121 11.8711ZM17.1548 11.4015L17.1691 11.3864L8.98965 3.67512L8.97537 3.69027L17.1548 11.4015ZM17.5975 10.9319L17.6118 10.9168L9.43236 3.20554L9.41808 3.22069L17.5975 10.9319ZM18.0402 10.4623L18.0473 10.4548L9.86793 2.74353L9.86079 2.7511L18.0402 10.4623ZM10.2698 2.35752L10.262 2.36435L17.6376 10.8476L17.6454 10.8408L10.2698 2.35752ZM9.79063 2.77413L9.77492 2.78779L17.1506 11.2711L17.1663 11.2574L9.79063 2.77413ZM9.3036 3.19757L9.28789 3.21123L16.6635 11.6945L16.6792 11.6808L9.3036 3.19757ZM8.81657 3.62101L8.80086 3.63467L16.1765 12.1179L16.1922 12.1043L8.81657 3.62101ZM8.32955 4.04445L8.31383 4.05811L15.6895 12.5414L15.7052 12.5277L8.32955 4.04445ZM7.84252 4.46789L7.83466 4.47472L15.2103 12.958L15.2182 12.9512L7.84252 4.46789ZM16.1777 11.866L16.1835 11.8574L6.87309 5.55807L6.86726 5.56669L16.1777 11.866ZM16.5335 11.3401L16.5452 11.3229L7.23474 5.02355L7.22307 5.04079L16.5335 11.3401ZM16.8952 10.8056L16.9068 10.7884L7.59639 4.48903L7.58472 4.50627L16.8952 10.8056ZM17.2568 10.2711L17.2685 10.2538L7.95803 3.95451L7.94637 3.97176L17.2568 10.2711ZM17.6185 9.73656L17.6301 9.71931L8.31968 3.42L8.30802 3.43724L17.6185 9.73656ZM17.9801 9.20204L17.9859 9.19342L8.6755 2.8941L8.66966 2.90272L17.9801 9.20204ZM9.01025 2.44862L9.00359 2.45662L17.6445 9.6469L17.6512 9.63889L9.01025 2.44862ZM8.60411 2.9367L8.59079 2.9527L17.2317 10.143L17.245 10.127L8.60411 2.9367ZM8.19131 3.43278L8.178 3.44878L16.8189 10.6391L16.8322 10.6231L8.19131 3.43278ZM7.77851 3.92886L7.7652 3.94487L16.4061 11.1351L16.4195 11.1191L7.77851 3.92886ZM7.36572 4.42495L7.3524 4.44095L15.9933 11.6312L16.0067 11.6152L7.36572 4.42495ZM6.95292 4.92103L6.94626 4.92903L15.5872 12.1193L15.5939 12.1113L6.95292 4.92103ZM16.3669 10.8863L16.3713 10.8768L6.17092 6.1526L6.16655 6.16204L16.3669 10.8863ZM16.6338 10.3101L16.6425 10.2912L6.44214 5.56699L6.43339 5.58588L16.6338 10.3101ZM16.905 9.72451L16.9137 9.70562L6.71337 4.98138L6.70462 5.00027L16.905 9.72451ZM17.1762 9.1389L17.1849 9.12001L6.98459 4.39577L6.97584 4.41466L17.1762 9.1389ZM17.4474 8.55329L17.4562 8.5344L7.25581 3.81016L7.24706 3.82905L17.4474 8.55329ZM17.7186 7.96769L17.723 7.95824L7.52266 3.234L7.51828 3.24344L17.7186 7.96769ZM7.78162 2.74059L7.77633 2.74956L17.4588 8.46061L17.4641 8.45165L7.78162 2.74059ZM7.45903 3.2875L7.44845 3.30543L17.1309 9.01649L17.1415 8.99856L7.45903 3.2875ZM7.13115 3.84338L7.12058 3.86131L16.803 9.57236L16.8136 9.55443L7.13115 3.84338ZM6.80328 4.39925L6.7927 4.41718L16.4751 10.1282L16.4857 10.1103L6.80328 4.39925ZM6.4754 4.95513L6.46483 4.97306L16.1473 10.6841L16.1578 10.6662L6.4754 4.95513ZM6.14753 5.511L6.14224 5.51997L15.8247 11.231L15.83 11.2221L6.14753 5.511ZM16.3965 9.8889L16.3993 9.87887L5.57322 6.85206L5.57041 6.86209L16.3965 9.8889ZM16.5675 9.27739L16.5731 9.25734L5.74699 6.23053L5.74138 6.25058L16.5675 9.27739ZM16.7412 8.65586L16.7468 8.63581L5.92076 5.609L5.91515 5.62905L16.7412 8.65586ZM16.915 8.03433L16.9206 8.01428L6.09453 4.98747L6.08892 5.00752L16.915 8.03433ZM17.0888 7.41279L17.0944 7.39274L6.2683 4.36593L6.2627 4.38598L17.0888 7.41279ZM17.2626 6.79126L17.2654 6.78124L6.43927 3.75443L6.43647 3.76445L17.2626 6.79126ZM6.61573 3.22587L6.61195 3.23557L17.0851 7.31949L17.0889 7.30979L6.61573 3.22587ZM6.38505 3.81744L6.37749 3.83684L16.8507 7.92076L16.8582 7.90137L6.38505 3.81744ZM6.15059 4.41871L6.14303 4.43811L16.6162 8.52204L16.6238 8.50264L6.15059 4.41871ZM5.91613 5.01998L5.90856 5.03938L16.3817 9.12331L16.3893 9.10391L5.91613 5.01998ZM5.68167 5.62126L5.6741 5.64065L16.1473 9.72458L16.1548 9.70518L5.68167 5.62126ZM5.44721 6.22253L5.44342 6.23222L15.9166 10.3162L15.9204 10.3065L5.44721 6.22253ZM16.2657 8.89968L16.2669 8.88934L5.09545 7.63835L5.0943 7.64869L16.2657 8.89968ZM16.3364 8.26867L16.3387 8.24798L5.16727 6.99699L5.16496 7.01768L16.3364 8.26867ZM16.4082 7.62731L16.4105 7.60662L5.23909 6.35563L5.23678 6.37632L16.4082 7.62731ZM16.48 6.98595L16.4823 6.96526L5.31091 5.71427L5.3086 5.73496L16.48 6.98595ZM16.5518 6.34459L16.5542 6.3239L5.38273 5.07291L5.38042 5.0936L16.5518 6.34459ZM16.6237 5.70323L16.6248 5.69289L5.4534 4.4419L5.45224 4.45225L16.6237 5.70323ZM5.54278 3.89188L5.54061 3.90206L16.5333 6.25309L16.5354 6.24291L5.54278 3.89188ZM5.40999 4.5128L5.40563 4.53316L16.3983 6.88418L16.4026 6.86382L5.40999 4.5128ZM5.27501 5.14389L5.27066 5.16425L16.2633 7.51528L16.2677 7.49492L5.27501 5.14389ZM5.14004 5.77499L5.13568 5.79535L16.1283 8.14637L16.1327 8.12601L5.14004 5.77499ZM5.00506 6.40608L5.00071 6.42644L15.9934 8.77747L15.9977 8.75711L5.00506 6.40608ZM4.87009 7.03718L4.86791 7.04736L15.8606 9.39838L15.8627 9.38821L4.87009 7.03718ZM15.978 7.94425L15.9774 7.93386L4.75001 8.49109L4.75052 8.50149L15.978 7.94425ZM15.9465 7.31007L15.9455 7.28928L4.71802 7.84652L4.71905 7.86731L15.9465 7.31007ZM15.9145 6.6655L15.9135 6.64471L4.68603 7.20194L4.68706 7.22274L15.9145 6.6655ZM15.8825 6.02093L15.8815 6.00013L4.65403 6.55737L4.65507 6.57816L15.8825 6.02093ZM15.8505 5.37635L15.8495 5.35556L4.62204 5.9128L4.62307 5.93359L15.8505 5.37635ZM15.8185 4.73178L15.818 4.72138L4.59057 5.27862L4.59108 5.28901L15.8185 4.73178Z" fill="url(#paint0_linear_38_1525)" mask="url(#path-1-outside-1_38_1525)"/>
</g>
<defs>
<filter id="filter0_f_38_1525" x="0.361237" y="0.357513" width="19.6861" height="19.6734" filterUnits="userSpaceOnUse" color-interpolation-filters="sRGB">
<feFlood flood-opacity="0" result="BackgroundImageFix"/>
<feBlend mode="normal" in="SourceGraphic" in2="BackgroundImageFix" result="shape"/>
<feGaussianBlur stdDeviation="1" result="effect1_foregroundBlur_38_1525"/>
</filter>
<linearGradient id="paint0_linear_38_1525" x1="17.4958" y1="9.99092" x2="10.8646" y2="17.3433" gradientUnits="userSpaceOnUse">
<stop stop-color="#E86CE4"/>
<stop offset="1" stop-color="#79CFD5"/>
</linearGradient>
</defs>
</svg>
