<svg width="11" height="10" viewBox="0 0 11 10" fill="none" xmlns="http://www.w3.org/2000/svg">
<path d="M0.940811 0H9.48287C9.91969 0 10.2738 0.349778 10.2738 0.78125V9.21875C10.2738 9.65022 9.91969 10 9.48287 10H0.940811C0.503991 10 0.149879 9.65022 0.149879 9.21875V0.78125C0.149879 0.349778 0.503991 0 0.940811 0Z" fill="#3178C6"/>
<path d="M6.10235 7.83105V8.90996C6.27999 8.99988 6.4901 9.0673 6.73264 9.11227C6.97518 9.15723 7.23081 9.17969 7.49957 9.17969C7.76145 9.17969 8.01027 9.15496 8.24597 9.10551C8.48167 9.05605 8.68838 8.97457 8.86598 8.86109C9.04362 8.74758 9.18425 8.59922 9.2879 8.41602C9.39151 8.23285 9.44332 8.00641 9.44332 7.73668C9.44332 7.54113 9.4137 7.36973 9.3545 7.2225C9.2953 7.07527 9.20988 6.94434 9.09828 6.82973C8.98672 6.71508 8.85289 6.61227 8.69692 6.52121C8.54091 6.4302 8.36497 6.34422 8.16909 6.26332C8.02562 6.20484 7.89697 6.14812 7.78308 6.09305C7.66922 6.03797 7.57241 5.9818 7.49273 5.92445C7.413 5.86715 7.35151 5.80645 7.30824 5.74238C7.26498 5.67832 7.24335 5.60586 7.24335 5.52492C7.24335 5.45074 7.26268 5.38391 7.3014 5.32434C7.34012 5.26477 7.39481 5.21363 7.4654 5.17094C7.53599 5.1282 7.62252 5.09508 7.72502 5.07145C7.82749 5.04785 7.94138 5.03605 8.06663 5.03605C8.15774 5.03605 8.25396 5.04281 8.35528 5.05629C8.45663 5.06977 8.55855 5.09055 8.66105 5.11867C8.76351 5.14676 8.86313 5.18215 8.95994 5.22488C9.05671 5.26758 9.14613 5.31703 9.22811 5.3732V4.36512C9.06185 4.30219 8.88022 4.25555 8.68324 4.2252C8.48625 4.19484 8.26021 4.17969 8.00513 4.17969C7.74551 4.17969 7.49957 4.20723 7.26727 4.2623C7.03498 4.31734 6.83056 4.40332 6.65406 4.5202C6.47757 4.63711 6.33808 4.78602 6.23558 4.96695C6.13312 5.14789 6.08186 5.36422 6.08186 5.61598C6.08186 5.93738 6.17579 6.2116 6.36371 6.43863C6.5516 6.66562 6.83681 6.85781 7.21942 7.01516C7.36974 7.07586 7.50981 7.13539 7.6396 7.19387C7.76943 7.2523 7.88159 7.31297 7.9761 7.3759C8.07062 7.43883 8.14521 7.50738 8.19986 7.58156C8.25451 7.65574 8.28184 7.74004 8.28184 7.83445C8.28184 7.9041 8.26475 7.96875 8.23059 8.02832C8.19646 8.08785 8.14461 8.13957 8.07517 8.1834C8.00572 8.22723 7.91916 8.26148 7.81555 8.28621C7.71193 8.31094 7.59064 8.32332 7.45172 8.32332C7.21487 8.32332 6.98032 8.2823 6.74802 8.20023C6.51569 8.1182 6.30048 7.99516 6.10235 7.83105ZM4.28178 5.14617H5.6864V4.25781H1.77129V5.14617H3.16905V9.10156H4.28178V5.14617Z" fill="white"/>
</svg>
