<svg width="11" height="10" viewBox="0 0 11 10" fill="none" xmlns="http://www.w3.org/2000/svg">
<g clip-path="url(#clip0_37_1155)">
<path d="M0.729131 4.98049C0.729131 6.67171 1.72416 8.13325 3.16702 8.82585L1.10363 3.24163C0.863622 3.77301 0.729131 4.36106 0.729131 4.98049ZM7.97489 4.76488C7.97489 4.23683 7.78287 3.87114 7.61817 3.5865C7.3989 3.23455 7.19338 2.9365 7.19338 2.58455C7.19338 2.19179 7.49495 1.82618 7.91975 1.82618C7.93892 1.82618 7.95712 1.82854 7.9758 1.82959C7.20622 1.13317 6.1809 0.707968 5.05476 0.707968C3.54358 0.707968 2.21405 1.47382 1.4406 2.63382C1.54209 2.63683 1.63773 2.63894 1.71897 2.63894C2.17142 2.63894 2.87178 2.58472 2.87178 2.58472C3.10496 2.57114 3.13245 2.90943 2.89952 2.93667C2.89952 2.93667 2.66519 2.9639 2.40443 2.9774L3.97965 7.60545L4.92628 4.80114L4.25234 2.97724C4.0194 2.96374 3.79874 2.9365 3.79874 2.9365C3.56564 2.92301 3.59297 2.57098 3.82606 2.58455C3.82606 2.58455 4.54042 2.63878 4.96546 2.63878C5.41782 2.63878 6.11827 2.58455 6.11827 2.58455C6.35161 2.57098 6.37902 2.90927 6.146 2.9365C6.146 2.9365 5.91118 2.96374 5.65092 2.97724L7.21412 7.57024L7.64558 6.1461C7.83258 5.55512 7.97489 5.13065 7.97489 4.76488ZM5.13065 5.35423L3.83281 9.07935C4.22032 9.19187 4.63013 9.25342 5.05476 9.25342C5.55849 9.25342 6.04155 9.1674 6.4912 9.01122C6.4796 8.99293 6.46906 8.9735 6.46042 8.95236L5.13065 5.35423ZM8.85032 2.93057C8.86893 3.06667 8.87946 3.21276 8.87946 3.36992C8.87946 3.8035 8.79748 4.29089 8.55056 4.90033L7.22926 8.67374C8.51525 7.93301 9.38023 6.55683 9.38023 4.98057C9.38031 4.23772 9.1882 3.53919 8.85032 2.93057ZM5.05476 0C2.27447 0 0.0123901 2.23423 0.0123901 4.98049C0.0123901 7.72707 2.27447 9.96122 5.05476 9.96122C7.83497 9.96122 10.0974 7.72707 10.0974 4.98049C10.0973 2.23423 7.83497 0 5.05476 0ZM5.05476 9.73293C2.40196 9.73293 0.243594 7.60098 0.243594 4.98049C0.243594 2.36016 2.40188 0.228374 5.05476 0.228374C7.70747 0.228374 9.86568 2.36016 9.86568 4.98049C9.86568 7.60098 7.70747 9.73293 5.05476 9.73293Z" fill="#464342"/>
</g>
<defs>
<clipPath id="clip0_37_1155">
<rect width="10.1239" height="10" fill="white" transform="translate(0.0123901)"/>
</clipPath>
</defs>
</svg>
